<svg id="레이어_1" data-name="레이어 1" xmlns="http://www.w3.org/2000/svg" viewBox="0 0 157.6 170.48"><defs><style>.cls-1{fill:none;stroke:#000;stroke-miterlimit:10;}</style></defs><title>fam</title><path class="cls-1" d="M154.43,156.68h3.17V155.2h-3.14v-3.85h3.14v-1.89h-6.8v-3.92h6.8V143.8h-2.92V133h2.92V0L116.91-.41V11.13h3.18v4.08h-3.18v17h-4.74V-.46L83.43-.75V11.69H88v4H83.43V32.24H78.54V4.64l-4,4.4A18.36,18.36,0,0,1,75,13.28c0,6.78-3.26,11.82-8.7,11.82a7.41,7.41,0,0,1-4.79-1.68L1.28,89.94l89.33,44.5v-1.23h22v3.92H96l7.88,3.93h9v3.85h-1.29l6.61,3.29-.1-.14c4.33-1.89,6.44-6,6.44-10.59v-2.63h4.78v2.51a9.73,9.73,0,0,0,6,9.48l-2.59,3.78a11.9,11.9,0,0,1-5.67-5.66,13.22,13.22,0,0,1-4.11,5.61l5.66,2.83a21.57,21.57,0,0,1,6.38-.85c7.33,0,11.85,2.51,11.85,6.44a4.78,4.78,0,0,1-1,3l11.76,5.86V165.5h-3.17Zm-24.38-113h4.89V56.13h4.37v4h-4.37V76.69h-4.89ZM101,2.06h4.11V9.8h1.48V2.1h4.15V24.61H101Zm-11.29,0H94V9.8h1.44V2.1H99.5V24.61H89.73ZM77.21,53.62c0-4.6,3.7-7.74,8.66-7.74s8.67,3.14,8.67,7.74-3.78,7.81-8.67,7.81S77.21,58.24,77.21,53.62Zm27.21,22.69h-22V63.91h22Zm0-13.77h-5v-7H95.8V51.62h3.63V43.69h5Zm6.27,50.55h-3.3V91.36h4.85v17.47h.89a65.8,65.8,0,0,0,11.55-1.14c.23,1.29.41,2.63.6,3.85A73.58,73.58,0,0,1,110.69,113.09ZM125.8,68.32h-16V46.73h16Zm6.33,36.18v16.63h-5v-33h5v12.34h4.81v4Zm14.77,48.18h-4.59v-8.33h-2.22v6.93h-4.41V133.17h4.41v7.33h2.22v-7.92h4.59Z"/></svg>