<?xml version="1.0" encoding="utf-8"?>
<!-- Generator: Adobe Illustrator 22.1.0, SVG Export Plug-In . SVG Version: 6.00 Build 0)  -->
<svg version="1.1" xmlns="http://www.w3.org/2000/svg" xmlns:xlink="http://www.w3.org/1999/xlink" x="0px" y="0px"
	 viewBox="0 0 372.8 366" style="enable-background:new 0 0 372.8 366;" xml:space="preserve">
<style type="text/css">
	.st0{fill:none;stroke:#000000;stroke-width:0.75;stroke-miterlimit:10;}
	.st1{fill:none;stroke:#000000;stroke-width:0.5;stroke-miterlimit:10;}
	.st2{fill:none;stroke:#000000;stroke-width:0.25;stroke-miterlimit:10;}
	.st3{stroke:#000000;stroke-miterlimit:10;}
	.st4{fill:none;stroke:#000000;stroke-miterlimit:10;}
	.st5{display:none;}
	.st6{display:inline;}
	.st7{display:inline;clip-path:url(#SVGID_2_);}
	.st8{clip-path:url(#SVGID_6_);}
	.st9{clip-path:url(#SVGID_10_);}
	.st10{clip-path:url(#SVGID_14_);}
	.st11{clip-path:url(#SVGID_18_);fill:none;stroke:#231815;}
	.st12{clip-path:url(#SVGID_20_);fill:none;stroke:#231815;}
	.st13{clip-path:url(#SVGID_22_);fill:none;stroke:#231815;}
	.st14{fill:#231815;}
	.st15{fill:#FFFFFF;}
	.st16{fill:none;stroke:#231815;}
	.st17{fill:none;}
	.st18{font-family:'AppleSDGothicNeo-ExtraBold-KSCpc-EUC-H';}
	.st19{font-size:12px;}
	.st20{opacity:0.57;}
	.st21{enable-background:new    ;}
</style>
<g id="레이어_1">
	<title>대지 1</title>
	<g id="레이어_2_1_">
		<path class="st0" d="M-704.4-1231.6c0,0,16.6,18.7,13,49c-3.6,30.3-8.3,25.4-7.5,35.6s22.5,15.1,25.9,18.5"/>
		<circle class="st1" cx="-612.2" cy="-1178.8" r="20.3"/>
		<circle class="st1" cx="-611.4" cy="-1182.1" r="7.8"/>
		<circle class="st1" cx="-611.4" cy="-1181.5" r="9.2"/>
		<path class="st1" d="M-628.7-1178.8c0,4.1,1.5,8.1,4.3,11.1h24.4c6.1-6.7,5.7-17.1-1.1-23.3c-0.2-0.2-0.4-0.4-0.6-0.6h-21.1
			C-626.6-1188.4-628.7-1183.7-628.7-1178.8z"/>
		<path class="st1" d="M-636-1216.2c0,0-18.6,30-1.6,54.9s55.1,31.3,74.8,17.4c19.7-13.9,18.8-18.4,18.8-18.4l-45.8-24.4l41.1-44.3
			c0,0,1.5-23.7-5-29.4c-6.5-5.7-54.5-6.4-60-2.8s-10.3,8.4-13.2,29.5C-628.7-1223.9-636-1216.2-636-1216.2z"/>
		<path class="st0" d="M-531.9-1273.8c0,0,4.3,7.8,1.4,9.8s-15.6,11.8-12.3,26.4"/>
		<path class="st2" d="M-615.1-1187.7h1.4c0,0-1.9,2.5-1.4,4.4h-2.7C-617.8-1183.3-616.5-1187.7-615.1-1187.7z"/>
		<path class="st2" d="M-609.5-1187.7c0.4,0.5,0.8,1.1,0.9,1.7c0,0,1.2-0.9,1.8-0.4c0.6,0.6-1.7-1.7-1.7-1.7L-609.5-1187.7z"/>
		<path class="st2" d="M-609.5-1257.8c0,0-4.2-2.3-4.1,8.4c0,10.7-4.2,26.1-4.2,26.1s-5.5,7.3,4.2,6.2c9.6-1.1,53-1.2,53-1.2
			l9.1-10.3c0,0-3.2-16.4-3.2-19s0.4-12.3-7.8-10.3C-570.8-1256-609.5-1257.8-609.5-1257.8z"/>
		<path class="st2" d="M-597.5-1256.3c0,0-6-1.3-4.7,4.1c1.3,5.4,0,14.8,0,14.8s-2.5,4.1,5.7,3.2c8.2-0.9,23.1,0.1,23.1,0.1
			s9.4,2.3,7.9-3.5c-1.5-5.8-0.4-13.9-0.4-13.9s0.4-5.4-3.8-5C-574.1-1256.1-597.5-1256.3-597.5-1256.3z"/>
		<rect x="-589.5" y="-1255" class="st2" width="11.9" height="7.7"/>
		<path class="st2" d="M-597.5-1256.3c-2,2.7-2.8,6.1-2.3,9.4c1,5.4,3.9,9.9,9.9,10.5c6,0.6,13.5,1.5,18.9-3.6s3.5-14.1,1.2-16.4"/>
		<line class="st2" x1="-618.2" y1="-1218" x2="-601.8" y2="-1234.8"/>
		<line class="st2" x1="-566.7" y1="-1234.2" x2="-556.3" y2="-1223.2"/>
		<line class="st2" x1="-596.8" y1="-1240" x2="-589.5" y2="-1247.3"/>
		<line class="st2" x1="-577.6" y1="-1247.3" x2="-571" y2="-1240.1"/>
		<path class="st0" d="M-665.8-1275.7c0,0-12.7,7.1,14.5,6.7c13.3-1,14.1-2.5,12.5-5.4c-0.2-0.4-0.5-0.8-0.8-1.3H-665.8z"/>
		<path class="st0" d="M-704.4-1245.1c0,0,3.6-7.2,9.7-8c6.1-0.8,23-4.2,34.7-9.6c6.9-3.2,14.3-5.4,21.9-6.3c1.4-0.8,2.5-2,3.2-3.4
			c1-2.2,36.7-1.2,36.7-1.2l66.4-0.2l-0.8-1.9h-171.7V-1245.1z"/>
		<polygon class="st1" points="-694.7,-1244 -694.2,-1230.5 -691.2,-1230.5 -691.2,-1236 -686.7,-1230.5 -682.4,-1230.5 
			-688.6,-1237.2 -683.6,-1244 -687.1,-1244 -691.4,-1238.8 -691.5,-1244 		"/>
		<circle class="st1" cx="-677.5" cy="-1236" r="2.9"/>
		<circle class="st1" cx="-665.7" cy="-1236.2" r="2.9"/>
		<circle class="st1" cx="-677.5" cy="-1236" r="5.3"/>
		<path class="st1" d="M-660.4-1244.4h-3v3.7c-0.7-0.4-1.5-0.6-2.3-0.6c-2.9,0-5.3,2.4-5.3,5.3s2.4,5.3,5.3,5.3s5.3-2.4,5.3-5.3
			c0-0.1,0-0.2,0-0.3l0,0L-660.4-1244.4z"/>
		<path class="st1" d="M-657.7-1241.3v2.2c0,0,5.5-1.3,5.4,1.2c0,0-5.2-0.8-6.1,1.2s-1,5.3,3.1,5.7s5.7-2.1,5.7-2.1s1.2-5.4-0.5-7.2
			S-655.9-1241.8-657.7-1241.3z"/>
		<path class="st1" d="M-652.2-1236c0,0,0.6,2.5-3.1,2.2c-1.7-0.2-1.4-2.1,0-2C-655.3-1235.7-652.7-1235.6-652.2-1236z"/>
		<polygon class="st1" points="-648.2,-1246 -647.7,-1231.6 -644.6,-1231.6 -644.6,-1235.4 -641.5,-1231.6 -637.6,-1231.6 
			-642.2,-1237 -638.1,-1241.7 -642.1,-1241.7 -644.7,-1238.1 -644.9,-1246 		"/>
		<polygon class="st0" points="-507.4,-1275.7 -589.9,-1186.7 -480.4,-1128.4 -671.6,-1128.4 -704.4,-1128.4 -704.4,-1233.4 
			-704.4,-1275.7 		"/>
	</g>
	
		<image style="display:none;overflow:visible;" width="1004" height="1602" xlink:href="../../../Desktop/Screen Shot 2020-02-28 at 12.09.10 AM.png"  transform="matrix(0.5 0 0 0.5 -618.1329 -846.7519)">
	</image>
	<path class="st3" d="M-2060.9-364.7c0-164.6,0-636.3,0-801c139.9,0,361.9,0,502,0c0,164.6,0,636.3,0,801
		C-1698.8-364.7-1920.9-364.7-2060.9-364.7z M-1623.2-695.3c0.4-0.6,0.8-1.2,1.2-1.7c-2.4-3-4.4-6.5-7.2-9
		c-6.6-5.8-8.2-12.9-5.9-20.8c2.8-9.7,5.8-19.4,9.7-28.8c6.3-15.4,9.3-31.2,7.8-47.8c-2.5-27.8-8.1-55-19.2-80.7
		c-3.9-9-9.2-17.8-15.4-25.4c-10.3-12.6-22-24-33-36.1c-3.5-3.8-6.5-8-9.6-12.1c-7.4-10-14.4-20.4-22.2-30.2
		c-11.7-14.6-24.3-28.5-41.1-37.5c-17.9-9.6-36.7-17.5-56.7-21.7c-24.9-5.2-48.8-4.5-69.3,13.3c-1,0.8-3,0.6-4.5,0.6
		c-10.1-0.2-20.4-2-30.2-0.5c-32.7,5.1-56.6,23-70.9,53c-17.8,37.3-26.2,76.7-26.1,117.9c0,5.9,1.3,11.9,2.9,17.5
		c5.2,17.9,7.9,36,6.5,54.7c-1.5,19.2-1.1,38.3,1.8,57.3c2.9,18.7,9.4,35.6,21.5,50.8c14.8,18.4,28.1,38,41.8,57.3
		c2.4,3.3,4.4,7.2,5.5,11.1c4.2,14.6,7.2,29.4,2,45.8c5.8,0.8,11,2.3,16.1,2c11.6-0.6,19.4-7.9,26.2-16.5c2-2.5,3.5-5.4,5.8-7.4
		c9-8.1,13.5-20.2,23.8-27.2c0.4-0.3,0.6-0.7,1-1.2c10.8,4.3,21.6,8.4,33.4,4.7c11.8-3.7,18.2-13.2,24-24.6c1.5,4.6,2.6,8,3.7,11.4
		c2.2,6.4,4.8,8.4,11.2,6.7c9-2.4,17.6-5.9,26.5-8.7c1.9-0.6,4.6-0.6,6.4,0.2c13.8,6.6,27.6,11.1,42.1,2c9.6,17.3,25.1,24.6,43.4,27
		c8.3,1.1,16.7,0.9,24.3-3.5c3.8-2.2,6.2-5.1,4-9.9c-7.1-1.1-14.1-2.2-17.7-10.2c14.2-1.8,27.7-5.1,38.4-14.2
		c6.8-5.8,12.6-13.2,17.7-20.6c3.6-5.3,0.4-9.3-6.1-8.9c-2.6,0.2-5.3,1.2-7.9,1.1c-3.7-0.2-7.8-0.4-10.9-2.1
		c-7.1-4.1-13.2-20.8-11.5-29.1C-1634.4-696.6-1628.8-695.9-1623.2-695.3z"/>
	<path class="st4" d="M-1929.1-837.4c-7.8,9.4-8.1,18.8-1.5,28c5.2,7.4,12.5,11.1,21.6,9.3c10-2,13.9-9.4,15.2-20.5
		c3.6,4.2,6.3,7.5,9,10.7c0.5-0.1,1-0.1,1.4-0.2c-0.7-3.5-0.5-7.4-2.2-10.3c-4.8-8.1-6.4-17-8.9-25.8c-0.7-2.6-2.8-5.4-5-6.7
		c-5.7-3.3-11.7-5.6-15.6-11.7c-1.7-2.6-5.6-4.3-8.8-5.1c-10-2.4-20.1-3.1-30.2-0.4c-3.3,0.9-5.5,0.1-6.9-2.9
		c-2.9-6.1-6.5-12.1-8.4-18.5c-0.9-2.9,0.9-7.1,2.6-10.1c6.3-11.3,16.4-19.1,26.3-27c10.3-8.2,20.9-16,30.2-25.2
		c6.7-6.6,13.2-5.4,20.1-2.7c10.1,4,20.3,7.1,31.2,8c11.7,0.9,23.5,2,35,4.4c20.3,4.4,38.4,13.7,54.3,27.2
		c23.6,20.2,41.3,45,56.8,71.6c2.5,4.3,2.7,7.7-0.8,11.6c-7.8,8.7-11.7,19-15.6,30.1c-7.3,20.8-13.1,42.5-25.7,61
		c-9,13.2-18.3,26.1-32.4,34.7c-5.9,3.6-10.9,8.7-16.7,12.5c-9.7,6.4-20.3,7.6-31.5,3.9c-12.3-4-24.9-7-37-11.5
		c-6.2-2.3-11.8-6.7-17.1-11c-11.3-9.1-18.7-21.5-26.3-33.6c-6-9.4-12.3-18.6-17.8-28.3c-3.4-6-5.7-12.7-8.4-19.1
		c-0.8-1.8-1.1-3.9-2.2-5.6c-2.7-4-3.8-7.8-1.2-12.5c0.9-1.5,0-4.2-0.3-6.3C-1947.2-829.7-1940.5-837.6-1929.1-837.4z
		 M-1798.8-865.4c17.1-4.3,26.7,4.8,34.1,16.6c2.5-1.9,4.4-3.1,6.1-4.6c1.6-1.4,3.1-3.1,4.6-4.7c-0.3-0.3-0.6-0.5-0.9-0.8
		c-2,0.3-4.1,0.7-6.8,1.1c1.7-2.6,3-4.6,4.5-6.9c-3.3,0.2-5.7,0.4-8.6,0.6c1.4-2.3,2.2-3.7,3.6-6c-3.2,0.5-5.4,0.9-8,1.3
		c0-1.5,0-2.7,0-2.7c-6.4,0-12.5-0.3-18.5,0.1c-5.3,0.3-10.7,0.9-15.8,2.3c-18.4,5-29.9,19.7-29.9,37.8c0,3.8,0.2,7.6,4.9,10.5
		c0.2-3.6,0.2-6.5,0.6-9.4c0.3-2.8,0.8-5.6,1.4-8.4c0.7-2.7,1.6-5.3,2.5-7.9c1.8,14.8,9.6,24.1,21.8,25.3c10.1,1,20.2-6,22.8-15.7
		C-1777.3-848.6-1783.2-858.2-1798.8-865.4z M-1808.3-731.4c0.1-0.6,0.2-1.2,0.3-1.9c-4.6-0.8-9.2-2.3-13.8-2.3
		c-11-0.1-21.9,0.3-32.9,1c-6.9,0.4-13.6,2.3-18.6,7.5c-1.4,1.5-2.8,5.2-1.9,6.4c4.4,6.4,9.7,12,18.1,12.8
		c11.8,1.1,23.2-0.8,34.2-5.5c6.4-2.7,8.9-8.6,12-14.4c-13.7,6.2-26.9,14.1-42.5,8.4c-0.2-0.8-0.3-1.5-0.5-2.3
		C-1838.6-724.9-1823.5-728.1-1808.3-731.4z M-1773.6-893.3c0-0.8,0-1.5,0-2.3c-5.7-4.2-12.4-5.7-19.3-6.3
		c-20.5-1.5-38.6,5.5-55.8,15.5c-1.5,0.9-3.5,2.1-4,3.6c-1,2.7-2.2,6.2-1.4,8.7c1.2,3.6,5.2,4.1,8.5,2.9c4.5-1.6,9.1-3.4,13.1-5.9
		c15.4-9.7,31.4-16.7,50.2-14.5C-1779.6-891.4-1776.5-892.7-1773.6-893.3z M-1876.5-757.6c2.8,7.6,9.8,12.1,17.2,11.8
		c7.5-0.3,13.8-3.5,19.3-8.3c1.8-1.5,2.7-4.4,3.3-6.9c0.3-1.2-1.1-2.8-1.8-4.2c-1.1,0.8-2.6,1.4-3.3,2.5c-3.5,6.2-9,9-15.8,10
		C-1864.5-751.5-1870.9-752.6-1876.5-757.6z"/>
	<path class="st4" d="M-1924.2-820.6c-2.3-3.3-4.4-5.1-4.6-7.1c-0.1-1.2,3.2-4,4.3-3.7c1.9,0.5,4.1,2.7,4.6,4.6
		C-1919.4-825.6-1921.9-823.7-1924.2-820.6z"/>
	<path class="st4" d="M-1937.9-842.8c-5,2.4-9.3,4.6-13.9,6.8C-1951.7-842.2-1945.9-845-1937.9-842.8z"/>
	<path class="st4" d="M-1906.1-806.9c2-2,4-4,6.9-6.8C-1898.8-806.8-1900.3-805.1-1906.1-806.9z"/>
	<path class="st4" d="M-1798.8-865.4c15.6,7.2,21.5,16.7,18.3,28.5c-2.6,9.7-12.8,16.7-22.8,15.7c-12.2-1.2-20-10.4-21.8-25.3
		c-0.8,2.6-1.8,5.2-2.5,7.9c-0.7,2.7-1.1,5.6-1.4,8.4c-0.3,2.9-0.4,5.8-0.6,9.4c-4.7-2.9-4.9-6.8-4.9-10.5c0-18,11.5-32.7,29.9-37.8
		c5.1-1.4,10.5-2,15.8-2.3c6.1-0.4,12.2-0.1,18.5-0.1c0,0,0,1.2,0,2.7c2.5-0.4,4.7-0.8,8-1.3c-1.3,2.3-2.2,3.7-3.6,6
		c3-0.2,5.4-0.4,8.6-0.6c-1.5,2.4-2.8,4.3-4.5,6.9c2.7-0.4,4.8-0.8,6.8-1.1c0.3,0.3,0.6,0.5,0.9,0.8c-1.5,1.6-3,3.3-4.6,4.7
		c-1.7,1.5-3.5,2.7-6.1,4.6C-1772.1-860.5-1781.7-869.7-1798.8-865.4z M-1811.9-843c2.1-3.2,4.7-5.4,4.3-6.7c-0.5-2-3.2-3.4-5-5
		c-1.6,1.8-4.1,3.5-4.3,5.5C-1817.2-847.8-1814.4-846-1811.9-843z M-1793.6-829.5c2,1.3,3.4,2.4,3.6,2.2c1.9-1.7,3.6-3.6,5.3-5.4
		c-0.8-0.7-2-2.1-2.2-1.9C-1789-833.3-1790.8-831.7-1793.6-829.5z"/>
	<path class="st4" d="M-1808.3-731.4c-15.1,3.3-30.3,6.5-45.4,9.8c0.2,0.8,0.3,1.5,0.5,2.3c15.5,5.7,28.7-2.2,42.5-8.4
		c-3.1,5.8-5.6,11.6-12,14.4c-10.9,4.7-22.3,6.6-34.2,5.5c-8.4-0.8-13.8-6.4-18.1-12.8c-0.8-1.2,0.5-4.9,1.9-6.4
		c5-5.2,11.7-7.1,18.6-7.5c10.9-0.7,21.9-1,32.9-1c4.6,0,9.2,1.5,13.8,2.3C-1808.1-732.6-1808.2-732-1808.3-731.4z"/>
	<path class="st4" d="M-1773.6-893.3c-2.9,0.6-5.9,1.9-8.8,1.6c-18.8-2.2-34.9,4.8-50.2,14.5c-4,2.5-8.6,4.3-13.1,5.9
		c-3.4,1.2-7.4,0.7-8.5-2.9c-0.8-2.5,0.4-5.9,1.4-8.7c0.6-1.5,2.5-2.6,4-3.6c17.2-10.1,35.4-17.1,55.8-15.5c7,0.5,13.7,2.1,19.3,6.3
		C-1773.6-894.8-1773.6-894-1773.6-893.3z"/>
	<path class="st4" d="M-1876.5-757.6c5.5,5.1,11.9,6.1,19,5c6.8-1.1,12.3-3.8,15.8-10c0.6-1.1,2.1-1.7,3.3-2.5
		c0.6,1.4,2.1,3,1.8,4.2c-0.6,2.4-1.5,5.3-3.3,6.9c-5.5,4.7-11.8,7.9-19.3,8.3C-1866.7-745.5-1873.6-750-1876.5-757.6z"/>
	<path class="st4" d="M-1811.9-843c-2.5-2.9-5.3-4.8-5.1-6.2c0.3-2,2.8-3.7,4.3-5.5c1.8,1.6,4.4,3,5,5
		C-1807.3-848.4-1809.8-846.2-1811.9-843z"/>
	<path class="st4" d="M-1793.6-829.5c2.8-2.2,4.6-3.8,6.7-5.1c0.2-0.1,1.4,1.3,2.2,1.9c-1.7,1.8-3.4,3.7-5.3,5.4
		C-1790.2-827.1-1791.6-828.3-1793.6-829.5z"/>
	<g class="st5">
		<defs>
			<polygon id="SVGID_1_" points="-472.3,-792.7 -552.1,-702.8 -395.8,-624.9 -395.8,-792.7 			"/>
		</defs>
		<clipPath id="SVGID_2_" class="st6">
			<use xlink:href="#SVGID_1_"  style="overflow:visible;"/>
		</clipPath>
		<g class="st7">
			<defs>
				<rect id="SVGID_3_" x="-553.4" y="-794.6" width="159.3" height="171.6"/>
			</defs>
			<clipPath id="SVGID_4_">
				<use xlink:href="#SVGID_3_"  style="overflow:visible;"/>
			</clipPath>
			<g style="clip-path:url(#SVGID_4_);">
				
					<image style="overflow:visible;" width="168" height="181" xlink:href="642B2870671260CE.jpg"  transform="matrix(0.948 0 0 0.948 -553.3777 -794.5912)">
				</image>
			</g>
		</g>
	</g>
	<path class="st4" d="M-826.2-143h3.2v-1.5h-3.1v-3.9h3.1v-1.9h-6.8v-3.9h6.8v-1.7h-2.9v-10.8h2.9v-133l-40.7-0.4v11.5h3.2v4.1h-3.2
		v17h-4.7v-32.7l-28.7-0.3v12.4h4.6v4h-4.6v16.6h-4.9V-295l-4,4.4c0.3,1.3,0.5,2.7,0.5,4.2c0,6.8-3.3,11.8-8.7,11.8
		c-1.9,0-3.5-0.6-4.8-1.7l-60.2,66.5l89.3,44.5v-1.2h22v3.9h-16.6l7.9,3.9h9v3.9h-1.3l6.6,3.3l-0.1-0.1c4.3-1.9,6.4-6,6.4-10.6v-2.6
		h4.8v2.5c0,4.5,2.2,7.9,6,9.5l-2.6,3.8c-2.1-0.9-4.9-3.4-5.7-5.7c-0.7,2-2.3,4.2-4.1,5.6l5.7,2.8c1.8-0.5,3.9-0.9,6.4-0.9
		c7.3,0,11.8,2.5,11.8,6.4c0,1.1-0.4,2.1-1,3l11.8,5.9v-2.3h-3.2V-143z M-850.6-256h4.9v12.4h4.4v4h-4.4v16.6h-4.9V-256z
		 M-879.6-297.6h4.1v7.7h1.5v-7.7h4.1v22.5h-9.7V-297.6z M-890.9-297.6h4.2v7.7h1.4v-7.7h4.1v22.5h-9.8V-297.6z M-903.5-246.1
		c0-4.6,3.7-7.7,8.7-7.7c4.9,0,8.7,3.1,8.7,7.7c0,4.6-3.8,7.8-8.7,7.8C-899.8-238.2-903.5-241.4-903.5-246.1z M-876.2-223.4h-22
		v-12.4h22V-223.4z M-876.2-237.1h-5v-7h-3.6v-3.9h3.6v-7.9h5V-237.1z M-870-186.6h-3.3v-21.7h4.9v17.5h0.9c3.9,0,8.6-0.6,11.6-1.1
		c0.2,1.3,0.4,2.6,0.6,3.9C-859.6-187.1-865.9-186.6-870-186.6z M-854.9-231.4h-16v-21.6h16V-231.4z M-848.5-195.2v16.6h-5v-33h5
		v12.3h4.8v4H-848.5z M-833.8-147h-4.6v-8.3h-2.2v6.9h-4.4v-18.1h4.4v7.3h2.2v-7.9h4.6V-147z"/>
	<g>
		<g>
			<defs>
				<polygon id="SVGID_5_" points="-609.8,-542.9 -609.8,-508 -522.7,-465.2 -400.8,-465.2 -400.8,-499.2 -488.7,-542.9 				"/>
			</defs>
			<clipPath id="SVGID_6_">
				<use xlink:href="#SVGID_5_"  style="overflow:visible;"/>
			</clipPath>
			<g class="st8">
				<defs>
					<rect id="SVGID_7_" x="-609.8" y="-544.1" width="209" height="80.4"/>
				</defs>
				<clipPath id="SVGID_8_">
					<use xlink:href="#SVGID_7_"  style="overflow:visible;"/>
				</clipPath>
				<g style="clip-path:url(#SVGID_8_);">
					
						<image style="overflow:visible;" width="330" height="127" xlink:href="642B2870671260CA.png"  transform="matrix(0.6334 0 0 0.6334 -609.7896 -544.1205)">
					</image>
				</g>
			</g>
		</g>
		<g>
			<defs>
				<polygon id="SVGID_9_" points="-476.2,-465.2 -332.2,-465.2 -476.2,-536.7 				"/>
			</defs>
			<clipPath id="SVGID_10_">
				<use xlink:href="#SVGID_9_"  style="overflow:visible;"/>
			</clipPath>
			<g class="st9">
				<defs>
					<rect id="SVGID_11_" x="-476.2" y="-544.1" width="144" height="80"/>
				</defs>
				<clipPath id="SVGID_12_">
					<use xlink:href="#SVGID_11_"  style="overflow:visible;"/>
				</clipPath>
				<g style="clip-path:url(#SVGID_12_);">
					
						<image style="overflow:visible;" width="288" height="160" xlink:href="642B2870671260C9.png"  transform="matrix(0.5 0 0 0.5 -476.2279 -544.0671)">
					</image>
				</g>
			</g>
		</g>
		<g>
			<defs>
				<polygon id="SVGID_13_" points="-673.1,-542.9 -673.1,-539.1 -604.4,-505.3 -506.1,-505.3 -506.1,-542.9 				"/>
			</defs>
			<clipPath id="SVGID_14_">
				<use xlink:href="#SVGID_13_"  style="overflow:visible;"/>
			</clipPath>
			<g class="st10">
				<defs>
					<rect id="SVGID_15_" x="-673.1" y="-544.3" width="167" height="39"/>
				</defs>
				<clipPath id="SVGID_16_">
					<use xlink:href="#SVGID_15_"  style="overflow:visible;"/>
				</clipPath>
				<g style="clip-path:url(#SVGID_16_);">
					
						<image style="overflow:visible;" width="334" height="78" xlink:href="642B2870671260D6.png"  transform="matrix(0.5 0 0 0.5 -673.0866 -544.3456)">
					</image>
				</g>
			</g>
		</g>
	</g>
	<g>
		<g>
			<defs>
				<polygon id="SVGID_17_" points="13.6,357.1 363.3,357.1 363.3,7.5 188.4,7.5 13.6,7.5 				"/>
			</defs>
			<clipPath id="SVGID_18_">
				<use xlink:href="#SVGID_17_"  style="overflow:visible;"/>
			</clipPath>
			
				<ellipse transform="matrix(2.645461e-03 -1 1 2.645461e-03 5.6614 370.2434)" class="st11" cx="188.4" cy="182.3" rx="174.3" ry="174.3"/>
		</g>
		<line class="st4" x1="188.4" y1="356.6" x2="188.4" y2="7.5"/>
		<line class="st4" x1="14.1" y1="182.3" x2="362.8" y2="182.3"/>
		<line class="st4" x1="314.8" y1="68.8" x2="53.9" y2="300.8"/>
		<line class="st4" x1="65.5" y1="58.7" x2="311.3" y2="306"/>
	</g>
	<rect x="-638.1" y="-819" class="st3" width="528.9" height="195.1"/>
	<rect x="-2067.3" y="-1251.2" class="st3" width="556.4" height="119.1"/>
	<rect x="-1989.2" y="-449.5" class="st3" width="556.4" height="119.1"/>
	<g>
		<defs>
			<rect id="SVGID_19_" x="-202.4" y="-375.5" width="228.5" height="227.2"/>
		</defs>
		<clipPath id="SVGID_20_">
			<use xlink:href="#SVGID_19_"  style="overflow:visible;"/>
		</clipPath>
		<rect x="-201.6" y="-374.6" class="st12" width="226" height="225.4"/>
		<polyline class="st12" points="-202.1,-375.1 24.9,-148.8 -117.9,-148.8 -117.9,-288.2 		"/>
	</g>
	<g>
		<defs>
			<rect id="SVGID_21_" x="-1240" y="-7.3" width="459.8" height="421.3"/>
		</defs>
		<clipPath id="SVGID_22_">
			<use xlink:href="#SVGID_21_"  style="overflow:visible;"/>
		</clipPath>
		
			<ellipse transform="matrix(2.597363e-03 -1 1 2.597363e-03 -1229.911 -898.0526)" class="st13" cx="-1065.1" cy="167.5" rx="174.3" ry="174.3"/>
	</g>
	<text transform="matrix(1 0 0 1 -536.9832 -244.9448)"><tspan x="0" y="0" class="st14 st19" style="font-family:'Montserrat-Medium';">A</tspan><tspan x="8.7" y="0" class="st14 st19" style="font-family:'Montserrat-Medium';">c</tspan><tspan x="15.5" y="0" class="st14 st19" style="font-family:'Montserrat-Medium';">c</tspan><tspan x="22.3" y="0" class="st14 st19" style="font-family:'Montserrat-Medium';">omplish</tspan><tspan x="71.6" y="0" class="st14 st19" style="font-family:'Montserrat-Medium';">m</tspan><tspan x="84.3" y="0" class="st14 st19" style="font-family:'Montserrat-Medium';">ent I am p</tspan><tspan x="146.3" y="0" class="st14 st19" style="font-family:'Montserrat-Medium';">r</tspan><tspan x="151.1" y="0" class="st14 st19" style="font-family:'Montserrat-Medium';">oud of :</tspan></text>
	<text transform="matrix(1 0 0 1 -507.9793 -216.145)"><tspan x="0" y="0" class="st14 st19" style="font-family:'Montserrat-Medium';">a</tspan><tspan x="7.2" y="0" class="st14 st19" style="font-family:'Montserrat-Medium';">t</tspan><tspan x="12" y="0" class="st14 st19" style="font-family:'Montserrat-Medium';">t</tspan><tspan x="16.8" y="0" class="st14 st19" style="font-family:'Montserrat-Medium';">e</tspan><tspan x="24.1" y="0" class="st14 st19" style="font-family:'Montserrat-Medium';">n</tspan><tspan x="32.3" y="0" class="st14 st19" style="font-family:'Montserrat-Medium';">di</tspan><tspan x="43.8" y="0" class="st14 st19" style="font-family:'Montserrat-Medium';">n</tspan><tspan x="52.1" y="0" class="st14 st19" style="font-family:'Montserrat-Medium';">g </tspan><tspan x="63.6" y="0" class="st14 st19" style="font-family:'Montserrat-Medium';">P</tspan><tspan x="72" y="0" class="st14 st19" style="font-family:'Montserrat-Medium';">a</tspan><tspan x="79.2" y="0" class="st14 st19" style="font-family:'Montserrat-Medium';">r</tspan><tspan x="84.1" y="0" class="st14 st19" style="font-family:'Montserrat-Medium';">sons </tspan><tspan x="115.2" y="0" class="st14 st19" style="font-family:'Montserrat-Medium';">w</tspan><tspan x="125.6" y="0" class="st14 st19" style="font-family:'Montserrat-Medium';">/ s</tspan><tspan x="139.1" y="0" class="st14 st19" style="font-family:'Montserrat-Medium';">c</tspan><tspan x="145.8" y="0" class="st14 st19" style="font-family:'Montserrat-Medium';">h</tspan><tspan x="154" y="0" class="st14 st19" style="font-family:'Montserrat-Medium';">ola</tspan><tspan x="172.2" y="0" class="st14 st19" style="font-family:'Montserrat-Medium';">r</tspan><tspan x="177" y="0" class="st14 st19" style="font-family:'Montserrat-Medium';">-</tspan></text>
	<text transform="matrix(1 0 0 1 -493.9754 -201.7446)"><tspan x="0" y="0" class="st14 st19" style="font-family:'Montserrat-Medium';">shipn, livi</tspan><tspan x="56.6" y="0" class="st14 st19" style="font-family:'Montserrat-Medium';">n</tspan><tspan x="64.8" y="0" class="st14 st19" style="font-family:'Montserrat-Medium';">g a good li</tspan><tspan x="128.3" y="0" class="st14 st19" style="font-family:'Montserrat-Medium';">f</tspan><tspan x="132.5" y="0" class="st14 st19" style="font-family:'Montserrat-Medium';">e I </tspan></text>
	<text transform="matrix(1 0 0 1 -479.9715 -187.3452)" class="st14 st19" style="font-family:'Montserrat-Medium';">guess</text>
	<text transform="matrix(1 0 0 1 -464.9715 -172.9448)"><tspan x="0" y="0" class="st14 st19" style="font-family:'Montserrat-Medium';">. . . :-) h</tspan><tspan x="40.6" y="0" class="st14 st19" style="font-family:'Montserrat-Medium';">a</tspan><tspan x="47.7" y="0" class="st14 st19" style="font-family:'Montserrat-Medium';">vi</tspan><tspan x="57.7" y="0" class="st14 st19" style="font-family:'Montserrat-Medium';">n</tspan><tspan x="66" y="0" class="st14 st19" style="font-family:'Montserrat-Medium';">g a</tspan><tspan x="84.6" y="0" class="st14 st19" style="font-family:'Montserrat-Medium';">n</tspan><tspan x="92.8" y="0" class="st14 st19" style="font-family:'Montserrat-Medium';">d get </tspan></text>
	<text transform="matrix(1 0 0 1 -450.9676 -158.5454)"><tspan x="0" y="0" class="st14 st19" style="font-family:'Montserrat-Medium';">t</tspan><tspan x="4.8" y="0" class="st14 st19" style="font-family:'Montserrat-Medium';">o </tspan><tspan x="15.6" y="0" class="st14 st19" style="font-family:'Montserrat-Medium';">k</tspan><tspan x="22.9" y="0" class="st14 st19" style="font-family:'Montserrat-Medium';">n</tspan><tspan x="31.1" y="0" class="st14 st19" style="font-family:'Montserrat-Medium';">-</tspan><tspan x="35.8" y="0" class="st14 st19" style="font-family:'Montserrat-Medium';">o</tspan><tspan x="43.2" y="0" class="st14 st19" style="font-family:'Montserrat-Medium';">w amazi</tspan><tspan x="93.9" y="0" class="st14 st19" style="font-family:'Montserrat-Medium';">n</tspan><tspan x="102.1" y="0" class="st14 st19" style="font-family:'Montserrat-Medium';">g </tspan></text>
	<text transform="matrix(1 0 0 1 -436.9637 -144.145)"><tspan x="0" y="0" class="st14 st19" style="font-family:'Montserrat-Medium';">people a</tspan><tspan x="52.4" y="0" class="st14 st19" style="font-family:'Montserrat-Medium';">n</tspan><tspan x="60.6" y="0" class="st14 st19" style="font-family:'Montserrat-Medium';">d </tspan></text>
	<text transform="matrix(1 0 0 1 -421.9637 -129.7456)"><tspan x="0" y="0" class="st14 st19" style="font-family:'Montserrat-Medium';">f</tspan><tspan x="5.2" y="0" class="st14 st19" style="font-family:'Montserrat-Medium';">r</tspan><tspan x="10" y="0" class="st14 st19" style="font-family:'Montserrat-Medium';">ie</tspan><tspan x="20.7" y="0" class="st14 st19" style="font-family:'Montserrat-Medium';">n</tspan><tspan x="28.9" y="0" class="st14 st19" style="font-family:'Montserrat-Medium';">ds, a</tspan><tspan x="56.2" y="0" class="st14 st19" style="font-family:'Montserrat-Medium';">n</tspan><tspan x="64.4" y="0" class="st14 st19" style="font-family:'Montserrat-Medium';">d </tspan></text>
	<text transform="matrix(1 0 0 1 -407.9598 -115.3452)"><tspan x="0" y="0" class="st14 st19" style="font-family:'Montserrat-Medium';">f</tspan><tspan x="4.1" y="0" class="st14 st19" style="font-family:'Montserrat-Medium';">amily a</tspan><tspan x="47.8" y="0" class="st14 st19" style="font-family:'Montserrat-Medium';">r</tspan><tspan x="52.6" y="0" class="st14 st19" style="font-family:'Montserrat-Medium';">ou</tspan><tspan x="68.3" y="0" class="st14 st19" style="font-family:'Montserrat-Medium';">n</tspan><tspan x="76.5" y="0" class="st14 st19" style="font-family:'Montserrat-Medium';">d </tspan></text>
	<text transform="matrix(1 0 0 1 -393.9559 -100.9448)"><tspan x="0" y="0" class="st14 st19" style="font-family:'Montserrat-Medium';">m</tspan><tspan x="12.7" y="0" class="st14 st19" style="font-family:'Montserrat-Medium';">e . . </tspan></text>
	<text transform="matrix(1 0 0 1 -379.951 -86.5454)"><tspan x="0" y="0" class="st14 st19" style="font-family:'Montserrat-Medium';">*       *     *</tspan><tspan x="53.1" y="0" class="st14 st19" style="font-family:'Montserrat-Medium'; letter-spacing:-2;">    </tspan><tspan x="56.3" y="0" class="st14 st19" style="font-family:'Montserrat-Medium';"> </tspan></text>
	<text transform="matrix(1 0 0 1 -364.951 -72.145)" class="st14 st19" style="font-family:'Montserrat-Medium';">*       *  </text>
	<text transform="matrix(1 0 0 1 -350.9471 -57.7446)" class="st14 st19" style="font-family:'Montserrat-Medium';">*     * </text>
	<text transform="matrix(1 0 0 1 -336.9432 -43.3452)"><tspan x="0" y="0" class="st14 st19" style="font-family:'Montserrat-Medium';">*</tspan><tspan x="4.8" y="0" class="st14 st19" style="font-family:'Montserrat-Medium';"> </tspan><tspan x="7.5" y="0" class="st14 st19" style="font-family:'Montserrat-Medium';"> </tspan></text>
	<polygon class="st14" points="-548,-254.4 -547.3,-28.4 -465.1,-28.4 -463.7,-169.4 	"/>
	<text transform="matrix(-6.123234e-17 -1 1 -6.123234e-17 -533.2396 -32.7944)"><tspan x="0" y="0" class="st15" style="font-family:'Montserrat-Thin'; font-size:10px;">I h</tspan><tspan x="12" y="0" class="st15" style="font-family:'Montserrat-Thin'; font-size:10px;">a</tspan><tspan x="17.7" y="0" class="st15" style="font-family:'Montserrat-Thin'; font-size:10px;">v</tspan><tspan x="22.6" y="0" class="st15" style="font-family:'Montserrat-Thin'; font-size:10px;">e n</tspan><tspan x="37.7" y="0" class="st15" style="font-family:'Montserrat-Thin'; font-size:10px;">e</tspan><tspan x="43.5" y="0" class="st15" style="font-family:'Montserrat-Thin'; font-size:10px;">v</tspan><tspan x="48.4" y="0" class="st15" style="font-family:'Montserrat-Thin'; font-size:10px;">er:</tspan></text>
	<text transform="matrix(-6.123234e-17 -1 1 -6.123234e-17 -518.1396 -32.7929)"><tspan x="0" y="0" class="st15 st19" style="font-family:'Montserrat-Thin';">juul or smo</tspan><tspan x="65.6" y="0" class="st15 st19" style="font-family:'Montserrat-Thin';">k</tspan><tspan x="72.2" y="0" class="st15 st19" style="font-family:'Montserrat-Thin';">e</tspan></text>
	<text transform="matrix(1 0 0 1 -464.5027 -159.0347)" class="st14" style="font-family:'AppleMyungjo'; font-size:6px;">☆</text>
	<text transform="matrix(1 0 0 1 -464.5027 -151.8345)" class="st14" style="font-family:'AppleMyungjo'; font-size:6px;">★</text>
	
		<text transform="matrix(1 0 0 1 -464.5027 -144.4243)" class="st14" style="font-family:'AdobeMyungjoStd-Medium-KSCpc-EUC-H'; font-size:6px;">☆</text>
	
		<text transform="matrix(1 0 0 1 -464.5027 -137.2251)" class="st14" style="font-family:'AdobeMyungjoStd-Medium-KSCpc-EUC-H'; font-size:6px;">-</text>
	<text transform="matrix(1 0 0 1 -459.3133 -137.4048)"><tspan x="0" y="0" class="st14" style="font-family:'Montserrat-Thin'; font-size:6px;">w</tspan><tspan x="5.2" y="0" class="st14" style="font-family:'Montserrat-Thin'; font-size:6px;">r</tspan><tspan x="7.6" y="0" class="st14" style="font-family:'Montserrat-Thin'; font-size:6px;">iti</tspan><tspan x="13.5" y="0" class="st14" style="font-family:'Montserrat-Thin'; font-size:6px;">n</tspan><tspan x="17.7" y="0" class="st14" style="font-family:'Montserrat-Thin'; font-size:6px;">g </tspan></text>
	<text transform="matrix(1 0 0 1 -464.5027 -130.2046)"><tspan x="0" y="0" class="st14" style="font-family:'Montserrat-Thin'; font-size:6px;"> </tspan><tspan x="2.5" y="0" class="st14" style="font-family:'Montserrat-Thin'; font-size:6px;"> </tspan><tspan x="5" y="0" class="st14" style="font-family:'Montserrat-Thin'; font-size:6px;"> </tspan><tspan x="7.4" y="0" class="st14" style="font-family:'Montserrat-Thin'; font-size:6px;">jou</tspan><tspan x="18.1" y="0" class="st14" style="font-family:'Montserrat-Thin'; font-size:6px;">r</tspan><tspan x="20.8" y="0" class="st14" style="font-family:'Montserrat-Thin'; font-size:6px;">na</tspan><tspan x="29.2" y="0" class="st14" style="font-family:'Montserrat-Thin'; font-size:6px;">l</tspan><tspan x="31.2" y="0" class="st14" style="font-family:'Montserrat-Thin'; font-size:6px;">s </tspan></text>
	
		<text transform="matrix(1 0 0 1 -464.5027 -122.8247)" class="st14" style="font-family:'AdobeMyungjoStd-Medium-KSCpc-EUC-H'; font-size:6px;">-</text>
	<g>
		<text transform="matrix(1 0 0 1 -422.5135 -123.0044)" class="st14" style="font-family:'Montserrat-Thin'; font-size:6px;"> </text>
		<text transform="matrix(1 0 0 1 -422.5135 -123.0044)" class="st14" style="font-family:'Montserrat-Thin'; font-size:6px;"> </text>
		<text transform="matrix(1 0 0 1 -422.5135 -123.0044)" class="st14" style="font-family:'Montserrat-Thin'; font-size:6px;"> </text>
		<text transform="matrix(1 0 0 1 -426.575 -123.0044)" class="st14" style="font-family:'Montserrat-Thin'; font-size:6px;">g</text>
		<text transform="matrix(1 0 0 1 -433.6317 -123.0044)" class="st14" style="font-family:'Montserrat-Thin'; font-size:6px;">n</text>
		<text transform="matrix(1 0 0 1 -438.1795 -123.0044)" class="st14" style="font-family:'Montserrat-Thin'; font-size:6px;">i</text>
		<text transform="matrix(1 0 0 1 -444.5887 -123.0044)" class="st14" style="font-family:'Montserrat-Thin'; font-size:6px;">k</text>
		<text transform="matrix(1 0 0 1 -451.0809 -123.0044)" class="st14" style="font-family:'Montserrat-Thin'; font-size:6px;">a</text>
		<text transform="matrix(1 0 0 1 -456.4568 -123.0044)" class="st14" style="font-family:'Montserrat-Thin'; font-size:6px;">t</text>
	</g>
	<text transform="matrix(1 0 0 1 -464.5027 -115.8052)"><tspan x="0" y="0" class="st14" style="font-family:'Montserrat-Thin'; font-size:6px; letter-spacing:5;">pho</tspan><tspan x="28.9" y="0" class="st14" style="font-family:'Montserrat-Thin'; font-size:6px; letter-spacing:5;">t</tspan><tspan x="36.8" y="0" class="st14" style="font-family:'Montserrat-Thin'; font-size:6px; letter-spacing:5;">o</tspan><tspan x="46.2" y="0" class="st14" style="font-family:'Montserrat-Thin'; font-size:6px;">s</tspan></text>
	
		<text transform="matrix(1 0 0 1 -464.5027 -108.4243)" class="st14" style="font-family:'AdobeMyungjoStd-Medium-KSCpc-EUC-H'; font-size:6px;">-</text>
	<g>
		<text transform="matrix(1 0 0 1 -408.4891 -108.605)" class="st14" style="font-family:'Montserrat-Thin'; font-size:6px;"> </text>
		<text transform="matrix(1 0 0 1 -408.4891 -108.605)" class="st14" style="font-family:'Montserrat-Thin'; font-size:6px;"> </text>
		<text transform="matrix(1 0 0 1 -408.4891 -108.605)" class="st14" style="font-family:'Montserrat-Thin'; font-size:6px;"> </text>
		<text transform="matrix(1 0 0 1 -408.4891 -108.605)" class="st14" style="font-family:'Montserrat-Thin'; font-size:6px;"> </text>
		<text transform="matrix(1 0 0 1 -408.4891 -108.605)" class="st14" style="font-family:'Montserrat-Thin'; font-size:6px;"> </text>
		<text transform="matrix(1 0 0 1 -412.0106 -108.605)" class="st14" style="font-family:'Montserrat-Thin'; font-size:6px;">e</text>
		<text transform="matrix(1 0 0 1 -415.4041 -108.605)" class="st14" style="font-family:'Montserrat-Thin'; font-size:6px;">c</text>
		<text transform="matrix(1 0 0 1 -419.034 -108.605)" class="st14" style="font-family:'Montserrat-Thin'; font-size:6px;">a</text>
		<text transform="matrix(1 0 0 1 -420.7195 -108.605)" class="st14" style="font-family:'Montserrat-Thin'; font-size:6px;">l</text>
		<text transform="matrix(1 0 0 1 -424.9285 -108.605)" class="st14" style="font-family:'Montserrat-Thin'; font-size:6px;">p</text>
		<text transform="matrix(1 0 0 1 -427.1072 -108.605)" class="st14" style="font-family:'Montserrat-Thin'; font-size:6px;"> </text>
		<text transform="matrix(1 0 0 1 -431.3162 -108.605)" class="st14" style="font-family:'Montserrat-Thin'; font-size:6px;">d</text>
		<text transform="matrix(1 0 0 1 -435.1629 -108.605)" class="st14" style="font-family:'Montserrat-Thin'; font-size:6px;">o</text>
		<text transform="matrix(1 0 0 1 -439.0057 -108.605)" class="st14" style="font-family:'Montserrat-Thin'; font-size:6px;">o</text>
		<text transform="matrix(1 0 0 1 -440.9949 -108.605)" class="st14" style="font-family:'Montserrat-Thin'; font-size:6px;">f</text>
		<text transform="matrix(1 0 0 1 -443.1727 -108.605)" class="st14" style="font-family:'Montserrat-Thin'; font-size:6px;"> </text>
		<text transform="matrix(1 0 0 1 -447.3856 -108.605)" class="st14" style="font-family:'Montserrat-Thin'; font-size:6px;">d</text>
		<text transform="matrix(1 0 0 1 -451.2283 -108.605)" class="st14" style="font-family:'Montserrat-Thin'; font-size:6px;">o</text>
		<text transform="matrix(1 0 0 1 -455.074 -108.605)" class="st14" style="font-family:'Montserrat-Thin'; font-size:6px;">o</text>
		<text transform="matrix(1 0 0 1 -459.3192 -108.605)" class="st14" style="font-family:'Montserrat-Thin'; font-size:6px;">g</text>
	</g>
	<text transform="matrix(1 0 0 1 -464.5027 -101.4048)"><tspan x="0" y="0" class="st14" style="font-family:'Montserrat-Thin'; font-size:6px; letter-spacing:7;">   </tspan><tspan x="27.3" y="0" class="st14" style="font-family:'Montserrat-Thin'; font-size:6px; letter-spacing:7;">hun</tspan><tspan x="60.7" y="0" class="st14" style="font-family:'Montserrat-Thin'; font-size:6px;">t</tspan></text>
	
		<text transform="matrix(1 0 0 1 -464.5027 -94.0249)" class="st14" style="font-family:'AdobeMyungjoStd-Medium-KSCpc-EUC-H'; font-size:6px;">-</text>
	<text transform="matrix(1 0 0 1 -459.5233 -94.2046)"><tspan x="0" y="0" class="st14" style="font-family:'Montserrat-Thin'; font-size:6px;">w</tspan><tspan x="4.9" y="0" class="st14" style="font-family:'Montserrat-Thin'; font-size:6px;">a</tspan><tspan x="8.4" y="0" class="st14" style="font-family:'Montserrat-Thin'; font-size:6px;">t</tspan><tspan x="10.6" y="0" class="st14" style="font-family:'Montserrat-Thin'; font-size:6px;">c</tspan><tspan x="13.8" y="0" class="st14" style="font-family:'Montserrat-Thin'; font-size:6px;">hin</tspan><tspan x="23.2" y="0" class="st14" style="font-family:'Montserrat-Thin'; font-size:6px;">g</tspan><tspan x="27.3" y="0" class="st14" style="font-family:'Montserrat-Thin'; font-size:6px;"> </tspan><tspan x="28.8" y="0" class="st14" style="font-family:'Montserrat-Thin'; font-size:6px;">y</tspan><tspan x="31.7" y="0" class="st14" style="font-family:'Montserrat-Thin'; font-size:6px;">outube</tspan><tspan x="53.1" y="0" class="st14" style="font-family:'Montserrat-Thin'; font-size:6px;"> an</tspan><tspan x="62" y="0" class="st14" style="font-family:'Montserrat-Thin'; font-size:6px;">d </tspan></text>
	<path class="st14" d="M-462.4-90.1c0.4,0,0.7,0.1,0.9,0.3c0.2,0.2,0.3,0.5,0.3,1v1.8h-0.1v-1.8c0-0.4-0.1-0.7-0.3-0.9
		c-0.2-0.2-0.5-0.3-0.8-0.3c-0.4,0-0.7,0.1-1,0.4c-0.2,0.2-0.4,0.6-0.4,1v1.7h-0.1v-3.1h0.1v0.8c0.1-0.3,0.3-0.5,0.5-0.6
		C-463-90-462.7-90.1-462.4-90.1L-462.4-90.1z M-457.3-88.6h-2.8c0,0.3,0.1,0.5,0.2,0.8c0.1,0.2,0.3,0.4,0.5,0.5
		c0.2,0.1,0.5,0.2,0.7,0.2c0.2,0,0.4,0,0.6-0.1c0.2-0.1,0.3-0.2,0.5-0.4l0.1,0.1c-0.1,0.2-0.3,0.3-0.5,0.4c-0.2,0.1-0.4,0.1-0.6,0.1
		c-0.3,0-0.6-0.1-0.8-0.2c-0.2-0.1-0.4-0.3-0.6-0.6c-0.1-0.2-0.2-0.5-0.2-0.8c0-0.3,0.1-0.6,0.2-0.8c0.1-0.2,0.3-0.4,0.5-0.6
		c0.2-0.1,0.5-0.2,0.7-0.2c0.3,0,0.5,0.1,0.7,0.2c0.2,0.1,0.4,0.3,0.5,0.5C-457.3-89.1-457.3-88.9-457.3-88.6L-457.3-88.6z
		 M-458.7-90c-0.2,0-0.5,0.1-0.7,0.2c-0.2,0.1-0.4,0.3-0.5,0.5c-0.1,0.2-0.2,0.4-0.2,0.7h2.6c0-0.3-0.1-0.5-0.2-0.7
		c-0.1-0.2-0.3-0.4-0.5-0.5C-458.2-90-458.5-90-458.7-90L-458.7-90z M-454.8-87.2c-0.1,0.1-0.2,0.1-0.3,0.2c-0.1,0-0.2,0.1-0.3,0.1
		c-0.2,0-0.4-0.1-0.6-0.2c-0.1-0.1-0.2-0.3-0.2-0.6V-90h-0.6v-0.1h0.6v-0.7h0.1v0.7h1v0.1h-1v2.2c0,0.2,0.1,0.4,0.2,0.5
		c0.1,0.1,0.3,0.2,0.5,0.2C-455.2-87.1-455-87.2-454.8-87.2L-454.8-87.2z M-453.1-91.4c-0.2,0-0.4,0.1-0.5,0.2
		c-0.1,0.1-0.2,0.3-0.2,0.5v0.6h1v0.1h-1v3h-0.1v-3h-0.6v-0.1h0.6v-0.6c0-0.2,0.1-0.4,0.2-0.6c0.1-0.1,0.3-0.2,0.6-0.2
		c0.1,0,0.2,0,0.3,0.1c0.1,0,0.2,0.1,0.3,0.2l-0.1,0.1C-452.8-91.3-452.9-91.4-453.1-91.4L-453.1-91.4z M-452.1-91.5h0.1v4.5h-0.1
		V-91.5z M-450.5-91c0,0-0.1,0-0.1,0c0,0,0-0.1,0-0.1c0,0,0-0.1,0-0.1c0,0,0.1,0,0.1,0c0,0,0.1,0,0.1,0c0,0,0,0.1,0,0.1
		c0,0,0,0.1,0,0.1C-450.4-91-450.4-91-450.5-91L-450.5-91z M-450.5-90.1h0.1v3.1h-0.1V-90.1z M-447-87l-1.2-1.5l-1.2,1.5h-0.1
		l1.2-1.6l-1.2-1.5h0.2l1.1,1.4l1.1-1.4h0.1l-1.2,1.5l1.3,1.6H-447z M-445.3-87c-0.2,0-0.5,0-0.7-0.1c-0.2-0.1-0.4-0.2-0.5-0.3
		l0.1-0.1c0.1,0.1,0.3,0.2,0.5,0.3c0.2,0.1,0.4,0.1,0.7,0.1c0.4,0,0.6-0.1,0.8-0.2c0.2-0.1,0.3-0.3,0.3-0.5c0-0.2,0-0.3-0.1-0.4
		c-0.1-0.1-0.2-0.2-0.3-0.2c-0.1,0-0.3-0.1-0.5-0.1c-0.2,0-0.4-0.1-0.6-0.1c-0.1,0-0.3-0.1-0.4-0.2c-0.1-0.1-0.2-0.3-0.2-0.5
		c0-0.2,0.1-0.4,0.3-0.6c0.2-0.2,0.5-0.2,0.8-0.2c0.2,0,0.4,0,0.6,0.1c0.2,0.1,0.3,0.1,0.5,0.2l-0.1,0.1c-0.1-0.1-0.3-0.2-0.4-0.2
		c-0.2-0.1-0.3-0.1-0.5-0.1c-0.3,0-0.6,0.1-0.7,0.2s-0.2,0.3-0.2,0.5c0,0.2,0,0.3,0.1,0.4c0.1,0.1,0.2,0.2,0.3,0.2
		c0.1,0,0.3,0.1,0.5,0.1c0.2,0,0.4,0.1,0.6,0.1c0.1,0,0.3,0.1,0.4,0.2c0.1,0.1,0.1,0.3,0.1,0.4c0,0.2-0.1,0.4-0.3,0.6
		C-444.7-87.1-444.9-87-445.3-87L-445.3-87z M-441.3-87.3c0,0,0.1,0,0.1,0c0,0,0,0.1,0,0.1c0,0,0,0.1,0,0.2l-0.2,0.8h-0.1l0.2-0.8
		c0,0-0.1,0-0.1-0.1c0,0,0-0.1,0-0.1c0,0,0-0.1,0-0.1S-441.4-87.3-441.3-87.3L-441.3-87.3z M-437.2-91.4c-0.2,0-0.4,0.1-0.5,0.2
		c-0.1,0.1-0.2,0.3-0.2,0.5v0.6h1v0.1h-1v3h-0.1v-3h-0.6v-0.1h0.6v-0.6c0-0.2,0.1-0.4,0.2-0.6c0.1-0.1,0.3-0.2,0.6-0.2
		c0.1,0,0.2,0,0.3,0.1c0.1,0,0.2,0.1,0.3,0.2l-0.1,0.1C-436.9-91.3-437-91.4-437.2-91.4L-437.2-91.4z M-435.6-91c0,0-0.1,0-0.1,0
		c0,0,0-0.1,0-0.1c0,0,0-0.1,0-0.1c0,0,0.1,0,0.1,0c0,0,0.1,0,0.1,0c0,0,0,0.1,0,0.1c0,0,0,0.1,0,0.1C-435.6-91-435.6-91-435.6-91
		L-435.6-91z M-435.7-90.1h0.1v3.1h-0.1V-90.1z M-434.2-91.5h0.1v4.5h-0.1V-91.5z M-428.8-90.1c0.4,0,0.7,0.1,0.9,0.3
		c0.2,0.2,0.3,0.5,0.3,1v1.8h-0.1v-1.8c0-0.4-0.1-0.7-0.3-0.9c-0.2-0.2-0.5-0.3-0.8-0.3c-0.4,0-0.7,0.1-0.9,0.4
		c-0.2,0.2-0.3,0.6-0.3,1v1.7h-0.1v-1.8c0-0.4-0.1-0.7-0.3-0.9c-0.2-0.2-0.5-0.3-0.8-0.3c-0.4,0-0.7,0.1-0.9,0.4
		c-0.2,0.2-0.3,0.6-0.3,1v1.7h-0.1v-3.1h0.1v0.8c0.1-0.3,0.2-0.5,0.5-0.6c0.2-0.1,0.5-0.2,0.8-0.2c0.3,0,0.6,0.1,0.8,0.2
		c0.2,0.2,0.3,0.4,0.4,0.7c0.1-0.3,0.2-0.5,0.5-0.7C-429.4-90-429.1-90.1-428.8-90.1L-428.8-90.1z M-425.5-87c-0.2,0-0.5,0-0.7-0.1
		c-0.2-0.1-0.4-0.2-0.5-0.3l0.1-0.1c0.1,0.1,0.3,0.2,0.5,0.3c0.2,0.1,0.4,0.1,0.7,0.1c0.4,0,0.6-0.1,0.8-0.2
		c0.2-0.1,0.3-0.3,0.3-0.5c0-0.2,0-0.3-0.1-0.4c-0.1-0.1-0.2-0.2-0.3-0.2c-0.1,0-0.3-0.1-0.5-0.1c-0.2,0-0.4-0.1-0.6-0.1
		c-0.1,0-0.3-0.1-0.4-0.2c-0.1-0.1-0.2-0.3-0.2-0.5c0-0.2,0.1-0.4,0.3-0.6c0.2-0.2,0.5-0.2,0.8-0.2c0.2,0,0.4,0,0.6,0.1
		c0.2,0.1,0.3,0.1,0.5,0.2l-0.1,0.1c-0.1-0.1-0.3-0.2-0.4-0.2c-0.2-0.1-0.3-0.1-0.5-0.1c-0.3,0-0.6,0.1-0.7,0.2s-0.2,0.3-0.2,0.5
		c0,0.2,0,0.3,0.1,0.4c0.1,0.1,0.2,0.2,0.3,0.2c0.1,0,0.3,0.1,0.5,0.1c0.2,0,0.4,0.1,0.6,0.1c0.1,0,0.3,0.1,0.4,0.2
		c0.1,0.1,0.1,0.3,0.1,0.4c0,0.2-0.1,0.4-0.3,0.6C-424.8-87.1-425.1-87-425.5-87L-425.5-87z M-421.3-91c0,0-0.1,0-0.1,0
		c0,0,0-0.1,0-0.1c0,0,0-0.1,0-0.1c0,0,0.1,0,0.1,0c0,0,0.1,0,0.1,0c0,0,0,0.1,0,0.1c0,0,0,0.1,0,0.1C-421.2-91-421.2-91-421.3-91
		L-421.3-91z M-421.3-90.1h0.1v3.1h-0.1V-90.1z M-418.4-90.1c0.4,0,0.7,0.1,0.9,0.3c0.2,0.2,0.3,0.5,0.3,1v1.8h-0.1v-1.8
		c0-0.4-0.1-0.7-0.3-0.9c-0.2-0.2-0.5-0.3-0.8-0.3c-0.4,0-0.7,0.1-1,0.4c-0.2,0.2-0.4,0.6-0.4,1v1.7h-0.1v-3.1h0.1v0.8
		c0.1-0.3,0.3-0.5,0.5-0.6C-419-90-418.7-90.1-418.4-90.1L-418.4-90.1z M-411-90.1v2.8c0,0.5-0.1,0.9-0.4,1.1
		c-0.2,0.2-0.6,0.4-1.1,0.4c-0.3,0-0.5,0-0.8-0.1c-0.2-0.1-0.4-0.2-0.6-0.4l0.1-0.1c0.2,0.2,0.3,0.3,0.6,0.4
		c0.2,0.1,0.5,0.1,0.7,0.1c0.4,0,0.8-0.1,1-0.3c0.2-0.2,0.3-0.5,0.3-1V-88c-0.1,0.3-0.3,0.5-0.5,0.7c-0.3,0.2-0.5,0.3-0.9,0.3
		c-0.3,0-0.5-0.1-0.8-0.2c-0.2-0.1-0.4-0.3-0.5-0.5c-0.1-0.2-0.2-0.5-0.2-0.8s0.1-0.5,0.2-0.8c0.1-0.2,0.3-0.4,0.5-0.5
		c0.2-0.1,0.5-0.2,0.8-0.2c0.3,0,0.6,0.1,0.9,0.3c0.2,0.2,0.4,0.4,0.5,0.7v-0.9H-411z M-412.6-87.2c0.3,0,0.5-0.1,0.7-0.2
		c0.2-0.1,0.4-0.3,0.5-0.5c0.1-0.2,0.2-0.5,0.2-0.7c0-0.3-0.1-0.5-0.2-0.7c-0.1-0.2-0.3-0.4-0.5-0.5c-0.2-0.1-0.5-0.2-0.7-0.2
		c-0.3,0-0.5,0.1-0.7,0.2c-0.2,0.1-0.4,0.3-0.5,0.5c-0.1,0.2-0.2,0.5-0.2,0.7c0,0.3,0.1,0.5,0.2,0.7c0.1,0.2,0.3,0.4,0.5,0.5
		C-413.1-87.3-412.8-87.2-412.6-87.2L-412.6-87.2z M-407.1-88.6h-2.8c0,0.3,0.1,0.5,0.2,0.8c0.1,0.2,0.3,0.4,0.5,0.5
		c0.2,0.1,0.5,0.2,0.7,0.2c0.2,0,0.4,0,0.6-0.1c0.2-0.1,0.3-0.2,0.5-0.4l0.1,0.1c-0.1,0.2-0.3,0.3-0.5,0.4c-0.2,0.1-0.4,0.1-0.6,0.1
		c-0.3,0-0.6-0.1-0.8-0.2c-0.2-0.1-0.4-0.3-0.6-0.6c-0.1-0.2-0.2-0.5-0.2-0.8c0-0.3,0.1-0.6,0.2-0.8c0.1-0.2,0.3-0.4,0.5-0.6
		c0.2-0.1,0.5-0.2,0.7-0.2c0.3,0,0.5,0.1,0.7,0.2c0.2,0.1,0.4,0.3,0.5,0.5C-407.2-89.1-407.1-88.9-407.1-88.6L-407.1-88.6z
		 M-408.6-90c-0.2,0-0.5,0.1-0.7,0.2c-0.2,0.1-0.4,0.3-0.5,0.5c-0.1,0.2-0.2,0.4-0.2,0.7h2.6c0-0.3-0.1-0.5-0.2-0.7
		c-0.1-0.2-0.3-0.4-0.5-0.5C-408.1-90-408.3-90-408.6-90L-408.6-90z M-404.6-90.1c0.4,0,0.7,0.1,0.9,0.3c0.2,0.2,0.3,0.5,0.3,1v1.8
		h-0.1v-1.8c0-0.4-0.1-0.7-0.3-0.9c-0.2-0.2-0.5-0.3-0.8-0.3c-0.4,0-0.7,0.1-1,0.4c-0.2,0.2-0.4,0.6-0.4,1v1.7h-0.1v-3.1h0.1v0.8
		c0.1-0.3,0.3-0.5,0.5-0.6C-405.2-90-405-90.1-404.6-90.1L-404.6-90.1z M-399.5-88.6h-2.8c0,0.3,0.1,0.5,0.2,0.8
		c0.1,0.2,0.3,0.4,0.5,0.5c0.2,0.1,0.5,0.2,0.7,0.2c0.2,0,0.4,0,0.6-0.1c0.2-0.1,0.3-0.2,0.5-0.4l0.1,0.1c-0.1,0.2-0.3,0.3-0.5,0.4
		c-0.2,0.1-0.4,0.1-0.6,0.1c-0.3,0-0.6-0.1-0.8-0.2c-0.2-0.1-0.4-0.3-0.6-0.6c-0.1-0.2-0.2-0.5-0.2-0.8c0-0.3,0.1-0.6,0.2-0.8
		c0.1-0.2,0.3-0.4,0.5-0.6c0.2-0.1,0.5-0.2,0.7-0.2c0.3,0,0.5,0.1,0.7,0.2c0.2,0.1,0.4,0.3,0.5,0.5
		C-399.6-89.1-399.5-88.9-399.5-88.6L-399.5-88.6z M-401-90c-0.2,0-0.5,0.1-0.7,0.2c-0.2,0.1-0.4,0.3-0.5,0.5
		c-0.1,0.2-0.2,0.4-0.2,0.7h2.6c0-0.3-0.1-0.5-0.2-0.7c-0.1-0.2-0.3-0.4-0.5-0.5C-400.5-90-400.7-90-401-90L-401-90z M-398.3-89.3
		c0.1-0.3,0.2-0.5,0.4-0.6c0.2-0.1,0.5-0.2,0.8-0.2v0.1h0c-0.4,0-0.7,0.1-0.9,0.4c-0.2,0.2-0.3,0.6-0.3,1v1.7h-0.1v-3.1h0.1V-89.3
		L-398.3-89.3z M-395.2-90.1c0.4,0,0.6,0.1,0.8,0.3c0.2,0.2,0.3,0.5,0.3,0.8v2h-0.1v-0.7c-0.1,0.2-0.3,0.4-0.5,0.5
		c-0.2,0.1-0.4,0.2-0.7,0.2c-0.3,0-0.6-0.1-0.8-0.2c-0.2-0.2-0.3-0.4-0.3-0.6c0-0.2,0.1-0.4,0.3-0.6c0.2-0.2,0.5-0.2,0.8-0.2h1.2
		V-89c0-0.3-0.1-0.6-0.2-0.7c-0.2-0.2-0.4-0.2-0.7-0.2c-0.2,0-0.4,0-0.6,0.1c-0.2,0.1-0.4,0.2-0.5,0.3l-0.1-0.1
		c0.1-0.1,0.3-0.3,0.5-0.3C-395.7-90.1-395.4-90.1-395.2-90.1L-395.2-90.1z M-395.4-87.1c0.6,0,1-0.3,1.2-0.8v-0.7h-1.2
		c-0.3,0-0.6,0.1-0.7,0.2c-0.2,0.1-0.2,0.3-0.2,0.5c0,0.2,0.1,0.4,0.3,0.6C-395.9-87.2-395.7-87.1-395.4-87.1L-395.4-87.1z
		 M-392.7-91.5h0.1v4.5h-0.1V-91.5z M-387.5-88.7c-0.1,0-0.2,0-0.3-0.1c-0.1-0.1-0.2-0.1-0.3-0.3c-0.1-0.1-0.2-0.2-0.3-0.2
		c-0.1,0-0.2-0.1-0.3-0.1c-0.2,0-0.3,0.1-0.4,0.2c-0.1,0.1-0.1,0.3-0.2,0.5h-0.1c0-0.2,0.1-0.4,0.2-0.5c0.1-0.1,0.3-0.2,0.5-0.2
		c0.1,0,0.2,0,0.3,0.1c0.1,0.1,0.2,0.1,0.3,0.3c0.1,0.1,0.2,0.2,0.3,0.2c0.1,0.1,0.2,0.1,0.3,0.1c0.2,0,0.3-0.1,0.4-0.2
		c0.1-0.1,0.1-0.3,0.2-0.5h0.1c0,0.2-0.1,0.4-0.2,0.5C-387.2-88.8-387.4-88.7-387.5-88.7L-387.5-88.7z"/>
	<text transform="matrix(1 0 0 1 -464.5027 -79.6245)"><tspan x="0" y="0" class="st14" style="font-family:'AdobeMyungjoStd-Medium-KSCpc-EUC-H'; font-size:6px; letter-spacing:2;">-</tspan><tspan x="7.5" y="0" class="st14" style="font-family:'AdobeMyungjoStd-Medium-KSCpc-EUC-H'; font-size:6px;"> </tspan></text>
	<g>
		<text transform="matrix(1 0 0 1 -379.5164 -79.8052)" class="st14" style="font-family:'Montserrat-Thin'; font-size:6px;"> </text>
		<text transform="matrix(1 0 0 1 -379.5164 -79.8052)" class="st14" style="font-family:'Montserrat-Thin'; font-size:6px;"> </text>
		<text transform="matrix(1 0 0 1 -382.2938 -79.8052)" class="st14" style="font-family:'Montserrat-Thin'; font-size:6px;">s</text>
		<text transform="matrix(1 0 0 1 -388.1395 -79.8052)" class="st14" style="font-family:'Montserrat-Thin'; font-size:6px;">k</text>
		<text transform="matrix(1 0 0 1 -394.3143 -79.8052)" class="st14" style="font-family:'Montserrat-Thin'; font-size:6px;">o</text>
		<text transform="matrix(1 0 0 1 -400.4881 -79.8052)" class="st14" style="font-family:'Montserrat-Thin'; font-size:6px;">o</text>
		<text transform="matrix(1 0 0 1 -407.0281 -79.8052)" class="st14" style="font-family:'Montserrat-Thin'; font-size:6px;">b</text>
		<text transform="matrix(1 0 0 1 -411.5379 -79.8052)" class="st14" style="font-family:'Montserrat-Thin'; font-size:6px;"> </text>
		<text transform="matrix(1 0 0 1 -418.1141 -79.8052)" class="st14" style="font-family:'Montserrat-Thin'; font-size:6px;">g</text>
		<text transform="matrix(1 0 0 1 -424.6356 -79.8052)" class="st14" style="font-family:'Montserrat-Thin'; font-size:6px;">n</text>
		<text transform="matrix(1 0 0 1 -428.6502 -79.8052)" class="st14" style="font-family:'Montserrat-Thin'; font-size:6px;">i</text>
		<text transform="matrix(1 0 0 1 -435.1902 -79.8052)" class="st14" style="font-family:'Montserrat-Thin'; font-size:6px;">d</text>
		<text transform="matrix(1 0 0 1 -441.1483 -79.8052)" class="st14" style="font-family:'Montserrat-Thin'; font-size:6px;">a</text>
		<text transform="matrix(1 0 0 1 -447.0955 -79.8052)" class="st14" style="font-family:'Montserrat-Thin'; font-size:6px;">e</text>
		<text transform="matrix(1 0 0 1 -451.8192 -79.8052)" class="st14" style="font-family:'Montserrat-Thin'; font-size:6px;">r</text>
	</g>
	<text transform="matrix(1 0 0 1 -464.5027 -72.605)"><tspan x="0" y="0" class="st14" style="font-family:'Montserrat-Thin'; font-size:6px; letter-spacing:2;">i</tspan><tspan x="3.9" y="0" class="st14" style="font-family:'Montserrat-Thin'; font-size:6px; letter-spacing:2;">n</tspan><tspan x="10.3" y="0" class="st14" style="font-family:'Montserrat-Thin'; font-size:6px; letter-spacing:2;">s</tspan><tspan x="15.4" y="0" class="st14" style="font-family:'Montserrat-Thin'; font-size:6px; letter-spacing:2;">tag</tspan><tspan x="32.4" y="0" class="st14" style="font-family:'Montserrat-Thin'; font-size:6px; letter-spacing:2;">r</tspan><tspan x="37" y="0" class="st14" style="font-family:'Montserrat-Thin'; font-size:6px; letter-spacing:2;">am</tspan><tspan x="51.6" y="0" class="st14" style="font-family:'Montserrat-Thin'; font-size:6px; letter-spacing:2;"> </tspan><tspan x="56" y="0" class="st14" style="font-family:'Montserrat-Thin'; font-size:6px; letter-spacing:2;">eu</tspan><tspan x="68.3" y="0" class="st14" style="font-family:'Montserrat-Thin'; font-size:6px; letter-spacing:2;">rfin</tspan><tspan x="85.5" y="0" class="st14" style="font-family:'Montserrat-Thin'; font-size:6px;">g </tspan></text>
	<text transform="matrix(1 0 0 1 -464.5027 -65.2251)"><tspan x="0" y="0" class="st14" style="font-family:'AdobeMyungjoStd-Medium-KSCpc-EUC-H'; font-size:6px; letter-spacing:8;">-</tspan><tspan x="13.4" y="0" class="st14" style="font-family:'AdobeMyungjoStd-Medium-KSCpc-EUC-H'; font-size:6px;"> </tspan></text>
	<text transform="matrix(1 0 0 1 -440.0408 -65.4048)"><tspan x="0" y="0" class="st14" style="font-family:'Montserrat-Thin'; font-size:6px; letter-spacing:8;">w</tspan><tspan x="13.3" y="0" class="st14" style="font-family:'Montserrat-Thin'; font-size:6px; letter-spacing:8;">o</tspan><tspan x="25.4" y="0" class="st14" style="font-family:'Montserrat-Thin'; font-size:6px; letter-spacing:8;">r</tspan><tspan x="36" y="0" class="st14" style="font-family:'Montserrat-Thin'; font-size:6px; letter-spacing:8;">k</tspan><tspan x="47.7" y="0" class="st14" style="font-family:'Montserrat-Thin'; font-size:6px; letter-spacing:8;">ou</tspan><tspan x="72.2" y="0" class="st14" style="font-family:'Montserrat-Thin'; font-size:6px;">t</tspan></text>
	<text transform="matrix(1 0 0 1 -464.5027 -58.0249)"><tspan x="0" y="0" class="st14" style="font-family:'AdobeMyungjoStd-Medium-KSCpc-EUC-H'; font-size:6px; letter-spacing:13;">-</tspan><tspan x="19" y="0" class="st14" style="font-family:'AdobeMyungjoStd-Medium-KSCpc-EUC-H'; font-size:6px;"> </tspan></text>
	<text transform="matrix(1 0 0 1 -428.8514 -58.2046)"><tspan x="0" y="0" class="st14" style="font-family:'Montserrat-Thin'; font-size:6px; letter-spacing:13;">s</tspan><tspan x="16.8" y="0" class="st14" style="font-family:'Montserrat-Thin'; font-size:6px; letter-spacing:13;">lee</tspan><tspan x="67.3" y="0" class="st14" style="font-family:'Montserrat-Thin'; font-size:6px;">p</tspan></text>
	<text transform="matrix(1 0 0 1 -464.5027 -51.0044)"><tspan x="0" y="0" class="st14" style="font-family:'Montserrat-Thin'; font-size:6px;">ALL</tspan><tspan x="11.1" y="0" class="st14" style="font-family:'Montserrat-Thin'; font-size:6px;">  </tspan><tspan x="15.2" y="0" class="st14" style="font-family:'Montserrat-Thin'; font-size:6px;">THINGS</tspan><tspan x="38.3" y="0" class="st14" style="font-family:'Montserrat-Thin'; font-size:6px;"> </tspan><tspan x="40.3" y="0" class="st14" style="font-family:'Montserrat-Thin'; font-size:6px;">AB</tspan><tspan x="49" y="0" class="st14" style="font-family:'Montserrat-Thin'; font-size:6px;">O</tspan><tspan x="53.9" y="0" class="st14" style="font-family:'Montserrat-Thin'; font-size:6px;">V</tspan><tspan x="57.8" y="0" class="st14" style="font-family:'Montserrat-Thin'; font-size:6px;">E</tspan><tspan x="61.9" y="0" class="st14" style="font-family:'Montserrat-Thin'; font-size:6px;"> </tspan><tspan x="63.9" y="0" class="st14" style="font-family:'Montserrat-Thin'; font-size:6px;">HA</tspan><tspan x="72.9" y="0" class="st14" style="font-family:'Montserrat-Thin'; font-size:6px;">PP</tspan><tspan x="81.4" y="0" class="st14" style="font-family:'Montserrat-Thin'; font-size:6px;">ENS</tspan><tspan x="93.9" y="0" class="st14" style="font-family:'Montserrat-Thin'; font-size:6px;"> </tspan><tspan x="95.9" y="0" class="st14" style="font-family:'Montserrat-Thin'; font-size:6px;">I</tspan><tspan x="97.7" y="0" class="st14" style="font-family:'Montserrat-Thin'; font-size:6px;">N</tspan><tspan x="102.6" y="0" class="st14" style="font-family:'Montserrat-Thin'; font-size:6px;"> </tspan><tspan x="104.6" y="0" class="st14" style="font-family:'Montserrat-Thin'; font-size:6px;">M</tspan><tspan x="110.3" y="0" class="st14" style="font-family:'Montserrat-Thin'; font-size:6px;">Y </tspan></text>
	<text transform="matrix(1 0 0 1 -464.5027 -43.8052)"><tspan x="0" y="0" class="st14" style="font-family:'Montserrat-Light'; font-size:6px; letter-spacing:19;">DO</tspan><tspan x="48.9" y="0" class="st14" style="font-family:'Montserrat-Light'; font-size:6px; letter-spacing:19;">RM</tspan><tspan x="98" y="0" class="st14" style="font-family:'Montserrat-Light'; font-size:6px; letter-spacing:19;"> </tspan><tspan x="119.5" y="0" class="st14" style="font-family:'Montserrat-Light'; font-size:6px;">!</tspan></text>
	<text transform="matrix(1 0 0 1 -464.5027 -36.605)"><tspan x="0" y="0" class="st14" style="font-family:'Montserrat-Light'; font-size:6px; letter-spacing:12;">H</tspan><tspan x="17.8" y="0" class="st14" style="font-family:'Montserrat-Light'; font-size:6px; letter-spacing:12;">O</tspan><tspan x="35.7" y="0" class="st14" style="font-family:'Montserrat-Light'; font-size:6px; letter-spacing:12;">MEB</tspan><tspan x="88.6" y="0" class="st14" style="font-family:'Montserrat-Light'; font-size:6px; letter-spacing:12;">O</tspan><tspan x="106.6" y="0" class="st14" style="font-family:'Montserrat-Light'; font-size:6px; letter-spacing:12;">D</tspan><tspan x="124.2" y="0" class="st14" style="font-family:'Montserrat-Light'; font-size:6px;">Y</tspan></text>
	<text transform="matrix(1 0 0 1 -99.0257 128.3833)" class="st14 st19" style="font-family:'Montserrat-Medium';">*       *  </text>
	<text transform="matrix(1 0 0 1 -85.0218 142.7837)" class="st14 st19" style="font-family:'Montserrat-Medium';">*     * </text>
	<text transform="matrix(1 0 0 1 -71.0179 157.1831)"><tspan x="0" y="0" class="st14 st19" style="font-family:'Montserrat-Medium';">*</tspan><tspan x="4.8" y="0" class="st14 st19" style="font-family:'Montserrat-Medium';"> </tspan><tspan x="7.5" y="0" class="st14 st19" style="font-family:'Montserrat-Medium';"> </tspan></text>
	<rect x="-281.9" y="-54.2" class="st16" width="226" height="225.4"/>
	<polyline class="st16" points="-282.4,-54.7 -55.5,171.7 -198.3,171.7 -198.3,32.3 	"/>
	<text transform="matrix(1 0 0 1 -271.0579 -44.4165)"><tspan x="0" y="0" class="st14 st19" style="font-family:'Montserrat-Medium';">A</tspan><tspan x="8.7" y="0" class="st14 st19" style="font-family:'Montserrat-Medium';">c</tspan><tspan x="15.5" y="0" class="st14 st19" style="font-family:'Montserrat-Medium';">c</tspan><tspan x="22.3" y="0" class="st14 st19" style="font-family:'Montserrat-Medium';">omplish</tspan><tspan x="71.6" y="0" class="st14 st19" style="font-family:'Montserrat-Medium';">m</tspan><tspan x="84.3" y="0" class="st14 st19" style="font-family:'Montserrat-Medium';">ent I am p</tspan><tspan x="146.3" y="0" class="st14 st19" style="font-family:'Montserrat-Medium';">r</tspan><tspan x="151.1" y="0" class="st14 st19" style="font-family:'Montserrat-Medium';">oud of :</tspan></text>
	<text transform="matrix(1 0 0 1 -242.054 -15.6167)"><tspan x="0" y="0" class="st14 st19" style="font-family:'Montserrat-Medium';">a</tspan><tspan x="7.2" y="0" class="st14 st19" style="font-family:'Montserrat-Medium';">t</tspan><tspan x="12" y="0" class="st14 st19" style="font-family:'Montserrat-Medium';">t</tspan><tspan x="16.8" y="0" class="st14 st19" style="font-family:'Montserrat-Medium';">e</tspan><tspan x="24.1" y="0" class="st14 st19" style="font-family:'Montserrat-Medium';">n</tspan><tspan x="32.3" y="0" class="st14 st19" style="font-family:'Montserrat-Medium';">di</tspan><tspan x="43.8" y="0" class="st14 st19" style="font-family:'Montserrat-Medium';">n</tspan><tspan x="52.1" y="0" class="st14 st19" style="font-family:'Montserrat-Medium';">g </tspan><tspan x="63.6" y="0" class="st14 st19" style="font-family:'Montserrat-Medium';">P</tspan><tspan x="72" y="0" class="st14 st19" style="font-family:'Montserrat-Medium';">a</tspan><tspan x="79.2" y="0" class="st14 st19" style="font-family:'Montserrat-Medium';">r</tspan><tspan x="84.1" y="0" class="st14 st19" style="font-family:'Montserrat-Medium';">sons </tspan><tspan x="115.2" y="0" class="st14 st19" style="font-family:'Montserrat-Medium';">w</tspan><tspan x="125.6" y="0" class="st14 st19" style="font-family:'Montserrat-Medium';">/ s</tspan><tspan x="139.1" y="0" class="st14 st19" style="font-family:'Montserrat-Medium';">c</tspan><tspan x="145.8" y="0" class="st14 st19" style="font-family:'Montserrat-Medium';">h</tspan><tspan x="154" y="0" class="st14 st19" style="font-family:'Montserrat-Medium';">ola</tspan><tspan x="172.2" y="0" class="st14 st19" style="font-family:'Montserrat-Medium';">r</tspan><tspan x="177" y="0" class="st14 st19" style="font-family:'Montserrat-Medium';">-</tspan></text>
	<text transform="matrix(1 0 0 1 -228.0501 -1.2163)"><tspan x="0" y="0" class="st14 st19" style="font-family:'Montserrat-Medium';">shipn, livi</tspan><tspan x="56.6" y="0" class="st14 st19" style="font-family:'Montserrat-Medium';">n</tspan><tspan x="64.8" y="0" class="st14 st19" style="font-family:'Montserrat-Medium';">g a good li</tspan><tspan x="128.3" y="0" class="st14 st19" style="font-family:'Montserrat-Medium';">f</tspan><tspan x="132.5" y="0" class="st14 st19" style="font-family:'Montserrat-Medium';">e I </tspan></text>
	<text transform="matrix(1 0 0 1 -214.0462 13.1831)" class="st14 st19" style="font-family:'Montserrat-Medium';">guess</text>
	<text transform="matrix(1 0 0 1 -199.0462 27.5835)"><tspan x="0" y="0" class="st14 st19" style="font-family:'Montserrat-Medium';">. . . :-) h</tspan><tspan x="40.6" y="0" class="st14 st19" style="font-family:'Montserrat-Medium';">a</tspan><tspan x="47.7" y="0" class="st14 st19" style="font-family:'Montserrat-Medium';">vi</tspan><tspan x="57.7" y="0" class="st14 st19" style="font-family:'Montserrat-Medium';">n</tspan><tspan x="66" y="0" class="st14 st19" style="font-family:'Montserrat-Medium';">g a</tspan><tspan x="84.6" y="0" class="st14 st19" style="font-family:'Montserrat-Medium';">n</tspan><tspan x="92.8" y="0" class="st14 st19" style="font-family:'Montserrat-Medium';">d get </tspan></text>
	<text transform="matrix(1 0 0 1 -185.0423 41.9829)"><tspan x="0" y="0" class="st14 st19" style="font-family:'Montserrat-Medium';">t</tspan><tspan x="4.8" y="0" class="st14 st19" style="font-family:'Montserrat-Medium';">o </tspan><tspan x="15.6" y="0" class="st14 st19" style="font-family:'Montserrat-Medium';">k</tspan><tspan x="22.9" y="0" class="st14 st19" style="font-family:'Montserrat-Medium';">n</tspan><tspan x="31.1" y="0" class="st14 st19" style="font-family:'Montserrat-Medium';">-</tspan><tspan x="35.8" y="0" class="st14 st19" style="font-family:'Montserrat-Medium';">o</tspan><tspan x="43.2" y="0" class="st14 st19" style="font-family:'Montserrat-Medium';">w amazi</tspan><tspan x="93.9" y="0" class="st14 st19" style="font-family:'Montserrat-Medium';">n</tspan><tspan x="102.1" y="0" class="st14 st19" style="font-family:'Montserrat-Medium';">g </tspan></text>
	<text transform="matrix(1 0 0 1 -171.0384 56.3833)"><tspan x="0" y="0" class="st14 st19" style="font-family:'Montserrat-Medium';">people a</tspan><tspan x="52.4" y="0" class="st14 st19" style="font-family:'Montserrat-Medium';">n</tspan><tspan x="60.6" y="0" class="st14 st19" style="font-family:'Montserrat-Medium';">d </tspan></text>
	<text transform="matrix(1 0 0 1 -156.0384 70.7827)"><tspan x="0" y="0" class="st14 st19" style="font-family:'Montserrat-Medium';">f</tspan><tspan x="5.2" y="0" class="st14 st19" style="font-family:'Montserrat-Medium';">r</tspan><tspan x="10" y="0" class="st14 st19" style="font-family:'Montserrat-Medium';">ie</tspan><tspan x="20.7" y="0" class="st14 st19" style="font-family:'Montserrat-Medium';">n</tspan><tspan x="28.9" y="0" class="st14 st19" style="font-family:'Montserrat-Medium';">ds, a</tspan><tspan x="56.2" y="0" class="st14 st19" style="font-family:'Montserrat-Medium';">n</tspan><tspan x="64.4" y="0" class="st14 st19" style="font-family:'Montserrat-Medium';">d </tspan></text>
	<text transform="matrix(1 0 0 1 -142.0345 85.1831)"><tspan x="0" y="0" class="st14 st19" style="font-family:'Montserrat-Medium';">f</tspan><tspan x="4.1" y="0" class="st14 st19" style="font-family:'Montserrat-Medium';">amily a</tspan><tspan x="47.8" y="0" class="st14 st19" style="font-family:'Montserrat-Medium';">r</tspan><tspan x="52.6" y="0" class="st14 st19" style="font-family:'Montserrat-Medium';">ou</tspan><tspan x="68.3" y="0" class="st14 st19" style="font-family:'Montserrat-Medium';">n</tspan><tspan x="76.5" y="0" class="st14 st19" style="font-family:'Montserrat-Medium';">d </tspan></text>
	<text transform="matrix(1 0 0 1 -128.0306 99.5835)"><tspan x="0" y="0" class="st14 st19" style="font-family:'Montserrat-Medium';">m</tspan><tspan x="12.7" y="0" class="st14 st19" style="font-family:'Montserrat-Medium';">e . . </tspan></text>
	<text transform="matrix(1 0 0 1 -114.0257 113.9829)"><tspan x="0" y="0" class="st14 st19" style="font-family:'Montserrat-Medium';">*       *     *</tspan><tspan x="53.1" y="0" class="st14 st19" style="font-family:'Montserrat-Medium'; letter-spacing:-2;">    </tspan><tspan x="56.3" y="0" class="st14 st19" style="font-family:'Montserrat-Medium';"> </tspan></text>
	<polygon class="st14" points="-282.1,-53.9 -281.3,172.2 -199.1,172.2 -197.7,31.1 	"/>
	<text transform="matrix(-6.123234e-17 -1 1 -6.123234e-17 -267.3144 167.731)"><tspan x="0" y="0" class="st15" style="font-family:'Montserrat-Thin'; font-size:10px;">I h</tspan><tspan x="12" y="0" class="st15" style="font-family:'Montserrat-Thin'; font-size:10px;">a</tspan><tspan x="17.7" y="0" class="st15" style="font-family:'Montserrat-Thin'; font-size:10px;">v</tspan><tspan x="22.6" y="0" class="st15" style="font-family:'Montserrat-Thin'; font-size:10px;">e n</tspan><tspan x="37.7" y="0" class="st15" style="font-family:'Montserrat-Thin'; font-size:10px;">e</tspan><tspan x="43.5" y="0" class="st15" style="font-family:'Montserrat-Thin'; font-size:10px;">v</tspan><tspan x="48.4" y="0" class="st15" style="font-family:'Montserrat-Thin'; font-size:10px;">er:</tspan></text>
	<text transform="matrix(-6.123234e-17 -1 1 -6.123234e-17 -252.2145 167.7325)"><tspan x="0" y="0" class="st15 st19" style="font-family:'Montserrat-Thin';">juul or smo</tspan><tspan x="65.6" y="0" class="st15 st19" style="font-family:'Montserrat-Thin';">k</tspan><tspan x="72.2" y="0" class="st15 st19" style="font-family:'Montserrat-Thin';">e</tspan></text>
	<text transform="matrix(1 0 0 1 -198.5775 41.4937)" class="st14" style="font-family:'AppleMyungjo'; font-size:6px;">☆</text>
	<text transform="matrix(1 0 0 1 -198.5775 48.6939)" class="st14" style="font-family:'AppleMyungjo'; font-size:6px;">★</text>
	
		<text transform="matrix(1 0 0 1 -198.5775 56.104)" class="st14" style="font-family:'AdobeMyungjoStd-Medium-KSCpc-EUC-H'; font-size:6px;">☆</text>
	
		<text transform="matrix(1 0 0 1 -198.5775 63.3032)" class="st14" style="font-family:'AdobeMyungjoStd-Medium-KSCpc-EUC-H'; font-size:6px;">-</text>
	<text transform="matrix(1 0 0 1 -193.388 63.1235)"><tspan x="0" y="0" class="st14" style="font-family:'Montserrat-Thin'; font-size:6px;">w</tspan><tspan x="5.2" y="0" class="st14" style="font-family:'Montserrat-Thin'; font-size:6px;">r</tspan><tspan x="7.6" y="0" class="st14" style="font-family:'Montserrat-Thin'; font-size:6px;">iti</tspan><tspan x="13.5" y="0" class="st14" style="font-family:'Montserrat-Thin'; font-size:6px;">n</tspan><tspan x="17.7" y="0" class="st14" style="font-family:'Montserrat-Thin'; font-size:6px;">g </tspan></text>
	<text transform="matrix(1 0 0 1 -198.5775 70.3237)"><tspan x="0" y="0" class="st14" style="font-family:'Montserrat-Thin'; font-size:6px;"> </tspan><tspan x="2.5" y="0" class="st14" style="font-family:'Montserrat-Thin'; font-size:6px;"> </tspan><tspan x="5" y="0" class="st14" style="font-family:'Montserrat-Thin'; font-size:6px;"> </tspan><tspan x="7.4" y="0" class="st14" style="font-family:'Montserrat-Thin'; font-size:6px;">jou</tspan><tspan x="18.1" y="0" class="st14" style="font-family:'Montserrat-Thin'; font-size:6px;">r</tspan><tspan x="20.8" y="0" class="st14" style="font-family:'Montserrat-Thin'; font-size:6px;">na</tspan><tspan x="29.2" y="0" class="st14" style="font-family:'Montserrat-Thin'; font-size:6px;">l</tspan><tspan x="31.2" y="0" class="st14" style="font-family:'Montserrat-Thin'; font-size:6px;">s </tspan></text>
	
		<text transform="matrix(1 0 0 1 -198.5775 77.7036)" class="st14" style="font-family:'AdobeMyungjoStd-Medium-KSCpc-EUC-H'; font-size:6px;">-</text>
	<g>
		<text transform="matrix(1 0 0 1 -156.5882 77.5239)" class="st14" style="font-family:'Montserrat-Thin'; font-size:6px;"> </text>
		<text transform="matrix(1 0 0 1 -156.5882 77.5239)" class="st14" style="font-family:'Montserrat-Thin'; font-size:6px;"> </text>
		<text transform="matrix(1 0 0 1 -156.5882 77.5239)" class="st14" style="font-family:'Montserrat-Thin'; font-size:6px;"> </text>
		<text transform="matrix(1 0 0 1 -160.6497 77.5239)" class="st14" style="font-family:'Montserrat-Thin'; font-size:6px;">g</text>
		<text transform="matrix(1 0 0 1 -167.7064 77.5239)" class="st14" style="font-family:'Montserrat-Thin'; font-size:6px;">n</text>
		<text transform="matrix(1 0 0 1 -172.2542 77.5239)" class="st14" style="font-family:'Montserrat-Thin'; font-size:6px;">i</text>
		<text transform="matrix(1 0 0 1 -178.6634 77.5239)" class="st14" style="font-family:'Montserrat-Thin'; font-size:6px;">k</text>
		<text transform="matrix(1 0 0 1 -185.1556 77.5239)" class="st14" style="font-family:'Montserrat-Thin'; font-size:6px;">a</text>
		<text transform="matrix(1 0 0 1 -190.5316 77.5239)" class="st14" style="font-family:'Montserrat-Thin'; font-size:6px;">t</text>
	</g>
	<text transform="matrix(1 0 0 1 -198.5775 84.7232)"><tspan x="0" y="0" class="st14" style="font-family:'Montserrat-Thin'; font-size:6px; letter-spacing:5;">pho</tspan><tspan x="28.9" y="0" class="st14" style="font-family:'Montserrat-Thin'; font-size:6px; letter-spacing:5;">t</tspan><tspan x="36.8" y="0" class="st14" style="font-family:'Montserrat-Thin'; font-size:6px; letter-spacing:5;">o</tspan><tspan x="46.2" y="0" class="st14" style="font-family:'Montserrat-Thin'; font-size:6px;">s</tspan></text>
	
		<text transform="matrix(1 0 0 1 -198.5775 92.104)" class="st14" style="font-family:'AdobeMyungjoStd-Medium-KSCpc-EUC-H'; font-size:6px;">-</text>
	<g>
		<text transform="matrix(1 0 0 1 -142.5638 91.9233)" class="st14" style="font-family:'Montserrat-Thin'; font-size:6px;"> </text>
		<text transform="matrix(1 0 0 1 -142.5638 91.9233)" class="st14" style="font-family:'Montserrat-Thin'; font-size:6px;"> </text>
		<text transform="matrix(1 0 0 1 -142.5638 91.9233)" class="st14" style="font-family:'Montserrat-Thin'; font-size:6px;"> </text>
		<text transform="matrix(1 0 0 1 -142.5638 91.9233)" class="st14" style="font-family:'Montserrat-Thin'; font-size:6px;"> </text>
		<text transform="matrix(1 0 0 1 -142.5638 91.9233)" class="st14" style="font-family:'Montserrat-Thin'; font-size:6px;"> </text>
		<text transform="matrix(1 0 0 1 -146.0853 91.9233)" class="st14" style="font-family:'Montserrat-Thin'; font-size:6px;">e</text>
		<text transform="matrix(1 0 0 1 -149.4788 91.9233)" class="st14" style="font-family:'Montserrat-Thin'; font-size:6px;">c</text>
		<text transform="matrix(1 0 0 1 -153.1087 91.9233)" class="st14" style="font-family:'Montserrat-Thin'; font-size:6px;">a</text>
		<text transform="matrix(1 0 0 1 -154.7943 91.9233)" class="st14" style="font-family:'Montserrat-Thin'; font-size:6px;">l</text>
		<text transform="matrix(1 0 0 1 -159.0032 91.9233)" class="st14" style="font-family:'Montserrat-Thin'; font-size:6px;">p</text>
		<text transform="matrix(1 0 0 1 -161.1819 91.9233)" class="st14" style="font-family:'Montserrat-Thin'; font-size:6px;"> </text>
		<text transform="matrix(1 0 0 1 -165.3909 91.9233)" class="st14" style="font-family:'Montserrat-Thin'; font-size:6px;">d</text>
		<text transform="matrix(1 0 0 1 -169.2376 91.9233)" class="st14" style="font-family:'Montserrat-Thin'; font-size:6px;">o</text>
		<text transform="matrix(1 0 0 1 -173.0804 91.9233)" class="st14" style="font-family:'Montserrat-Thin'; font-size:6px;">o</text>
		<text transform="matrix(1 0 0 1 -175.0696 91.9233)" class="st14" style="font-family:'Montserrat-Thin'; font-size:6px;">f</text>
		<text transform="matrix(1 0 0 1 -177.2474 91.9233)" class="st14" style="font-family:'Montserrat-Thin'; font-size:6px;"> </text>
		<text transform="matrix(1 0 0 1 -181.4603 91.9233)" class="st14" style="font-family:'Montserrat-Thin'; font-size:6px;">d</text>
		<text transform="matrix(1 0 0 1 -185.303 91.9233)" class="st14" style="font-family:'Montserrat-Thin'; font-size:6px;">o</text>
		<text transform="matrix(1 0 0 1 -189.1487 91.9233)" class="st14" style="font-family:'Montserrat-Thin'; font-size:6px;">o</text>
		<text transform="matrix(1 0 0 1 -193.3939 91.9233)" class="st14" style="font-family:'Montserrat-Thin'; font-size:6px;">g</text>
	</g>
	<text transform="matrix(1 0 0 1 -198.5775 99.1235)"><tspan x="0" y="0" class="st14" style="font-family:'Montserrat-Thin'; font-size:6px; letter-spacing:7;">   </tspan><tspan x="27.3" y="0" class="st14" style="font-family:'Montserrat-Thin'; font-size:6px; letter-spacing:7;">hun</tspan><tspan x="60.7" y="0" class="st14" style="font-family:'Montserrat-Thin'; font-size:6px;">t</tspan></text>
	
		<text transform="matrix(1 0 0 1 -198.5775 106.5034)" class="st14" style="font-family:'AdobeMyungjoStd-Medium-KSCpc-EUC-H'; font-size:6px;">-</text>
	<text transform="matrix(1 0 0 1 -193.598 106.3237)"><tspan x="0" y="0" class="st14" style="font-family:'Montserrat-Thin'; font-size:6px;">w</tspan><tspan x="4.9" y="0" class="st14" style="font-family:'Montserrat-Thin'; font-size:6px;">a</tspan><tspan x="8.4" y="0" class="st14" style="font-family:'Montserrat-Thin'; font-size:6px;">t</tspan><tspan x="10.6" y="0" class="st14" style="font-family:'Montserrat-Thin'; font-size:6px;">c</tspan><tspan x="13.8" y="0" class="st14" style="font-family:'Montserrat-Thin'; font-size:6px;">hin</tspan><tspan x="23.2" y="0" class="st14" style="font-family:'Montserrat-Thin'; font-size:6px;">g</tspan><tspan x="27.3" y="0" class="st14" style="font-family:'Montserrat-Thin'; font-size:6px;"> </tspan><tspan x="28.8" y="0" class="st14" style="font-family:'Montserrat-Thin'; font-size:6px;">y</tspan><tspan x="31.7" y="0" class="st14" style="font-family:'Montserrat-Thin'; font-size:6px;">outube</tspan><tspan x="53.1" y="0" class="st14" style="font-family:'Montserrat-Thin'; font-size:6px;"> an</tspan><tspan x="62" y="0" class="st14" style="font-family:'Montserrat-Thin'; font-size:6px;">d </tspan></text>
	<path class="st14" d="M-196.5,110.4c0.4,0,0.7,0.1,0.9,0.3c0.2,0.2,0.3,0.5,0.3,1v1.8h-0.1v-1.8c0-0.4-0.1-0.7-0.3-0.9
		c-0.2-0.2-0.5-0.3-0.8-0.3c-0.4,0-0.7,0.1-1,0.4c-0.2,0.2-0.4,0.6-0.4,1v1.7h-0.1v-3.1h0.1v0.8c0.1-0.3,0.3-0.5,0.5-0.6
		C-197.1,110.5-196.8,110.4-196.5,110.4L-196.5,110.4z M-191.3,112h-2.8c0,0.3,0.1,0.5,0.2,0.8c0.1,0.2,0.3,0.4,0.5,0.5
		c0.2,0.1,0.5,0.2,0.7,0.2c0.2,0,0.4,0,0.6-0.1c0.2-0.1,0.3-0.2,0.5-0.4l0.1,0.1c-0.1,0.2-0.3,0.3-0.5,0.4c-0.2,0.1-0.4,0.1-0.6,0.1
		c-0.3,0-0.6-0.1-0.8-0.2c-0.2-0.1-0.4-0.3-0.6-0.6c-0.1-0.2-0.2-0.5-0.2-0.8c0-0.3,0.1-0.6,0.2-0.8c0.1-0.2,0.3-0.4,0.5-0.6
		c0.2-0.1,0.5-0.2,0.7-0.2c0.3,0,0.5,0.1,0.7,0.2c0.2,0.1,0.4,0.3,0.5,0.5C-191.4,111.4-191.3,111.6-191.3,112L-191.3,112z
		 M-192.8,110.5c-0.2,0-0.5,0.1-0.7,0.2c-0.2,0.1-0.4,0.3-0.5,0.5c-0.1,0.2-0.2,0.4-0.2,0.7h2.6c0-0.3-0.1-0.5-0.2-0.7
		c-0.1-0.2-0.3-0.4-0.5-0.5C-192.3,110.6-192.5,110.5-192.8,110.5L-192.8,110.5z M-188.9,113.3c-0.1,0.1-0.2,0.1-0.3,0.2
		c-0.1,0-0.2,0.1-0.3,0.1c-0.2,0-0.4-0.1-0.6-0.2c-0.1-0.1-0.2-0.3-0.2-0.6v-2.2h-0.6v-0.1h0.6v-0.7h0.1v0.7h1v0.1h-1v2.2
		c0,0.2,0.1,0.4,0.2,0.5c0.1,0.1,0.3,0.2,0.5,0.2C-189.3,113.4-189.1,113.4-188.9,113.3L-188.9,113.3z M-187.2,109.2
		c-0.2,0-0.4,0.1-0.5,0.2c-0.1,0.1-0.2,0.3-0.2,0.5v0.6h1v0.1h-1v3h-0.1v-3h-0.6v-0.1h0.6v-0.6c0-0.2,0.1-0.4,0.2-0.6
		c0.1-0.1,0.3-0.2,0.6-0.2c0.1,0,0.2,0,0.3,0.1c0.1,0,0.2,0.1,0.3,0.2l-0.1,0.1C-186.8,109.2-187,109.2-187.2,109.2L-187.2,109.2z
		 M-186.1,109.1h0.1v4.5h-0.1V109.1z M-184.6,109.6c0,0-0.1,0-0.1,0c0,0,0-0.1,0-0.1c0,0,0-0.1,0-0.1c0,0,0.1,0,0.1,0
		c0,0,0.1,0,0.1,0c0,0,0,0.1,0,0.1c0,0,0,0.1,0,0.1C-184.5,109.5-184.5,109.6-184.6,109.6L-184.6,109.6z M-184.6,110.4h0.1v3.1h-0.1
		V110.4z M-181.1,113.5l-1.2-1.5l-1.2,1.5h-0.1l1.2-1.6l-1.2-1.5h0.2l1.1,1.4l1.1-1.4h0.1l-1.2,1.5l1.3,1.6H-181.1z M-179.4,113.5
		c-0.2,0-0.5,0-0.7-0.1c-0.2-0.1-0.4-0.2-0.5-0.3l0.1-0.1c0.1,0.1,0.3,0.2,0.5,0.3c0.2,0.1,0.4,0.1,0.7,0.1c0.4,0,0.6-0.1,0.8-0.2
		c0.2-0.1,0.3-0.3,0.3-0.5c0-0.2,0-0.3-0.1-0.4c-0.1-0.1-0.2-0.2-0.3-0.2c-0.1,0-0.3-0.1-0.5-0.1c-0.2,0-0.4-0.1-0.6-0.1
		c-0.1,0-0.3-0.1-0.4-0.2c-0.1-0.1-0.2-0.3-0.2-0.5c0-0.2,0.1-0.4,0.3-0.6c0.2-0.2,0.5-0.2,0.8-0.2c0.2,0,0.4,0,0.6,0.1
		c0.2,0.1,0.3,0.1,0.5,0.2l-0.1,0.1c-0.1-0.1-0.3-0.2-0.4-0.2c-0.2-0.1-0.3-0.1-0.5-0.1c-0.3,0-0.6,0.1-0.7,0.2s-0.2,0.3-0.2,0.5
		c0,0.2,0,0.3,0.1,0.4c0.1,0.1,0.2,0.2,0.3,0.2c0.1,0,0.3,0.1,0.5,0.1c0.2,0,0.4,0.1,0.6,0.1c0.1,0,0.3,0.1,0.4,0.2
		c0.1,0.1,0.1,0.3,0.1,0.4c0,0.2-0.1,0.4-0.3,0.6C-178.7,113.5-179,113.5-179.4,113.5L-179.4,113.5z M-175.4,113.2c0,0,0.1,0,0.1,0
		c0,0,0,0.1,0,0.1c0,0,0,0.1,0,0.2l-0.2,0.8h-0.1l0.2-0.8c0,0-0.1,0-0.1-0.1c0,0,0-0.1,0-0.1c0,0,0-0.1,0-0.1
		S-175.5,113.2-175.4,113.2L-175.4,113.2z M-171.3,109.2c-0.2,0-0.4,0.1-0.5,0.2c-0.1,0.1-0.2,0.3-0.2,0.5v0.6h1v0.1h-1v3h-0.1v-3
		h-0.6v-0.1h0.6v-0.6c0-0.2,0.1-0.4,0.2-0.6c0.1-0.1,0.3-0.2,0.6-0.2c0.1,0,0.2,0,0.3,0.1c0.1,0,0.2,0.1,0.3,0.2l-0.1,0.1
		C-170.9,109.2-171.1,109.2-171.3,109.2L-171.3,109.2z M-169.7,109.6c0,0-0.1,0-0.1,0c0,0,0-0.1,0-0.1c0,0,0-0.1,0-0.1
		c0,0,0.1,0,0.1,0c0,0,0.1,0,0.1,0c0,0,0,0.1,0,0.1c0,0,0,0.1,0,0.1C-169.6,109.5-169.7,109.6-169.7,109.6L-169.7,109.6z
		 M-169.8,110.4h0.1v3.1h-0.1V110.4z M-168.2,109.1h0.1v4.5h-0.1V109.1z M-162.8,110.4c0.4,0,0.7,0.1,0.9,0.3c0.2,0.2,0.3,0.5,0.3,1
		v1.8h-0.1v-1.8c0-0.4-0.1-0.7-0.3-0.9c-0.2-0.2-0.5-0.3-0.8-0.3c-0.4,0-0.7,0.1-0.9,0.4c-0.2,0.2-0.3,0.6-0.3,1v1.7h-0.1v-1.8
		c0-0.4-0.1-0.7-0.3-0.9c-0.2-0.2-0.5-0.3-0.8-0.3c-0.4,0-0.7,0.1-0.9,0.4c-0.2,0.2-0.3,0.6-0.3,1v1.7h-0.1v-3.1h0.1v0.8
		c0.1-0.3,0.2-0.5,0.5-0.6c0.2-0.1,0.5-0.2,0.8-0.2c0.3,0,0.6,0.1,0.8,0.2c0.2,0.2,0.3,0.4,0.4,0.7c0.1-0.3,0.2-0.5,0.5-0.7
		C-163.4,110.5-163.2,110.4-162.8,110.4L-162.8,110.4z M-159.5,113.5c-0.2,0-0.5,0-0.7-0.1c-0.2-0.1-0.4-0.2-0.5-0.3l0.1-0.1
		c0.1,0.1,0.3,0.2,0.5,0.3c0.2,0.1,0.4,0.1,0.7,0.1c0.4,0,0.6-0.1,0.8-0.2c0.2-0.1,0.3-0.3,0.3-0.5c0-0.2,0-0.3-0.1-0.4
		c-0.1-0.1-0.2-0.2-0.3-0.2c-0.1,0-0.3-0.1-0.5-0.1c-0.2,0-0.4-0.1-0.6-0.1c-0.1,0-0.3-0.1-0.4-0.2c-0.1-0.1-0.2-0.3-0.2-0.5
		c0-0.2,0.1-0.4,0.3-0.6c0.2-0.2,0.5-0.2,0.8-0.2c0.2,0,0.4,0,0.6,0.1c0.2,0.1,0.3,0.1,0.5,0.2l-0.1,0.1c-0.1-0.1-0.3-0.2-0.4-0.2
		c-0.2-0.1-0.3-0.1-0.5-0.1c-0.3,0-0.6,0.1-0.7,0.2s-0.2,0.3-0.2,0.5c0,0.2,0,0.3,0.1,0.4c0.1,0.1,0.2,0.2,0.3,0.2
		c0.1,0,0.3,0.1,0.5,0.1c0.2,0,0.4,0.1,0.6,0.1c0.1,0,0.3,0.1,0.4,0.2c0.1,0.1,0.1,0.3,0.1,0.4c0,0.2-0.1,0.4-0.3,0.6
		C-158.9,113.5-159.2,113.5-159.5,113.5L-159.5,113.5z M-155.3,109.6c0,0-0.1,0-0.1,0c0,0,0-0.1,0-0.1c0,0,0-0.1,0-0.1
		c0,0,0.1,0,0.1,0c0,0,0.1,0,0.1,0c0,0,0,0.1,0,0.1c0,0,0,0.1,0,0.1C-155.3,109.5-155.3,109.6-155.3,109.6L-155.3,109.6z
		 M-155.4,110.4h0.1v3.1h-0.1V110.4z M-152.4,110.4c0.4,0,0.7,0.1,0.9,0.3c0.2,0.2,0.3,0.5,0.3,1v1.8h-0.1v-1.8
		c0-0.4-0.1-0.7-0.3-0.9c-0.2-0.2-0.5-0.3-0.8-0.3c-0.4,0-0.7,0.1-1,0.4c-0.2,0.2-0.4,0.6-0.4,1v1.7h-0.1v-3.1h0.1v0.8
		c0.1-0.3,0.3-0.5,0.5-0.6C-153,110.5-152.8,110.4-152.4,110.4L-152.4,110.4z M-145.1,110.4v2.8c0,0.5-0.1,0.9-0.4,1.1
		c-0.2,0.2-0.6,0.4-1.1,0.4c-0.3,0-0.5,0-0.8-0.1c-0.2-0.1-0.4-0.2-0.6-0.4l0.1-0.1c0.2,0.2,0.3,0.3,0.6,0.4
		c0.2,0.1,0.5,0.1,0.7,0.1c0.4,0,0.8-0.1,1-0.3c0.2-0.2,0.3-0.5,0.3-1v-0.8c-0.1,0.3-0.3,0.5-0.5,0.7c-0.3,0.2-0.5,0.3-0.9,0.3
		c-0.3,0-0.5-0.1-0.8-0.2c-0.2-0.1-0.4-0.3-0.5-0.5c-0.1-0.2-0.2-0.5-0.2-0.8s0.1-0.5,0.2-0.8c0.1-0.2,0.3-0.4,0.5-0.5
		c0.2-0.1,0.5-0.2,0.8-0.2c0.3,0,0.6,0.1,0.9,0.3c0.2,0.2,0.4,0.4,0.5,0.7v-0.9H-145.1z M-146.6,113.3c0.3,0,0.5-0.1,0.7-0.2
		c0.2-0.1,0.4-0.3,0.5-0.5c0.1-0.2,0.2-0.5,0.2-0.7c0-0.3-0.1-0.5-0.2-0.7c-0.1-0.2-0.3-0.4-0.5-0.5c-0.2-0.1-0.5-0.2-0.7-0.2
		c-0.3,0-0.5,0.1-0.7,0.2c-0.2,0.1-0.4,0.3-0.5,0.5c-0.1,0.2-0.2,0.5-0.2,0.7c0,0.3,0.1,0.5,0.2,0.7c0.1,0.2,0.3,0.4,0.5,0.5
		C-147.1,113.2-146.9,113.3-146.6,113.3L-146.6,113.3z M-141.2,112h-2.8c0,0.3,0.1,0.5,0.2,0.8c0.1,0.2,0.3,0.4,0.5,0.5
		c0.2,0.1,0.5,0.2,0.7,0.2c0.2,0,0.4,0,0.6-0.1c0.2-0.1,0.3-0.2,0.5-0.4l0.1,0.1c-0.1,0.2-0.3,0.3-0.5,0.4c-0.2,0.1-0.4,0.1-0.6,0.1
		c-0.3,0-0.6-0.1-0.8-0.2c-0.2-0.1-0.4-0.3-0.6-0.6c-0.1-0.2-0.2-0.5-0.2-0.8c0-0.3,0.1-0.6,0.2-0.8c0.1-0.2,0.3-0.4,0.5-0.6
		c0.2-0.1,0.5-0.2,0.7-0.2c0.3,0,0.5,0.1,0.7,0.2c0.2,0.1,0.4,0.3,0.5,0.5C-141.3,111.4-141.2,111.6-141.2,112L-141.2,112z
		 M-142.6,110.5c-0.2,0-0.5,0.1-0.7,0.2c-0.2,0.1-0.4,0.3-0.5,0.5c-0.1,0.2-0.2,0.4-0.2,0.7h2.6c0-0.3-0.1-0.5-0.2-0.7
		c-0.1-0.2-0.3-0.4-0.5-0.5C-142.2,110.6-142.4,110.5-142.6,110.5L-142.6,110.5z M-138.7,110.4c0.4,0,0.7,0.1,0.9,0.3
		c0.2,0.2,0.3,0.5,0.3,1v1.8h-0.1v-1.8c0-0.4-0.1-0.7-0.3-0.9c-0.2-0.2-0.5-0.3-0.8-0.3c-0.4,0-0.7,0.1-1,0.4
		c-0.2,0.2-0.4,0.6-0.4,1v1.7h-0.1v-3.1h0.1v0.8c0.1-0.3,0.3-0.5,0.5-0.6C-139.3,110.5-139,110.4-138.7,110.4L-138.7,110.4z
		 M-133.6,112h-2.8c0,0.3,0.1,0.5,0.2,0.8c0.1,0.2,0.3,0.4,0.5,0.5c0.2,0.1,0.5,0.2,0.7,0.2c0.2,0,0.4,0,0.6-0.1
		c0.2-0.1,0.3-0.2,0.5-0.4l0.1,0.1c-0.1,0.2-0.3,0.3-0.5,0.4c-0.2,0.1-0.4,0.1-0.6,0.1c-0.3,0-0.6-0.1-0.8-0.2
		c-0.2-0.1-0.4-0.3-0.6-0.6c-0.1-0.2-0.2-0.5-0.2-0.8c0-0.3,0.1-0.6,0.2-0.8c0.1-0.2,0.3-0.4,0.5-0.6c0.2-0.1,0.5-0.2,0.7-0.2
		c0.3,0,0.5,0.1,0.7,0.2c0.2,0.1,0.4,0.3,0.5,0.5C-133.7,111.4-133.6,111.6-133.6,112L-133.6,112z M-135,110.5
		c-0.2,0-0.5,0.1-0.7,0.2c-0.2,0.1-0.4,0.3-0.5,0.5c-0.1,0.2-0.2,0.4-0.2,0.7h2.6c0-0.3-0.1-0.5-0.2-0.7c-0.1-0.2-0.3-0.4-0.5-0.5
		C-134.6,110.6-134.8,110.5-135,110.5L-135,110.5z M-132.4,111.2c0.1-0.3,0.2-0.5,0.4-0.6c0.2-0.1,0.5-0.2,0.8-0.2v0.1h0
		c-0.4,0-0.7,0.1-0.9,0.4c-0.2,0.2-0.3,0.6-0.3,1v1.7h-0.1v-3.1h0.1V111.2L-132.4,111.2z M-129.3,110.4c0.4,0,0.6,0.1,0.8,0.3
		c0.2,0.2,0.3,0.5,0.3,0.8v2h-0.1v-0.7c-0.1,0.2-0.3,0.4-0.5,0.5c-0.2,0.1-0.4,0.2-0.7,0.2c-0.3,0-0.6-0.1-0.8-0.2
		c-0.2-0.2-0.3-0.4-0.3-0.6c0-0.2,0.1-0.4,0.3-0.6c0.2-0.2,0.5-0.2,0.8-0.2h1.2v-0.3c0-0.3-0.1-0.6-0.2-0.7
		c-0.2-0.2-0.4-0.2-0.7-0.2c-0.2,0-0.4,0-0.6,0.1c-0.2,0.1-0.4,0.2-0.5,0.3l-0.1-0.1c0.1-0.1,0.3-0.3,0.5-0.3
		C-129.7,110.4-129.5,110.4-129.3,110.4L-129.3,110.4z M-129.5,113.4c0.6,0,1-0.3,1.2-0.8V112h-1.2c-0.3,0-0.6,0.1-0.7,0.2
		c-0.2,0.1-0.2,0.3-0.2,0.5c0,0.2,0.1,0.4,0.3,0.6C-130,113.4-129.8,113.4-129.5,113.4L-129.5,113.4z M-126.8,109.1h0.1v4.5h-0.1
		V109.1z M-121.6,111.8c-0.1,0-0.2,0-0.3-0.1c-0.1-0.1-0.2-0.1-0.3-0.3c-0.1-0.1-0.2-0.2-0.3-0.2c-0.1,0-0.2-0.1-0.3-0.1
		c-0.2,0-0.3,0.1-0.4,0.2c-0.1,0.1-0.1,0.3-0.2,0.5h-0.1c0-0.2,0.1-0.4,0.2-0.5c0.1-0.1,0.3-0.2,0.5-0.2c0.1,0,0.2,0,0.3,0.1
		c0.1,0.1,0.2,0.1,0.3,0.3c0.1,0.1,0.2,0.2,0.3,0.2c0.1,0.1,0.2,0.1,0.3,0.1c0.2,0,0.3-0.1,0.4-0.2c0.1-0.1,0.1-0.3,0.2-0.5h0.1
		c0,0.2-0.1,0.4-0.2,0.5C-121.3,111.7-121.4,111.8-121.6,111.8L-121.6,111.8z"/>
	<text transform="matrix(1 0 0 1 -198.5775 120.9038)"><tspan x="0" y="0" class="st14" style="font-family:'AdobeMyungjoStd-Medium-KSCpc-EUC-H'; font-size:6px; letter-spacing:2;">-</tspan><tspan x="7.5" y="0" class="st14" style="font-family:'AdobeMyungjoStd-Medium-KSCpc-EUC-H'; font-size:6px;"> </tspan></text>
	<g>
		<text transform="matrix(1 0 0 1 -113.5911 120.7232)" class="st14" style="font-family:'Montserrat-Thin'; font-size:6px;"> </text>
		<text transform="matrix(1 0 0 1 -113.5911 120.7232)" class="st14" style="font-family:'Montserrat-Thin'; font-size:6px;"> </text>
		<text transform="matrix(1 0 0 1 -116.3685 120.7232)" class="st14" style="font-family:'Montserrat-Thin'; font-size:6px;">s</text>
		<text transform="matrix(1 0 0 1 -122.2142 120.7232)" class="st14" style="font-family:'Montserrat-Thin'; font-size:6px;">k</text>
		<text transform="matrix(1 0 0 1 -128.389 120.7232)" class="st14" style="font-family:'Montserrat-Thin'; font-size:6px;">o</text>
		<text transform="matrix(1 0 0 1 -134.5628 120.7232)" class="st14" style="font-family:'Montserrat-Thin'; font-size:6px;">o</text>
		<text transform="matrix(1 0 0 1 -141.1028 120.7232)" class="st14" style="font-family:'Montserrat-Thin'; font-size:6px;">b</text>
		<text transform="matrix(1 0 0 1 -145.6126 120.7232)" class="st14" style="font-family:'Montserrat-Thin'; font-size:6px;"> </text>
		<text transform="matrix(1 0 0 1 -152.1888 120.7232)" class="st14" style="font-family:'Montserrat-Thin'; font-size:6px;">g</text>
		<text transform="matrix(1 0 0 1 -158.7103 120.7232)" class="st14" style="font-family:'Montserrat-Thin'; font-size:6px;">n</text>
		<text transform="matrix(1 0 0 1 -162.7249 120.7232)" class="st14" style="font-family:'Montserrat-Thin'; font-size:6px;">i</text>
		<text transform="matrix(1 0 0 1 -169.265 120.7232)" class="st14" style="font-family:'Montserrat-Thin'; font-size:6px;">d</text>
		<text transform="matrix(1 0 0 1 -175.223 120.7232)" class="st14" style="font-family:'Montserrat-Thin'; font-size:6px;">a</text>
		<text transform="matrix(1 0 0 1 -181.1702 120.7232)" class="st14" style="font-family:'Montserrat-Thin'; font-size:6px;">e</text>
		<text transform="matrix(1 0 0 1 -185.8939 120.7232)" class="st14" style="font-family:'Montserrat-Thin'; font-size:6px;">r</text>
	</g>
	<text transform="matrix(1 0 0 1 -198.5775 127.9233)"><tspan x="0" y="0" class="st14" style="font-family:'Montserrat-Thin'; font-size:6px; letter-spacing:2;">i</tspan><tspan x="3.9" y="0" class="st14" style="font-family:'Montserrat-Thin'; font-size:6px; letter-spacing:2;">n</tspan><tspan x="10.3" y="0" class="st14" style="font-family:'Montserrat-Thin'; font-size:6px; letter-spacing:2;">s</tspan><tspan x="15.4" y="0" class="st14" style="font-family:'Montserrat-Thin'; font-size:6px; letter-spacing:2;">tag</tspan><tspan x="32.4" y="0" class="st14" style="font-family:'Montserrat-Thin'; font-size:6px; letter-spacing:2;">r</tspan><tspan x="37" y="0" class="st14" style="font-family:'Montserrat-Thin'; font-size:6px; letter-spacing:2;">am</tspan><tspan x="51.6" y="0" class="st14" style="font-family:'Montserrat-Thin'; font-size:6px; letter-spacing:2;"> </tspan><tspan x="56" y="0" class="st14" style="font-family:'Montserrat-Thin'; font-size:6px; letter-spacing:2;">eu</tspan><tspan x="68.3" y="0" class="st14" style="font-family:'Montserrat-Thin'; font-size:6px; letter-spacing:2;">rfin</tspan><tspan x="85.5" y="0" class="st14" style="font-family:'Montserrat-Thin'; font-size:6px;">g </tspan></text>
	<text transform="matrix(1 0 0 1 -198.5775 135.3032)"><tspan x="0" y="0" class="st14" style="font-family:'AdobeMyungjoStd-Medium-KSCpc-EUC-H'; font-size:6px; letter-spacing:8;">-</tspan><tspan x="13.4" y="0" class="st14" style="font-family:'AdobeMyungjoStd-Medium-KSCpc-EUC-H'; font-size:6px;"> </tspan></text>
	<text transform="matrix(1 0 0 1 -174.1155 135.1236)"><tspan x="0" y="0" class="st14" style="font-family:'Montserrat-Thin'; font-size:6px; letter-spacing:8;">w</tspan><tspan x="13.3" y="0" class="st14" style="font-family:'Montserrat-Thin'; font-size:6px; letter-spacing:8;">o</tspan><tspan x="25.4" y="0" class="st14" style="font-family:'Montserrat-Thin'; font-size:6px; letter-spacing:8;">r</tspan><tspan x="36" y="0" class="st14" style="font-family:'Montserrat-Thin'; font-size:6px; letter-spacing:8;">k</tspan><tspan x="47.7" y="0" class="st14" style="font-family:'Montserrat-Thin'; font-size:6px; letter-spacing:8;">ou</tspan><tspan x="72.2" y="0" class="st14" style="font-family:'Montserrat-Thin'; font-size:6px;">t</tspan></text>
	<text transform="matrix(1 0 0 1 -198.5775 142.5034)"><tspan x="0" y="0" class="st14" style="font-family:'AdobeMyungjoStd-Medium-KSCpc-EUC-H'; font-size:6px; letter-spacing:13;">-</tspan><tspan x="19" y="0" class="st14" style="font-family:'AdobeMyungjoStd-Medium-KSCpc-EUC-H'; font-size:6px;"> </tspan></text>
	<text transform="matrix(1 0 0 1 -162.9261 142.3237)"><tspan x="0" y="0" class="st14" style="font-family:'Montserrat-Thin'; font-size:6px; letter-spacing:13;">s</tspan><tspan x="16.8" y="0" class="st14" style="font-family:'Montserrat-Thin'; font-size:6px; letter-spacing:13;">lee</tspan><tspan x="67.3" y="0" class="st14" style="font-family:'Montserrat-Thin'; font-size:6px;">p</tspan></text>
	<text transform="matrix(1 0 0 1 -198.5775 149.5239)"><tspan x="0" y="0" class="st14" style="font-family:'Montserrat-Thin'; font-size:6px;">ALL</tspan><tspan x="11.1" y="0" class="st14" style="font-family:'Montserrat-Thin'; font-size:6px;">  </tspan><tspan x="15.2" y="0" class="st14" style="font-family:'Montserrat-Thin'; font-size:6px;">THINGS</tspan><tspan x="38.3" y="0" class="st14" style="font-family:'Montserrat-Thin'; font-size:6px;"> </tspan><tspan x="40.3" y="0" class="st14" style="font-family:'Montserrat-Thin'; font-size:6px;">AB</tspan><tspan x="49" y="0" class="st14" style="font-family:'Montserrat-Thin'; font-size:6px;">O</tspan><tspan x="53.9" y="0" class="st14" style="font-family:'Montserrat-Thin'; font-size:6px;">V</tspan><tspan x="57.8" y="0" class="st14" style="font-family:'Montserrat-Thin'; font-size:6px;">E</tspan><tspan x="61.9" y="0" class="st14" style="font-family:'Montserrat-Thin'; font-size:6px;"> </tspan><tspan x="63.9" y="0" class="st14" style="font-family:'Montserrat-Thin'; font-size:6px;">HA</tspan><tspan x="72.9" y="0" class="st14" style="font-family:'Montserrat-Thin'; font-size:6px;">PP</tspan><tspan x="81.4" y="0" class="st14" style="font-family:'Montserrat-Thin'; font-size:6px;">ENS</tspan><tspan x="93.9" y="0" class="st14" style="font-family:'Montserrat-Thin'; font-size:6px;"> </tspan><tspan x="95.9" y="0" class="st14" style="font-family:'Montserrat-Thin'; font-size:6px;">I</tspan><tspan x="97.7" y="0" class="st14" style="font-family:'Montserrat-Thin'; font-size:6px;">N</tspan><tspan x="102.6" y="0" class="st14" style="font-family:'Montserrat-Thin'; font-size:6px;"> </tspan><tspan x="104.6" y="0" class="st14" style="font-family:'Montserrat-Thin'; font-size:6px;">M</tspan><tspan x="110.3" y="0" class="st14" style="font-family:'Montserrat-Thin'; font-size:6px;">Y </tspan></text>
	<text transform="matrix(1 0 0 1 -198.5775 156.7232)"><tspan x="0" y="0" class="st14" style="font-family:'Montserrat-Light'; font-size:6px; letter-spacing:19;">DO</tspan><tspan x="48.9" y="0" class="st14" style="font-family:'Montserrat-Light'; font-size:6px; letter-spacing:19;">RM</tspan><tspan x="98" y="0" class="st14" style="font-family:'Montserrat-Light'; font-size:6px; letter-spacing:19;"> </tspan><tspan x="119.5" y="0" class="st14" style="font-family:'Montserrat-Light'; font-size:6px;">!</tspan></text>
	<text transform="matrix(1 0 0 1 -198.5775 163.9234)"><tspan x="0" y="0" class="st14" style="font-family:'Montserrat-Light'; font-size:6px; letter-spacing:12;">H</tspan><tspan x="17.8" y="0" class="st14" style="font-family:'Montserrat-Light'; font-size:6px; letter-spacing:12;">O</tspan><tspan x="35.7" y="0" class="st14" style="font-family:'Montserrat-Light'; font-size:6px; letter-spacing:12;">MEB</tspan><tspan x="88.6" y="0" class="st14" style="font-family:'Montserrat-Light'; font-size:6px; letter-spacing:12;">O</tspan><tspan x="106.6" y="0" class="st14" style="font-family:'Montserrat-Light'; font-size:6px; letter-spacing:12;">D</tspan><tspan x="124.2" y="0" class="st14" style="font-family:'Montserrat-Light'; font-size:6px;">Y</tspan></text>
	<rect x="-2639.5" y="-1238.7" class="st3" width="508.5" height="902.3"/>
	<rect x="98.5" y="53.5" class="st17" width="161.5" height="48"/>
	<text transform="matrix(1 0 0 1 98.5463 63.1142)" class="st18 st19">square-B.yerin</text>
	<rect x="196.2" y="29.5" class="st17" width="161.5" height="48"/>
	<text transform="matrix(1 0 0 1 196.2217 39.1046)"><tspan x="0" y="0" class="st18 st19">food that my </tspan><tspan x="0" y="27" class="st18 st19">mom made for me</tspan></text>
	<rect x="260.1" y="139.9" class="st17" width="161.5" height="48"/>
	<text transform="matrix(1 0 0 1 260.0654 149.5136)" class="st18 st19">core lab</text>
	<rect x="251.9" y="198.8" class="st17" width="161.5" height="48"/>
	<text transform="matrix(1 0 0 1 251.8803 208.4463)"><tspan x="0" y="0" class="st18 st19">the secret life of </tspan><tspan x="0" y="27" class="st18 st19">walter mitty</tspan></text>
	<rect x="215.9" y="291.1" class="st17" width="161.5" height="48"/>
	<text transform="matrix(1 0 0 1 215.8659 300.665)" class="st18 st19">ash-mint</text>
	<rect x="39.6" y="118.3" class="st17" width="161.5" height="48"/>
	<text transform="matrix(1 0 0 1 39.6136 127.914)"><tspan x="0" y="0" class="st18 st19">essays in love</tspan><tspan x="0" y="27" class="st18 st19">alain de botton</tspan></text>
	<rect x="37.4" y="198.8" class="st17" width="161.5" height="48"/>
	<text transform="matrix(1 0 0 1 37.4309 208.4463)"><tspan x="0" y="0" class="st18 st19">heartsignal</tspan><tspan x="0" y="27" class="st18 st19">짠내투어</tspan></text>
	<rect x="120.4" y="276.7" class="st17" width="161.5" height="48"/>
	<text transform="matrix(1 0 0 1 120.3732 286.341)" class="st18 st19">pilates</text>
</g>
<g id="레이어_2">
	<g>
		<g>
			<polygon class="st4" points="-704.4,-1127 -704.4,-1049.3 -514.4,-1049.3 -312.4,-1049.3 -478.3,-1127 			"/>
			<path class="st4" d="M-514.4-1049.3l-165.4-77.7L-514.4-1049.3z"/>
		</g>
		<polygon class="st20" points="-478.3,-1127 -679.8,-1127 -514.4,-1049.3 -312.4,-1049.3 		"/>
		<rect x="-543.8" y="-1129" class="st17" width="99" height="96.1"/>
		<text transform="matrix(1.0601 0 0 1 -543.8464 -1102.5847)"><tspan x="0" y="0" class="st15 st18" style="font-size:33px;">KOR</tspan><tspan x="0" y="27" class="st15 st18" style="font-size:33px;"> VAN</tspan><tspan x="0" y="54" class="st15 st18" style="font-size:33px;">  NYC</tspan></text>
		<rect x="-696.8" y="-1065.4" class="st17" width="79.6" height="11.8"/>
		<text transform="matrix(1.0601 0 0 1 -696.8268 -1055.7595)" class="st18 st19">my peers</text>
	</g>
	
		<text transform="matrix(0.9196 -1.451 0.9057 0.4238 -101.1841 -932.2743)" style="font-family:'NYJGothicEB-KSCpc-EUC-H'; font-size:41.8605px;">아빠</text>
	
		<text transform="matrix(0.9196 -1.451 0.9057 0.4238 -55.6874 -910.9847)" style="font-family:'NYJGothicEB-KSCpc-EUC-H'; font-size:41.8605px;">엄마</text>
	
		<text transform="matrix(0.9196 -1.451 0.9057 0.4238 -10.1887 -889.6964)" style="font-family:'NYJGothicEB-KSCpc-EUC-H'; font-size:41.8605px;">나랑</text>
	
		<text transform="matrix(0.9196 -1.451 0.9057 0.4238 35.3087 -868.4044)" style="font-family:'NYJGothicEB-KSCpc-EUC-H'; font-size:41.8605px;">동생</text>
	
		<image style="overflow:visible;enable-background:new    ;" width="163" height="197" id="레이어_1_2_" xlink:href="642B2870671260D9.png"  transform="matrix(1 0 0 1 -35.9644 -787.5994)">
	</image>
</g>
</svg>
