<svg xmlns="http://www.w3.org/2000/svg" viewBox="0 0 226.27 148.17"><defs><style>.cls-1,.cls-2,.cls-3{fill:none;stroke:#000;stroke-miterlimit:10;}.cls-1{stroke-width:0.75px;}.cls-2{stroke-width:0.5px;}.cls-3{stroke-width:0.25px;}</style></defs><title>대지 1</title><g id="레이어_2" data-name="레이어 2"><path class="cls-1" d="M.28,44.61s16.59,18.7,13,49S5,119,5.81,129.24s22.45,15.07,25.87,18.51"/><circle class="cls-2" cx="92.47" cy="97.39" r="20.32"/><circle class="cls-2" cx="93.29" cy="94.11" r="7.78"/><circle class="cls-2" cx="93.29" cy="94.7" r="9.15"/><path class="cls-2" d="M76,97.39a16.4,16.4,0,0,0,4.33,11.11h24.37A16.46,16.46,0,0,0,103,84.69H81.92A16.5,16.5,0,0,0,76,97.39Z"/><path class="cls-2" d="M68.67,60S50.05,90,67.1,114.87s55.11,31.28,74.78,17.42,18.75-18.42,18.75-18.42L114.79,89.5l41.09-44.31s1.48-23.67-5-29.4-54.5-6.38-60-2.84S80.6,21.39,77.7,42.49C76,52.3,68.67,60,68.67,60Z"/><path class="cls-1" d="M172.78,2.38s4.29,7.83,1.41,9.84S158.58,24,161.92,38.67"/><path class="cls-3" d="M89.64,88.46h1.45s-1.88,2.47-1.45,4.44H86.91S88.19,88.46,89.64,88.46Z"/><path class="cls-3" d="M95.23,88.46a4.08,4.08,0,0,1,.94,1.71s1.19-.92,1.75-.36-1.67-1.73-1.67-1.73Z"/><path class="cls-3" d="M95.23,18.4s-4.17-2.31-4.14,8.36-4.18,26.13-4.18,26.13-5.48,7.29,4.16,6.22,53-1.24,53-1.24l9.07-10.31s-3.2-16.36-3.2-19,.35-12.34-7.83-10.35S95.23,18.4,95.23,18.4Z"/><path class="cls-3" d="M107.17,19.86s-6-1.31-4.73,4.06,0,14.75,0,14.75-2.51,4.11,5.72,3.23S131.3,42,131.3,42s9.43,2.31,7.89-3.46-.44-13.88-.44-13.88.44-5.44-3.84-5S107.17,19.86,107.17,19.86Z"/><rect class="cls-3" x="115.18" y="21.18" width="11.95" height="7.68"/><path class="cls-3" d="M107.17,19.86a12.29,12.29,0,0,0-2.29,9.4c1,5.37,3.89,9.9,9.91,10.46s13.52,1.48,18.89-3.61,3.49-14.07,1.23-16.39"/><line class="cls-3" x1="86.53" y1="58.15" x2="102.86" y2="41.36"/><line class="cls-3" x1="137.99" y1="41.95" x2="148.37" y2="53"/><line class="cls-3" x1="107.87" y1="36.19" x2="115.18" y2="28.85"/><line class="cls-3" x1="127.13" y1="28.85" x2="133.68" y2="36.11"/><path class="cls-1" d="M38.93.45S26.26,7.59,53.45,7.13C66.76,6.13,67.54,4.59,66,1.75c-.22-.41-.49-.84-.78-1.3Z"/><path class="cls-1" d="M.28,31.12s3.61-7.18,9.67-8,23-4.18,34.7-9.62A73.09,73.09,0,0,1,66.56,7.16,8.13,8.13,0,0,0,69.73,3.8c1-2.22,36.68-1.18,36.68-1.18l66.37-.24L171.94.45H.28Z"/><polygon class="cls-2" points="9.96 32.21 10.48 45.67 13.46 45.67 13.46 40.23 17.99 45.67 22.26 45.67 16.11 38.94 21.1 32.21 17.6 32.21 13.33 37.38 13.2 32.21 9.96 32.21"/><circle class="cls-2" cx="27.22" cy="40.22" r="2.86"/><circle class="cls-2" cx="39.02" cy="39.95" r="2.86"/><circle class="cls-2" cx="27.22" cy="40.22" r="5.31"/><path class="cls-2" d="M44.33,31.81h-3v3.66A5.23,5.23,0,0,0,39,34.91a5.31,5.31,0,1,0,5.31,5.31,2.4,2.4,0,0,0,0-.28h0Z"/><path class="cls-2" d="M47,34.91v2.17s5.53-1.35,5.37,1.17c0,0-5.21-.77-6.14,1.2s-1,5.32,3.07,5.7S55,43.08,55,43.08s1.15-5.44-.54-7.24S48.79,34.37,47,34.91Z"/><path class="cls-2" d="M52.51,40.22s.65,2.53-3.06,2.25c-1.65-.22-1.37-2.14,0-2C49.45,40.44,52,40.6,52.51,40.22Z"/><polygon class="cls-2" points="56.54 30.21 56.98 44.61 60.06 44.61 60.06 40.78 63.2 44.61 67.1 44.61 62.51 39.2 66.6 34.48 62.58 34.48 60 38.13 59.81 30.21 56.54 30.21"/><polygon class="cls-1" points="197.35 0.45 114.8 89.5 224.35 147.75 33.1 147.75 0.28 147.75 0.28 42.81 0.28 0.45 197.35 0.45"/></g></svg>