<svg xmlns="http://www.w3.org/2000/svg" viewBox="0 0 398.4 233.02"><defs><style>.cls-1,.cls-2,.cls-3,.cls-4{fill:none;stroke:#000;stroke-miterlimit:10;}.cls-1{stroke-width:0.75px;}.cls-2{stroke-width:0.5px;}.cls-3{stroke-width:0.25px;}.cls-5{opacity:0.57;}.cls-6{font-size:33px;fill:#fff;}.cls-6,.cls-8{font-family:AppleSDGothicNeo-ExtraBold-KSCpc-EUC-H, Apple SD Gothic Neo;font-weight:700;}.cls-7{letter-spacing:-0.06em;}.cls-8{font-size:12px;}</style></defs><title>map</title><g id="레이어_1" data-name="레이어 1"><g id="레이어_2" data-name="레이어 2"><path class="cls-1" d="M2.8,47.42s16.59,18.7,13,49-8.28,25.39-7.47,35.63,22.45,15.07,25.87,18.51"/><circle class="cls-2" cx="94.99" cy="100.2" r="20.32"/><circle class="cls-2" cx="95.81" cy="96.92" r="7.78"/><circle class="cls-2" cx="95.81" cy="97.51" r="9.15"/><path class="cls-2" d="M78.52,100.2a16.36,16.36,0,0,0,4.33,11.11h24.37a16.48,16.48,0,0,0-1.06-23.26l-.64-.55H84.44A16.43,16.43,0,0,0,78.52,100.2Z"/><path class="cls-2" d="M71.19,62.81s-18.62,30-1.57,54.87S124.73,149,144.4,135.1s18.75-18.42,18.75-18.42L117.31,92.31,158.4,48s1.48-23.67-5-29.4-54.5-6.38-60-2.84S83.12,24.2,80.22,45.3C78.52,55.11,71.19,62.81,71.19,62.81Z"/><path class="cls-1" d="M175.3,5.19S179.59,13,176.71,15,161.1,26.81,164.44,41.48"/><path class="cls-3" d="M92.16,91.27h1.45s-1.88,2.47-1.45,4.44H89.43S90.71,91.27,92.16,91.27Z"/><path class="cls-3" d="M97.75,91.27A4.22,4.22,0,0,1,98.69,93s1.19-.92,1.75-.36-1.67-1.73-1.67-1.73Z"/><path class="cls-3" d="M97.75,21.21s-4.17-2.31-4.14,8.36S89.43,55.7,89.43,55.7,84,63,93.59,61.92s53-1.24,53-1.24l9.07-10.31s-3.2-16.36-3.2-19S152.81,19,144.63,21,97.75,21.21,97.75,21.21Z"/><path class="cls-3" d="M109.69,22.67s-6-1.31-4.73,4.06,0,14.75,0,14.75-2.51,4.11,5.72,3.23,23.14.1,23.14.1,9.43,2.31,7.89-3.46-.44-13.88-.44-13.88.44-5.44-3.84-5S109.69,22.67,109.69,22.67Z"/><rect class="cls-3" x="117.7" y="23.99" width="11.95" height="7.68"/><path class="cls-3" d="M109.69,22.67a12.24,12.24,0,0,0-2.29,9.4c1,5.37,3.89,9.9,9.91,10.46S130.83,44,136.2,38.92s3.49-14.07,1.23-16.39"/><line class="cls-3" x1="89.05" y1="60.96" x2="105.38" y2="44.17"/><line class="cls-3" x1="140.51" y1="44.76" x2="150.89" y2="55.81"/><line class="cls-3" x1="110.39" y1="39" x2="117.7" y2="31.66"/><line class="cls-3" x1="129.65" y1="31.66" x2="136.2" y2="38.92"/><path class="cls-1" d="M41.45,3.26S28.78,10.4,56,9.94c13.31-1,14.09-2.54,12.55-5.38-.22-.41-.49-.84-.78-1.3Z"/><path class="cls-1" d="M2.8,33.93s3.61-7.18,9.67-8,23-4.18,34.7-9.62A72.75,72.75,0,0,1,69.08,10a8.21,8.21,0,0,0,3.17-3.36c1-2.22,36.68-1.18,36.68-1.18l66.37-.24-.84-1.93H2.8Z"/><polygon class="cls-2" points="12.47 35.02 12.99 48.48 15.97 48.48 15.97 43.03 20.5 48.48 24.77 48.48 18.63 41.74 23.61 35.02 20.11 35.02 15.85 40.19 15.71 35.02 12.47 35.02"/><circle class="cls-2" cx="29.74" cy="43.03" r="2.86"/><circle class="cls-2" cx="41.54" cy="42.76" r="2.86"/><circle class="cls-2" cx="29.74" cy="43.03" r="5.31"/><path class="cls-2" d="M46.85,34.62h-3v3.66a5.16,5.16,0,0,0-2.33-.56A5.31,5.31,0,1,0,46.83,43v-.28h0Z"/><path class="cls-2" d="M49.52,37.72v2.17s5.53-1.35,5.37,1.17c0,0-5.21-.77-6.14,1.2s-1,5.32,3.07,5.7,5.7-2.07,5.7-2.07,1.15-5.44-.54-7.24S51.31,37.18,49.52,37.72Z"/><path class="cls-2" d="M55,43s.65,2.53-3.06,2.25c-1.65-.22-1.37-2.14,0-2C52,43.25,54.52,43.41,55,43Z"/><polygon class="cls-2" points="59.05 33.02 59.49 47.41 62.58 47.41 62.58 43.59 65.72 47.41 69.61 47.41 65.03 42.01 69.11 37.28 65.09 37.28 62.52 40.94 62.33 33.02 59.05 33.02"/><polygon class="cls-1" points="199.87 3.25 117.31 92.31 226.87 150.56 35.62 150.56 2.79 150.56 2.79 45.62 2.79 3.25 199.87 3.25"/></g></g><g id="레이어_2-2" data-name="레이어 2"><polygon class="cls-4" points="2.79 151.99 2.79 229.66 192.84 229.66 394.78 229.66 228.9 151.99 2.79 151.99"/><path class="cls-4" d="M192.84,229.66,27.41,152Z"/><polygon class="cls-5" points="228.9 151.99 27.41 151.99 192.84 229.66 394.78 229.66 228.9 151.99"/><text class="cls-6" transform="translate(163.38 176.41) scale(1.06 1)">KOR<tspan x="0" y="27"> </tspan><tspan class="cls-7" x="8.68" y="27">V</tspan><tspan x="27.98" y="27">AN</tspan><tspan x="0" y="54" xml:space="preserve">  NYC</tspan></text><text class="cls-8" transform="translate(10.4 223.23) scale(1.06 1)">my peers</text></g></svg>