<svg id="레이어_1" data-name="레이어 1" xmlns="http://www.w3.org/2000/svg" viewBox="0 0 229.03 129.89"><defs><style>.cls-1,.cls-21,.cls-29,.cls-39,.cls-8{font-size:10px;fill:#231815;font-family:Montserrat-SemiBold, Montserrat;font-weight:700;}.cls-1{letter-spacing:0.16em;}.cls-2{letter-spacing:0.16em;}.cls-3{letter-spacing:0.25em;}.cls-4{letter-spacing:0.16em;}.cls-5{letter-spacing:0.16em;}.cls-6{letter-spacing:0.16em;}.cls-7{letter-spacing:0em;}.cls-8{letter-spacing:-0.03em;}.cls-9{letter-spacing:0.01em;}.cls-10{letter-spacing:0.01em;}.cls-11{letter-spacing:0.01em;}.cls-12{letter-spacing:0.1em;}.cls-13{letter-spacing:0em;}.cls-14{letter-spacing:0.01em;}.cls-15{letter-spacing:0.01em;}.cls-16{letter-spacing:-0.03em;}.cls-17{letter-spacing:0.01em;}.cls-18{letter-spacing:0em;}.cls-19{letter-spacing:0.11em;}.cls-20{letter-spacing:0em;}.cls-21{letter-spacing:0.13em;}.cls-22{letter-spacing:0.12em;}.cls-23{letter-spacing:0.13em;}.cls-24{letter-spacing:0.22em;}.cls-25{letter-spacing:0.13em;}.cls-26{letter-spacing:0.13em;}.cls-27{letter-spacing:0.13em;}.cls-28{letter-spacing:0.13em;}.cls-30{letter-spacing:0.15em;}.cls-31{letter-spacing:0.15em;}.cls-32{letter-spacing:0.24em;}.cls-33{letter-spacing:0.11em;}.cls-34{letter-spacing:0.15em;}.cls-35{letter-spacing:0.14em;}.cls-36{letter-spacing:0.15em;}.cls-37{letter-spacing:0.11em;}.cls-38{letter-spacing:0.15em;}.cls-39{letter-spacing:0.21em;}.cls-40{letter-spacing:0.2em;}.cls-41{letter-spacing:0.21em;}.cls-42{letter-spacing:0.3em;}.cls-43{letter-spacing:0.17em;}.cls-44{letter-spacing:0.21em;}.cls-45{letter-spacing:0.2em;}.cls-46{letter-spacing:0.21em;}.cls-47{letter-spacing:0.16em;}.cls-48{letter-spacing:0.21em;}.cls-49{letter-spacing:0.21em;}.cls-50{letter-spacing:0.21em;}.cls-51{letter-spacing:0.3em;}.cls-52{letter-spacing:0.2em;}.cls-53{letter-spacing:0.21em;}.cls-54{letter-spacing:0.16em;}.cls-55{letter-spacing:0.3em;}.cls-56{letter-spacing:0.2em;}.cls-57{letter-spacing:0.05em;}.cls-58{letter-spacing:0.09em;}.cls-59{letter-spacing:0.09em;}.cls-60{letter-spacing:0.19em;}.cls-61{letter-spacing:0.09em;}.cls-62{letter-spacing:0.08em;}.cls-63{letter-spacing:0.09em;}.cls-64{letter-spacing:0.18em;}.cls-65{letter-spacing:0.09em;}.cls-66{letter-spacing:0.09em;}.cls-67{letter-spacing:0.19em;}.cls-68{letter-spacing:0.01em;}.cls-69{letter-spacing:0.01em;}.cls-70{letter-spacing:0.01em;}.cls-71{letter-spacing:0.1em;}.cls-72{letter-spacing:0.01em;}.cls-73{letter-spacing:-0.03em;}.cls-74{letter-spacing:0.23em;}.cls-75{letter-spacing:0.24em;}.cls-76{letter-spacing:0.24em;}.cls-77{letter-spacing:0.2em;}.cls-78{letter-spacing:0.24em;}.cls-79{letter-spacing:0.33em;}.cls-80{letter-spacing:0.23em;}.cls-81{letter-spacing:-0.04em;}.cls-82{letter-spacing:-0.01em;}</style></defs><title>대지 1</title><text class="cls-1" transform="translate(0 7.93)">DDONGGUE<tspan class="cls-2" x="75.79" y="0">L</tspan><tspan class="cls-3" x="83.36" y="0"> </tspan><tspan x="88.62" y="0">DDOR</tspan><tspan class="cls-4" x="127.23" y="0">A</tspan><tspan class="cls-5" x="136.3" y="0">EE</tspan><tspan class="cls-3" x="152.88" y="0"> </tspan><tspan class="cls-6" x="158.14" y="0">DDONGGEU</tspan><tspan class="cls-7" x="233.93" y="0">L </tspan></text><text class="cls-8" transform="translate(0 19.93)">Y<tspan class="cls-9" x="6.34" y="0">AN</tspan><tspan class="cls-10" x="22.19" y="0">GG</tspan><tspan class="cls-9" x="37.91" y="0">AN</tspan><tspan class="cls-11" x="53.76" y="0">G</tspan><tspan class="cls-12" x="61.62" y="0"> </tspan><tspan class="cls-13" x="65.43" y="0">D</tspan><tspan class="cls-9" x="73.73" y="0">AL</tspan><tspan class="cls-14" x="87.47" y="0">I</tspan><tspan class="cls-15" x="90.8" y="0">N</tspan><tspan class="cls-16" x="99.03" y="0">Y</tspan><tspan class="cls-15" x="105.37" y="0">AN</tspan><tspan class="cls-11" x="121.22" y="0">G</tspan><tspan class="cls-12" x="129.08" y="0"> </tspan><tspan class="cls-17" x="132.89" y="0">H</tspan><tspan class="cls-18" x="141.12" y="0">Y</tspan><tspan class="cls-15" x="147.77" y="0">E</tspan><tspan class="cls-11" x="154.6" y="0">I</tspan><tspan class="cls-17" x="157.93" y="0">NAN</tspan><tspan class="cls-14" x="182.01" y="0">G</tspan><tspan class="cls-19" x="189.87" y="0"> </tspan><tspan class="cls-16" x="193.68" y="0">Y</tspan><tspan class="cls-15" x="200.02" y="0">A</tspan><tspan class="cls-14" x="207.64" y="0">NGS</tspan><tspan class="cls-15" x="230.17" y="0">S</tspan><tspan class="cls-20" x="236.59" y="0">I </tspan></text><text class="cls-21" transform="translate(0 31.93)">H<tspan class="cls-22" x="9.4" y="0">Y</tspan><tspan x="17.21" y="0">E</tspan><tspan class="cls-23" x="25.21" y="0">N</tspan><tspan class="cls-24" x="34.6" y="0"> </tspan><tspan class="cls-23" x="39.57" y="0">H</tspan><tspan class="cls-25" x="48.96" y="0">EN</tspan><tspan class="cls-26" x="66.36" y="0">N</tspan><tspan class="cls-27" x="75.75" y="0">I</tspan><tspan class="cls-26" x="80.24" y="0">E</tspan><tspan class="cls-24" x="88.23" y="0"> </tspan><tspan class="cls-27" x="93.2" y="0">DD</tspan><tspan class="cls-23" x="112.32" y="0">O</tspan><tspan class="cls-28" x="122.03" y="0">NGGUE</tspan><tspan class="cls-23" x="166.66" y="0">L</tspan><tspan class="cls-24" x="173.94" y="0"> </tspan><tspan x="178.91" y="0">DD</tspan><tspan class="cls-23" x="198.03" y="0">O</tspan><tspan class="cls-28" x="207.74" y="0">RA</tspan><tspan class="cls-23" x="225.14" y="0">E</tspan><tspan class="cls-7" x="233.13" y="0">E </tspan></text><text class="cls-29" transform="translate(0 43.93)"><tspan class="cls-30">DDO</tspan><tspan class="cls-31" x="29.44" y="0">N</tspan><tspan class="cls-30" x="39.05" y="0">GGEUL</tspan><tspan class="cls-32" x="82.57" y="0"> </tspan><tspan class="cls-33" x="87.75" y="0">Y</tspan><tspan class="cls-34" x="95.44" y="0">ANGGANG</tspan><tspan class="cls-32" x="160.28" y="0"> </tspan><tspan class="cls-35" x="165.46" y="0">D</tspan><tspan class="cls-36" x="175.12" y="0">ALIN</tspan><tspan class="cls-37" x="205.89" y="0">Y</tspan><tspan class="cls-31" x="213.58" y="0">A</tspan><tspan class="cls-38" x="222.58" y="0">N</tspan><tspan x="232.18" y="0">G </tspan></text><text class="cls-39" transform="translate(0 55.93)">H<tspan class="cls-40" x="10.23" y="0">Y</tspan><tspan x="18.86" y="0">EIN</tspan><tspan class="cls-41" x="43.24" y="0">AN</tspan><tspan x="63.07" y="0">G</tspan><tspan class="cls-42" x="72.92" y="0"> </tspan><tspan class="cls-43" x="78.72" y="0">Y</tspan><tspan class="cls-44" x="87.03" y="0">ANG</tspan><tspan class="cls-41" x="116.73" y="0">S</tspan><tspan x="125.14" y="0">SI</tspan><tspan class="cls-42" x="138.88" y="0"> </tspan><tspan x="144.68" y="0">H</tspan><tspan class="cls-45" x="154.91" y="0">Y</tspan><tspan x="163.54" y="0">E</tspan><tspan class="cls-41" x="172.37" y="0">N</tspan><tspan class="cls-42" x="182.59" y="0"> </tspan><tspan class="cls-46" x="188.39" y="0">HEN</tspan><tspan x="217.65" y="0">NI</tspan><tspan class="cls-7" x="233.2" y="0">E </tspan></text><text class="cls-1" transform="translate(0 67.93)">DDONGGUE<tspan class="cls-2" x="75.79" y="0">L</tspan><tspan class="cls-3" x="83.36" y="0"> </tspan><tspan x="88.62" y="0">DDOR</tspan><tspan class="cls-4" x="127.23" y="0">A</tspan><tspan class="cls-5" x="136.3" y="0">EE</tspan><tspan class="cls-3" x="152.88" y="0"> </tspan><tspan class="cls-6" x="158.14" y="0">DDONGGEU</tspan><tspan class="cls-7" x="233.93" y="0">L </tspan></text><text class="cls-29" transform="translate(0 79.93)"><tspan class="cls-47">Y</tspan><tspan class="cls-48" x="8.25" y="0">A</tspan><tspan class="cls-49" x="17.81" y="0">N</tspan><tspan class="cls-48" x="27.97" y="0">GG</tspan><tspan class="cls-50" x="47.55" y="0">AN</tspan><tspan class="cls-48" x="67.26" y="0">G</tspan><tspan class="cls-51" x="77.05" y="0"> </tspan><tspan class="cls-52" x="82.79" y="0">D</tspan><tspan class="cls-50" x="93.01" y="0">AL</tspan><tspan class="cls-53" x="110.61" y="0">I</tspan><tspan class="cls-50" x="115.87" y="0">N</tspan><tspan class="cls-54" x="126.03" y="0">Y</tspan><tspan class="cls-49" x="134.28" y="0">AN</tspan><tspan class="cls-48" x="153.99" y="0">G</tspan><tspan class="cls-55" x="163.78" y="0"> </tspan><tspan class="cls-48" x="169.52" y="0">H</tspan><tspan class="cls-56" x="179.69" y="0">Y</tspan><tspan class="cls-48" x="188.26" y="0">EINAN</tspan><tspan x="232.19" y="0">G </tspan></text><text class="cls-29" transform="translate(18 91.93)"><tspan class="cls-57">Y</tspan><tspan class="cls-58" x="7.13" y="0">A</tspan><tspan class="cls-59" x="15.55" y="0">NGS</tspan><tspan class="cls-58" x="40.48" y="0">S</tspan><tspan class="cls-59" x="47.7" y="0">I</tspan><tspan class="cls-60" x="51.83" y="0"> </tspan><tspan class="cls-61" x="56.44" y="0">H</tspan><tspan class="cls-62" x="65.47" y="0">Y</tspan><tspan class="cls-63" x="72.92" y="0">E</tspan><tspan class="cls-58" x="80.56" y="0">N</tspan><tspan class="cls-64" x="89.59" y="0"> </tspan><tspan class="cls-65" x="94.2" y="0">H</tspan><tspan class="cls-61" x="103.24" y="0">E</tspan><tspan class="cls-65" x="110.87" y="0">N</tspan><tspan class="cls-66" x="119.91" y="0">N</tspan><tspan class="cls-65" x="128.94" y="0">IE</tspan><tspan class="cls-67" x="140.71" y="0"> </tspan><tspan class="cls-65" x="145.32" y="0">DDO</tspan><tspan class="cls-66" x="173.08" y="0">N</tspan><tspan class="cls-63" x="182.11" y="0">GGUE</tspan><tspan x="215.9" y="0">L </tspan></text><text class="cls-29" transform="translate(47 103.93)"><tspan class="cls-68">DDOR</tspan><tspan class="cls-69" x="32.73" y="0">A</tspan><tspan class="cls-70" x="40.33" y="0">EE</tspan><tspan class="cls-71" x="53.97" y="0"> </tspan><tspan class="cls-68" x="57.76" y="0">DD</tspan><tspan class="cls-69" x="74.52" y="0">ON</tspan><tspan class="cls-68" x="91.26" y="0">GG</tspan><tspan class="cls-72" x="106.94" y="0">E</tspan><tspan class="cls-68" x="113.75" y="0">U</tspan><tspan class="cls-69" x="121.76" y="0">L</tspan><tspan class="cls-71" x="127.86" y="0"> </tspan><tspan class="cls-73" x="131.65" y="0">Y</tspan><tspan class="cls-68" x="137.96" y="0">A</tspan><tspan class="cls-69" x="145.57" y="0">N</tspan><tspan class="cls-68" x="153.78" y="0">GG</tspan><tspan class="cls-72" x="169.46" y="0">AN</tspan><tspan x="185.27" y="0">G </tspan></text><text class="cls-29" transform="translate(77 115.93)"><tspan class="cls-74">D</tspan><tspan class="cls-75" x="10.57" y="0">ALI</tspan><tspan class="cls-76" x="34.47" y="0">N</tspan><tspan class="cls-77" x="44.97" y="0">Y</tspan><tspan class="cls-78" x="53.57" y="0">A</tspan><tspan class="cls-76" x="63.47" y="0">N</tspan><tspan class="cls-75" x="73.97" y="0">G</tspan><tspan class="cls-79" x="84.1" y="0"> </tspan><tspan class="cls-75" x="90.18" y="0">H</tspan><tspan class="cls-80" x="100.69" y="0">Y</tspan><tspan class="cls-76" x="109.61" y="0">E</tspan><tspan class="cls-75" x="118.71" y="0">I</tspan><tspan class="cls-76" x="124.31" y="0">N</tspan><tspan class="cls-78" x="134.81" y="0">AN</tspan><tspan x="155.22" y="0">G </tspan></text><text class="cls-29" transform="translate(106 127.93)"><tspan class="cls-81">Y</tspan><tspan class="cls-7" x="6.2" y="0">ANGSSI H</tspan><tspan class="cls-82" x="56.14" y="0">Y</tspan><tspan x="62.65" y="0">EN HENNIE </tspan></text></svg>