<svg id="레이어_1" data-name="레이어 1" xmlns="http://www.w3.org/2000/svg" viewBox="0 0 503.89 905.88"><defs><style>.cls-1,.cls-2{stroke:#000;stroke-miterlimit:10;}.cls-2{fill:none;}</style></defs><title>profile</title><path class="cls-1" d="M.94,882.85v-801h502v801ZM438.62,552.23c.4-.58.79-1.16,1.19-1.73-2.39-3-4.4-6.51-7.25-9-6.6-5.78-8.2-12.93-5.93-20.82a278,278,0,0,1,9.68-28.79c6.31-15.41,9.31-31.22,7.84-47.81-2.47-27.85-8.13-55-19.25-80.73a108,108,0,0,0-15.45-25.44c-10.33-12.57-22-24-33-36.08-3.45-3.8-6.5-8-9.56-12.11-7.44-10-14.41-20.42-22.22-30.15-11.71-14.6-24.29-28.5-41.07-37.5-17.95-9.61-36.67-17.5-56.68-21.71-24.87-5.23-48.76-4.51-69.34,13.3-1,.83-3,.61-4.5.58-10.09-.2-20.42-2-30.23-.47-32.7,5.12-56.62,23-70.94,53C54.12,304,45.74,343.47,45.84,384.68a65.18,65.18,0,0,0,2.92,17.52c5.17,17.92,7.94,36.05,6.51,54.74a249.32,249.32,0,0,0,1.85,57.32C60,533,66.51,549.89,78.64,565c14.76,18.43,28.06,38,41.8,57.28A37.14,37.14,0,0,1,126,633.39c4.19,14.61,7.17,29.4,2,45.81,5.82.79,11,2.31,16.1,2,11.55-.64,19.39-8,26.2-16.5,2-2.47,3.51-5.37,5.81-7.45,9-8.14,13.47-20.23,23.78-27.22a7.07,7.07,0,0,0,1-1.17c10.77,4.29,21.57,8.44,33.4,4.71s18.17-13.18,23.95-24.59c1.49,4.57,2.57,8,3.73,11.39,2.2,6.39,4.79,8.43,11.21,6.69,9-2.43,17.61-6,26.49-8.7a9.58,9.58,0,0,1,6.39.21c13.78,6.57,27.57,11.1,42.1,2,9.59,17.3,25.12,24.59,43.43,27,8.31,1.11,16.66.86,24.28-3.53,3.85-2.22,6.17-5.09,4-9.86-7.07-1.09-14.12-2.18-17.72-10.16,14.24-1.84,27.69-5.14,38.36-14.19,6.85-5.8,12.62-13.15,17.75-20.59,3.63-5.26.4-9.34-6.12-8.88-2.64.18-5.28,1.23-7.87,1-3.68-.24-7.82-.36-10.86-2.11-7.05-4.07-13.19-20.84-11.49-29.05Z"/><path class="cls-2" d="M132.71,410.1c-7.84,9.42-8.09,18.75-1.52,28,5.23,7.38,12.53,11.11,21.65,9.28,9.95-2,13.91-9.36,15.17-20.45l9,10.7,1.45-.22c-.69-3.46-.53-7.43-2.23-10.28-4.8-8.07-6.43-17-8.85-25.83a12.12,12.12,0,0,0-5-6.73c-5.73-3.25-11.74-5.61-15.63-11.67-1.65-2.56-5.59-4.32-8.81-5.1-9.95-2.4-20.11-3.09-30.16-.43-3.34.88-5.5.14-6.94-2.89-2.92-6.12-6.48-12.06-8.41-18.48-.87-2.89.92-7.13,2.59-10.15,6.29-11.32,16.38-19.08,26.3-27,10.26-8.18,20.91-16,30.23-25.19,6.67-6.57,13.18-5.42,20.05-2.72,10.13,4,20.28,7.11,31.25,7.95,11.72.91,23.55,2,35,4.44a122.65,122.65,0,0,1,54.29,27.25c23.59,20.19,41.3,45,56.82,71.61,2.51,4.31,2.73,7.74-.78,11.65-7.77,8.66-11.71,19-15.61,30.07-7.34,20.77-13.09,42.52-25.7,61.05-9,13.16-18.34,26.08-32.4,34.71-5.9,3.62-10.89,8.71-16.68,12.54-9.73,6.43-20.25,7.6-31.48,3.94-12.28-4-24.93-7-37-11.53-6.2-2.34-11.82-6.71-17.06-11-11.29-9.14-18.7-21.5-26.34-33.6-6-9.42-12.3-18.63-17.83-28.3-3.43-6-5.69-12.67-8.43-19.06-.79-1.83-1.08-3.94-2.15-5.55-2.7-4-3.85-7.84-1.16-12.53.89-1.54,0-4.2-.31-6.32C114.62,417.79,121.41,409.91,132.71,410.1ZM263,382.17c17.11-4.34,26.71,4.84,34.07,16.61,2.5-1.88,4.38-3.12,6.05-4.59s3.09-3.14,4.62-4.72l-.95-.82L300,389.76c1.71-2.64,3-4.57,4.49-6.95l-8.64.59,3.58-6-8,1.29V376c-6.37,0-12.47-.3-18.53.09a79.4,79.4,0,0,0-15.75,2.31c-18.43,5-29.92,19.74-29.92,37.77,0,3.77.22,7.59,4.93,10.53.21-3.6.25-6.49.57-9.35a67.32,67.32,0,0,1,1.45-8.36c.65-2.69,1.64-5.3,2.48-7.94,1.83,14.83,9.64,24.08,21.84,25.27,10.06,1,20.2-6,22.83-15.7C284.54,398.89,278.66,389.36,263,382.17Zm-9.53,134,.34-1.88c-4.59-.82-9.18-2.29-13.78-2.32-10.95-.08-21.93.26-32.86.95-6.89.44-13.62,2.33-18.57,7.54-1.43,1.5-2.75,5.18-1.94,6.38,4.35,6.41,9.68,12,18.11,12.78A69.25,69.25,0,0,0,239,534.11c6.42-2.75,8.93-8.63,12.05-14.38-13.72,6.25-26.92,14.1-42.45,8.44l-.48-2.28Zm34.74-161.9,0-2.29c-5.69-4.18-12.36-5.75-19.34-6.27-20.46-1.54-38.59,5.46-55.83,15.53-1.55.91-3.48,2.06-4,3.55-1,2.74-2.24,6.17-1.43,8.67,1.18,3.62,5.18,4.1,8.53,2.88a66.63,66.63,0,0,0,13.12-5.93c15.39-9.72,31.4-16.72,50.25-14.54C282.3,356.17,285.32,354.82,288.25,354.24ZM185.4,489.89a17.5,17.5,0,0,0,17.21,11.77c7.48-.34,13.83-3.53,19.3-8.27,1.79-1.54,2.71-4.43,3.29-6.87.28-1.18-1.13-2.77-1.78-4.17-1.11.81-2.64,1.39-3.25,2.48-3.49,6.22-9,9-15.77,10C197.35,496,190.93,495,185.4,489.89Z"/><path class="cls-2" d="M137.67,426.91c-2.25-3.3-4.37-5.13-4.55-7.14-.11-1.19,3.21-4,4.35-3.69a7.64,7.64,0,0,1,4.6,4.63C142.41,421.88,140,423.85,137.67,426.91Z"/><path class="cls-2" d="M124,404.69l-13.91,6.79C110.17,405.29,116,402.47,124,404.69Z"/><path class="cls-2" d="M155.73,440.67l6.85-6.83C163.08,440.73,161.53,442.37,155.73,440.67Z"/><path class="cls-2" d="M263,382.17c15.62,7.19,21.5,16.72,18.34,28.45-2.63,9.71-12.77,16.69-22.83,15.7-12.2-1.19-20-10.44-21.84-25.27-.84,2.64-1.83,5.25-2.48,7.94a67.32,67.32,0,0,0-1.45,8.36c-.32,2.86-.36,5.75-.57,9.35-4.71-2.94-4.93-6.76-4.93-10.53,0-18,11.49-32.73,29.92-37.77A79.4,79.4,0,0,1,273,376.09c6.06-.39,12.16-.09,18.53-.09v2.7l8-1.29-3.58,6,8.64-.59c-1.53,2.38-2.78,4.31-4.49,6.95l6.82-1.11.95.82c-1.53,1.58-3,3.27-4.62,4.72s-3.55,2.71-6.05,4.59C289.75,387,280.15,377.83,263,382.17Zm-13.13,22.32c2.13-3.16,4.67-5.35,4.29-6.74-.55-2-3.23-3.38-5-5-1.55,1.83-4.07,3.52-4.34,5.53C244.65,399.7,247.41,401.57,249.91,404.49ZM268.26,418c2,1.28,3.36,2.41,3.56,2.24,1.89-1.68,3.58-3.57,5.33-5.4-.76-.68-2-2.08-2.19-1.94C272.91,414.22,271,415.81,268.26,418Z"/><path class="cls-2" d="M253.51,516.14l-45.41,9.75.48,2.28c15.53,5.66,28.73-2.19,42.45-8.44-3.12,5.75-5.63,11.63-12.05,14.38a69.25,69.25,0,0,1-34.17,5.48c-8.43-.79-13.76-6.37-18.11-12.78-.81-1.2.51-4.88,1.94-6.38,5-5.21,11.68-7.1,18.57-7.54,10.93-.69,21.91-1,32.86-.95,4.6,0,9.19,1.5,13.78,2.32Z"/><path class="cls-2" d="M288.25,354.24c-2.93.58-5.95,1.93-8.77,1.6-18.85-2.18-34.86,4.82-50.25,14.54a66.63,66.63,0,0,1-13.12,5.93c-3.35,1.22-7.35.74-8.53-2.88-.81-2.5.4-5.93,1.43-8.67.56-1.49,2.49-2.64,4-3.55,17.24-10.07,35.37-17.07,55.83-15.53,7,.52,13.65,2.09,19.34,6.27Z"/><path class="cls-2" d="M185.4,489.89c5.53,5.07,11.95,6.09,19,5,6.76-1.06,12.28-3.81,15.77-10,.61-1.09,2.14-1.67,3.25-2.48.65,1.4,2.06,3,1.78,4.17-.58,2.44-1.5,5.33-3.29,6.87-5.47,4.74-11.82,7.93-19.3,8.27A17.5,17.5,0,0,1,185.4,489.89Z"/><path class="cls-2" d="M249.91,404.49c-2.5-2.92-5.26-4.79-5-6.24.27-2,2.79-3.7,4.34-5.53,1.77,1.65,4.45,3,5,5C254.58,399.14,252,401.33,249.91,404.49Z"/><path class="cls-2" d="M268.26,418c2.76-2.18,4.65-3.77,6.7-5.1.21-.14,1.43,1.26,2.19,1.94-1.75,1.83-3.44,3.72-5.33,5.4C271.62,420.4,270.26,419.27,268.26,418Z"/><rect class="cls-1" x="-5.48" y="-3.71" width="556.36" height="119.11"/><rect class="cls-1" x="-24.33" y="797.82" width="556.36" height="119.11"/></svg>