<svg id="레이어_1" data-name="레이어 1" xmlns="http://www.w3.org/2000/svg" viewBox="0 0 228.45 228.37"><defs><style>.cls-1,.cls-33{font-size:12px;}.cls-1,.cls-27,.cls-35,.cls-36,.cls-37,.cls-42,.cls-49,.cls-78{fill:#231815;}.cls-1{font-family:Montserrat-Medium, Montserrat;}.cls-2{letter-spacing:-0.04em;}.cls-3{fill:none;stroke:#231815;}.cls-4{letter-spacing:0em;}.cls-5{letter-spacing:-0.01em;}.cls-6{letter-spacing:-0.01em;}.cls-7{letter-spacing:0em;}.cls-8{letter-spacing:-0.01em;}.cls-9{letter-spacing:-0.02em;}.cls-10{letter-spacing:0em;}.cls-11{letter-spacing:0em;}.cls-12{letter-spacing:-0.02em;}.cls-13{letter-spacing:0em;}.cls-14{letter-spacing:-0.03em;}.cls-15{letter-spacing:0em;}.cls-16{letter-spacing:-0.01em;}.cls-17{letter-spacing:-0.01em;}.cls-18{letter-spacing:0em;}.cls-19{letter-spacing:-0.01em;}.cls-20{letter-spacing:-0.01em;}.cls-21{letter-spacing:0.01em;}.cls-22{letter-spacing:-0.01em;}.cls-23{letter-spacing:0em;}.cls-24{letter-spacing:0.08em;}.cls-25{letter-spacing:-0.01em;}.cls-26{letter-spacing:-0.2em;}.cls-28{font-size:10px;}.cls-28,.cls-33{fill:#fff;}.cls-28,.cls-33,.cls-37,.cls-42,.cls-49{font-family:Montserrat-Thin, Montserrat;}.cls-29{letter-spacing:-0.01em;}.cls-30{letter-spacing:-0.01em;}.cls-31{letter-spacing:-0.01em;}.cls-32{letter-spacing:-0.02em;}.cls-34{letter-spacing:-0.02em;}.cls-35,.cls-36,.cls-37,.cls-42,.cls-49,.cls-78{font-size:6px;}.cls-35{font-family:AppleMyungjo, AppleMyungjo;}.cls-36{font-family:AdobeMyungjoStd-Medium-KSCpc-EUC-H, Adobe Myungjo Std;}.cls-38{letter-spacing:0.03em;}.cls-39{letter-spacing:0.02em;}.cls-40{letter-spacing:0.03em;}.cls-41{letter-spacing:0.03em;}.cls-42{letter-spacing:0.16em;}.cls-43{letter-spacing:0.16em;}.cls-44{letter-spacing:0.08em;}.cls-45{letter-spacing:0.07em;}.cls-46{letter-spacing:0.08em;}.cls-47{letter-spacing:0.08em;}.cls-48{letter-spacing:0em;}.cls-49{letter-spacing:0.95em;}.cls-50{letter-spacing:0.93em;}.cls-51{letter-spacing:0.96em;}.cls-52{letter-spacing:1.27em;}.cls-53{letter-spacing:1.19em;}.cls-54{letter-spacing:-0.02em;}.cls-55{letter-spacing:-0.02em;}.cls-56{letter-spacing:-0.01em;}.cls-57{letter-spacing:0em;}.cls-58{letter-spacing:0.42em;}.cls-59{letter-spacing:0.4em;}.cls-60{letter-spacing:0.4em;}.cls-61{letter-spacing:0.39em;}.cls-62{letter-spacing:0.48em;}.cls-63{letter-spacing:1.4em;}.cls-64{letter-spacing:1.38em;}.cls-65{letter-spacing:1.39em;}.cls-66{letter-spacing:1.38em;}.cls-67{letter-spacing:1.4em;}.cls-68{letter-spacing:2.33em;}.cls-69{letter-spacing:2.33em;}.cls-70{letter-spacing:2.33em;}.cls-71{letter-spacing:0em;}.cls-72{letter-spacing:0.08em;}.cls-73{letter-spacing:-0.02em;}.cls-74{letter-spacing:-0.01em;}.cls-75{letter-spacing:0em;}.cls-76{letter-spacing:-0.01em;}.cls-77{letter-spacing:0.08em;}.cls-78{font-family:Montserrat-Light, Montserrat;}.cls-79{letter-spacing:3.25em;}.cls-80{letter-spacing:3.25em;}.cls-81{letter-spacing:3.33em;}.cls-82{letter-spacing:2.15em;}.cls-83{letter-spacing:2.15em;}.cls-84{letter-spacing:2.15em;}.cls-85{letter-spacing:2.12em;}</style></defs><title>sqr</title><text class="cls-1" transform="translate(184.88 183.08)"><tspan xml:space="preserve">*       *  </tspan></text><text class="cls-1" transform="translate(198.89 197.48)"><tspan xml:space="preserve">*     * </tspan></text><text class="cls-1" transform="translate(212.89 211.88)">*<tspan class="cls-2" x="4.8" y="0"> </tspan><tspan x="7.54" y="0"> </tspan></text><rect class="cls-3" x="1.99" y="0.5" width="225.95" height="225.35"/><polyline class="cls-3" points="1.49 0 228.45 226.35 85.62 226.35 85.62 86.96"/><text class="cls-1" transform="translate(12.85 10.28)"><tspan class="cls-4">A</tspan><tspan class="cls-5" x="8.74" y="0">c</tspan><tspan class="cls-6" x="15.49" y="0">c</tspan><tspan x="22.26" y="0">omplish</tspan><tspan class="cls-7" x="71.63" y="0">m</tspan><tspan x="84.35" y="0">ent I am p</tspan><tspan class="cls-8" x="146.28" y="0">r</tspan><tspan x="151.05" y="0">oud of :</tspan></text><text class="cls-1" transform="translate(41.85 39.08)">a<tspan class="cls-8" x="7.18" y="0">t</tspan><tspan class="cls-9" x="12" y="0">t</tspan><tspan x="16.76" y="0">e</tspan><tspan class="cls-10" x="24.11" y="0">n</tspan><tspan x="32.32" y="0">di</tspan><tspan class="cls-10" x="43.85" y="0">n</tspan><tspan class="cls-11" x="52.06" y="0">g </tspan><tspan class="cls-12" x="63.56" y="0">P</tspan><tspan x="72.05" y="0">a</tspan><tspan class="cls-13" x="79.22" y="0">r</tspan><tspan x="84.12" y="0">sons </tspan><tspan class="cls-14" x="115.16" y="0">w</tspan><tspan class="cls-15" x="125.59" y="0">/ s</tspan><tspan class="cls-16" x="139.05" y="0">c</tspan><tspan class="cls-10" x="145.83" y="0">h</tspan><tspan x="154.04" y="0">ola</tspan><tspan class="cls-17" x="172.19" y="0">r</tspan><tspan x="177" y="0">-</tspan></text><text class="cls-1" transform="translate(55.86 53.48)">shipn, livi<tspan class="cls-18" x="56.59" y="0">n</tspan><tspan x="64.79" y="0">g a good li</tspan><tspan class="cls-19" x="128.33" y="0">f</tspan><tspan class="cls-15" x="132.47" y="0">e I </tspan></text><text class="cls-1" transform="translate(69.86 67.88)">guess</text><text class="cls-1" transform="translate(84.86 82.28)">. . . :-) h<tspan class="cls-20" x="40.63" y="0">a</tspan><tspan x="47.69" y="0">vi</tspan><tspan class="cls-10" x="57.74" y="0">n</tspan><tspan class="cls-11" x="65.95" y="0">g a</tspan><tspan class="cls-10" x="84.63" y="0">n</tspan><tspan x="92.84" y="0">d get </tspan></text><text class="cls-1" transform="translate(98.87 96.68)"><tspan class="cls-9">t</tspan><tspan x="4.76" y="0">o </tspan><tspan class="cls-16" x="15.61" y="0">k</tspan><tspan x="22.93" y="0">n</tspan><tspan class="cls-21" x="31.1" y="0">-</tspan><tspan class="cls-22" x="35.81" y="0">o</tspan><tspan class="cls-11" x="43.25" y="0">w amazi</tspan><tspan class="cls-23" x="93.9" y="0">n</tspan><tspan x="102.09" y="0">g </tspan></text><text class="cls-1" transform="translate(112.87 111.08)">people a<tspan class="cls-10" x="52.43" y="0">n</tspan><tspan x="60.64" y="0">d </tspan></text><text class="cls-1" transform="translate(127.87 125.48)"><tspan class="cls-24">f</tspan><tspan class="cls-16" x="5.18" y="0">r</tspan><tspan x="10.03" y="0">ie</tspan><tspan class="cls-18" x="20.72" y="0">n</tspan><tspan x="28.92" y="0">ds, a</tspan><tspan class="cls-18" x="56.24" y="0">n</tspan><tspan x="64.44" y="0">d </tspan></text><text class="cls-1" transform="translate(141.87 139.88)"><tspan class="cls-25">f</tspan><tspan x="4.13" y="0">amily a</tspan><tspan class="cls-8" x="47.79" y="0">r</tspan><tspan x="52.57" y="0">ou</tspan><tspan class="cls-23" x="68.32" y="0">n</tspan><tspan class="cls-15" x="76.51" y="0">d </tspan></text><text class="cls-1" transform="translate(155.88 154.28)"><tspan class="cls-10">m</tspan><tspan x="12.72" y="0">e . . </tspan></text><text class="cls-1" transform="translate(169.88 168.68)"><tspan xml:space="preserve">*       *     *</tspan><tspan class="cls-26" x="53.14" y="0" xml:space="preserve">    </tspan><tspan class="cls-15" x="56.25" y="0"> </tspan></text><polygon class="cls-27" points="1.85 0.79 2.56 226.85 84.76 226.85 86.18 85.83 1.85 0.79"/><text class="cls-28" transform="translate(16.59 222.43) rotate(-90)">I h<tspan class="cls-29" x="12.04" y="0">a</tspan><tspan class="cls-30" x="17.69" y="0">v</tspan><tspan x="22.63" y="0">e n</tspan><tspan class="cls-31" x="37.68" y="0">e</tspan><tspan class="cls-32" x="43.46" y="0">v</tspan><tspan x="48.39" y="0">er:</tspan></text><text class="cls-33" transform="translate(31.69 222.43) rotate(-90)">juul or smo<tspan class="cls-34" x="65.6" y="0">k</tspan><tspan x="72.2" y="0">e</tspan></text><text class="cls-35" transform="translate(85.33 96.19)">☆</text><text class="cls-35" transform="translate(85.33 103.39)">★</text><text class="cls-36" transform="translate(85.33 110.8)">☆</text><text class="cls-36" transform="translate(85.33 118)">-</text><text class="cls-37" transform="translate(90.52 117.82)"><tspan class="cls-38">w</tspan><tspan class="cls-39" x="5.21" y="0">r</tspan><tspan class="cls-40" x="7.64" y="0">iti</tspan><tspan class="cls-41" x="13.54" y="0">n</tspan><tspan x="17.74" y="0">g </tspan></text><text class="cls-42" transform="translate(85.33 125.02)"> <tspan class="cls-43" x="2.48" y="0"> </tspan><tspan x="4.96" y="0"> </tspan><tspan class="cls-44" x="7.45" y="0">jou</tspan><tspan class="cls-45" x="18.08" y="0">r</tspan><tspan class="cls-46" x="20.8" y="0">na</tspan><tspan class="cls-47" x="29.23" y="0">l</tspan><tspan class="cls-48" x="31.21" y="0">s </tspan></text><text class="cls-36" transform="translate(85.33 132.4)">-</text><text class="cls-37" transform="translate(127.32 132.22)"> </text><text class="cls-37" transform="translate(127.32 132.22)"> </text><text class="cls-37" transform="translate(127.32 132.22)"> </text><text class="cls-37" transform="translate(123.26 132.22)">g</text><text class="cls-37" transform="translate(116.2 132.22)">n</text><text class="cls-37" transform="translate(111.65 132.22)">i</text><text class="cls-37" transform="translate(105.24 132.22)">k</text><text class="cls-37" transform="translate(98.75 132.22)">a</text><text class="cls-37" transform="translate(93.38 132.22)">t</text><text class="cls-49" transform="translate(85.33 139.42)">pho<tspan class="cls-50" x="28.88" y="0">t</tspan><tspan class="cls-51" x="36.82" y="0">o</tspan><tspan class="cls-48" x="46.21" y="0">s</tspan></text><text class="cls-36" transform="translate(85.33 146.8)">-</text><text class="cls-37" transform="translate(141.34 146.62)"> </text><text class="cls-37" transform="translate(141.34 146.62)"> </text><text class="cls-37" transform="translate(141.34 146.62)"> </text><text class="cls-37" transform="translate(141.34 146.62)"> </text><text class="cls-37" transform="translate(141.34 146.62)"> </text><text class="cls-37" transform="translate(137.82 146.62)">e</text><text class="cls-37" transform="translate(134.43 146.62)">c</text><text class="cls-37" transform="translate(130.8 146.62)">a</text><text class="cls-37" transform="translate(129.11 146.62)">l</text><text class="cls-37" transform="translate(124.9 146.62)">p</text><text class="cls-37" transform="translate(122.73 146.62)"> </text><text class="cls-37" transform="translate(118.52 146.62)">d</text><text class="cls-37" transform="translate(114.67 146.62)">o</text><text class="cls-37" transform="translate(110.83 146.62)">o</text><text class="cls-37" transform="translate(108.84 146.62)">f</text><text class="cls-37" transform="translate(106.66 146.62)"> </text><text class="cls-37" transform="translate(102.45 146.62)">d</text><text class="cls-37" transform="translate(98.6 146.62)">o</text><text class="cls-37" transform="translate(94.76 146.62)">o</text><text class="cls-37" transform="translate(90.51 146.62)">g</text><text class="cls-37" transform="translate(85.33 153.82)"><tspan class="cls-52" xml:space="preserve">   </tspan><tspan class="cls-53" x="27.32" y="0">hun</tspan><tspan x="60.66" y="0">t</tspan></text><text class="cls-36" transform="translate(85.33 161.2)">-</text><text class="cls-37" transform="translate(90.31 161.02)"><tspan class="cls-54">w</tspan><tspan class="cls-13" x="4.93" y="0">a</tspan><tspan class="cls-55" x="8.36" y="0">t</tspan><tspan class="cls-56" x="10.55" y="0">c</tspan><tspan class="cls-57" x="13.75" y="0">hin</tspan><tspan class="cls-13" x="23.22" y="0">g</tspan><tspan class="cls-57" x="27.27" y="0"> </tspan><tspan class="cls-54" x="28.75" y="0">y</tspan><tspan class="cls-13" x="31.7" y="0">outube</tspan><tspan class="cls-57" x="53.13" y="0" xml:space="preserve"> an</tspan><tspan x="62.03" y="0">d </tspan></text><path class="cls-27" d="M87.44,165.1a1.19,1.19,0,0,1,.91.34,1.29,1.29,0,0,1,.33.95v1.83h-.12v-1.83a1.17,1.17,0,0,0-.29-.87,1.09,1.09,0,0,0-.82-.3,1.27,1.27,0,0,0-1,.36,1.33,1.33,0,0,0-.35,1v1.68H86v-3.1h.12V166a1.25,1.25,0,0,1,.48-.62,1.44,1.44,0,0,1,.82-.23Zm5.13,1.57H89.81a1.44,1.44,0,0,0,.19.75,1.28,1.28,0,0,0,.51.52,1.41,1.41,0,0,0,.74.19,1.31,1.31,0,0,0,.59-.13,1.15,1.15,0,0,0,.46-.35l.09.08a1.37,1.37,0,0,1-.51.38,1.51,1.51,0,0,1-.63.13,1.61,1.61,0,0,1-.8-.2,1.41,1.41,0,0,1-.55-.56,1.57,1.57,0,0,1-.2-.81,1.79,1.79,0,0,1,.18-.81,1.48,1.48,0,0,1,.52-.56,1.38,1.38,0,0,1,.73-.2,1.4,1.4,0,0,1,.73.2,1.38,1.38,0,0,1,.52.55,1.57,1.57,0,0,1,.19.79Zm-1.44-1.45a1.26,1.26,0,0,0-1.12.65,1.42,1.42,0,0,0-.2.68h2.65a1.42,1.42,0,0,0-.2-.68,1.44,1.44,0,0,0-.47-.48,1.35,1.35,0,0,0-.66-.17ZM95,168a.61.61,0,0,1-.27.16,1,1,0,0,1-.34.06.73.73,0,0,1-.56-.21.75.75,0,0,1-.19-.55v-2.25h-.6v-.11h.6v-.68h.12v.68h1v.11h-1v2.22a.68.68,0,0,0,.16.5.62.62,0,0,0,.48.18.71.71,0,0,0,.51-.2Zm1.67-4.15a.65.65,0,0,0-.48.17.77.77,0,0,0-.16.5v.58h1v.11h-1v3h-.12v-3h-.6v-.11h.6v-.61a.77.77,0,0,1,.2-.55.72.72,0,0,1,.55-.21,1,1,0,0,1,.34.06.72.72,0,0,1,.27.16l-.09.09a.69.69,0,0,0-.51-.19Zm1.06-.1h.12v4.45h-.12Zm1.6.49a.12.12,0,0,1-.11,0,.14.14,0,0,1,0-.1.17.17,0,0,1,.16-.16.14.14,0,0,1,.1.05.12.12,0,0,1,.05.11.18.18,0,0,1-.15.15Zm-.06.86h.12v3.1H99.3Zm3.51,3.1-1.17-1.52-1.18,1.52h-.15l1.25-1.61-1.18-1.49h.15l1.1,1.41,1.1-1.41h.14l-1.17,1.49,1.26,1.61Zm1.7,0a2,2,0,0,1-.7-.12,1.27,1.27,0,0,1-.51-.31l.07-.09a1.4,1.4,0,0,0,.48.29,1.76,1.76,0,0,0,.66.12,1.28,1.28,0,0,0,.78-.19.58.58,0,0,0,.25-.5.49.49,0,0,0-.13-.37.79.79,0,0,0-.33-.2l-.54-.13a3.69,3.69,0,0,1-.59-.14.88.88,0,0,1-.38-.24.65.65,0,0,1-.15-.46.72.72,0,0,1,.28-.57,1.24,1.24,0,0,1,.81-.23,1.79,1.79,0,0,1,.57.09,1.32,1.32,0,0,1,.46.23l-.07.1a1.47,1.47,0,0,0-.43-.23,1.88,1.88,0,0,0-.53-.07,1.13,1.13,0,0,0-.72.19.57.57,0,0,0-.25.49.55.55,0,0,0,.14.39.83.83,0,0,0,.34.2,3.58,3.58,0,0,0,.54.13c.25,0,.44.1.58.14a.85.85,0,0,1,.37.24.6.6,0,0,1,.15.44.69.69,0,0,1-.29.58,1.42,1.42,0,0,1-.86.22Zm4-.31a.14.14,0,0,1,.11,0,.16.16,0,0,1,.05.1s0,.09,0,.18l-.2.8h-.11l.17-.82a.16.16,0,0,1-.11-.05.14.14,0,0,1,0-.11.14.14,0,0,1,.15-.15Zm4.11-4.06a.61.61,0,0,0-.47.17.72.72,0,0,0-.17.5v.58H113v.11H112v3h-.12v-3h-.6v-.11h.6v-.61a.77.77,0,0,1,.2-.55.72.72,0,0,1,.55-.21,1,1,0,0,1,.34.06.72.72,0,0,1,.27.16l-.08.09a.73.73,0,0,0-.52-.19Zm1.6.39a.15.15,0,0,1-.15-.15.14.14,0,0,1,0-.11.15.15,0,0,1,.22,0,.14.14,0,0,1,0,.11.14.14,0,0,1,0,.1.13.13,0,0,1-.11,0Zm-.06.86h.12v3.1h-.12Zm1.54-1.35h.12v4.45h-.12Zm5.39,1.33a1.16,1.16,0,0,1,.89.34,1.33,1.33,0,0,1,.32.95v1.83h-.12v-1.83a1.26,1.26,0,0,0-.28-.87,1.06,1.06,0,0,0-.8-.3,1.21,1.21,0,0,0-.93.36,1.33,1.33,0,0,0-.34,1v1.68h-.12v-1.83a1.22,1.22,0,0,0-.29-.87,1,1,0,0,0-.79-.3,1.2,1.2,0,0,0-.93.36,1.33,1.33,0,0,0-.35,1v1.68h-.12v-3.1h.12v.82a1.27,1.27,0,0,1,.47-.62,1.47,1.47,0,0,1,.8-.22,1.21,1.21,0,0,1,.78.24,1.14,1.14,0,0,1,.4.69,1.25,1.25,0,0,1,.45-.68,1.44,1.44,0,0,1,.84-.25Zm3.3,3.14a2,2,0,0,1-.7-.12,1.27,1.27,0,0,1-.51-.31l.07-.09a1.4,1.4,0,0,0,.48.29,1.8,1.8,0,0,0,.66.12,1.28,1.28,0,0,0,.78-.19.58.58,0,0,0,.25-.5.49.49,0,0,0-.13-.37.79.79,0,0,0-.33-.2l-.54-.13a4,4,0,0,1-.59-.14.88.88,0,0,1-.38-.24.65.65,0,0,1-.15-.46.72.72,0,0,1,.28-.57,1.27,1.27,0,0,1,.82-.23,1.88,1.88,0,0,1,.57.09,1.27,1.27,0,0,1,.45.23l-.07.1a1.36,1.36,0,0,0-.43-.23,1.81,1.81,0,0,0-.52-.07,1.14,1.14,0,0,0-.73.19.6.6,0,0,0-.25.49.55.55,0,0,0,.14.39.81.81,0,0,0,.35.2,3.06,3.06,0,0,0,.54.13l.58.14a.88.88,0,0,1,.36.24.6.6,0,0,1,.15.44.69.69,0,0,1-.29.58,1.4,1.4,0,0,1-.86.22Zm4.19-4a.13.13,0,0,1-.11,0,.14.14,0,0,1,0-.1.14.14,0,0,1,0-.11.15.15,0,0,1,.22,0,.14.14,0,0,1,.05.11.14.14,0,0,1-.05.1.13.13,0,0,1-.11,0Zm-.06.86h.12v3.1h-.12Zm3,0a1.19,1.19,0,0,1,.91.34,1.29,1.29,0,0,1,.33.95v1.83h-.12v-1.83a1.22,1.22,0,0,0-.29-.87,1.1,1.1,0,0,0-.83-.3,1.26,1.26,0,0,0-1,.36,1.29,1.29,0,0,0-.35,1v1.68H130v-3.1h.12V166a1.15,1.15,0,0,1,.48-.62,1.42,1.42,0,0,1,.82-.23Zm7.33,0V168a1.54,1.54,0,0,1-.35,1.1,1.46,1.46,0,0,1-1.08.35,2.22,2.22,0,0,1-.79-.13,1.67,1.67,0,0,1-.59-.38l.09-.09a1.54,1.54,0,0,0,.57.36,1.88,1.88,0,0,0,.72.13,1.15,1.15,0,0,0,1.31-1.33v-.78a1.4,1.4,0,0,1-.53.69,1.51,1.51,0,0,1-.87.25,1.55,1.55,0,0,1-.78-.19,1.43,1.43,0,0,1-.55-.54,1.62,1.62,0,0,1,0-1.56,1.43,1.43,0,0,1,.55-.54,1.67,1.67,0,0,1,.78-.19,1.58,1.58,0,0,1,.87.25,1.42,1.42,0,0,1,.53.68v-.91ZM137.27,168a1.43,1.43,0,0,0,.72-.18,1.21,1.21,0,0,0,.5-.5,1.53,1.53,0,0,0,0-1.44,1.27,1.27,0,0,0-.5-.5,1.61,1.61,0,0,0-1.44,0,1.29,1.29,0,0,0-.51.5,1.53,1.53,0,0,0,0,1.44,1.23,1.23,0,0,0,.51.5,1.43,1.43,0,0,0,.72.18Zm5.45-1.34H140a1.54,1.54,0,0,0,.18.75A1.45,1.45,0,0,0,142,168a1.23,1.23,0,0,0,.46-.35l.08.08a1.33,1.33,0,0,1-.5.38,1.65,1.65,0,0,1-1.43-.07,1.44,1.44,0,0,1-.56-.56,1.78,1.78,0,0,1,0-1.62,1.38,1.38,0,0,1,.51-.56,1.41,1.41,0,0,1,.74-.2,1.43,1.43,0,0,1,.73.2,1.45,1.45,0,0,1,.52.55,1.68,1.68,0,0,1,.19.79Zm-1.44-1.45a1.35,1.35,0,0,0-.66.17,1.44,1.44,0,0,0-.47.48,1.41,1.41,0,0,0-.19.68h2.64a1.42,1.42,0,0,0-.2-.68,1.35,1.35,0,0,0-.47-.48,1.31,1.31,0,0,0-.65-.17Zm3.91-.12a1.19,1.19,0,0,1,.91.34,1.29,1.29,0,0,1,.33.95v1.83h-.12v-1.83a1.22,1.22,0,0,0-.29-.87,1.1,1.1,0,0,0-.83-.3,1.26,1.26,0,0,0-.95.36,1.29,1.29,0,0,0-.35,1v1.68h-.12v-3.1h.12V166a1.15,1.15,0,0,1,.48-.62,1.42,1.42,0,0,1,.82-.23Zm5.13,1.57h-2.76a1.54,1.54,0,0,0,.18.75,1.37,1.37,0,0,0,.52.52,1.4,1.4,0,0,0,.73.19,1.38,1.38,0,0,0,.6-.13,1.15,1.15,0,0,0,.46-.35l.08.08a1.26,1.26,0,0,1-.5.38,1.53,1.53,0,0,1-.64.13,1.6,1.6,0,0,1-.79-.2,1.35,1.35,0,0,1-.55-.56,1.58,1.58,0,0,1-.21-.81,1.79,1.79,0,0,1,.19-.81,1.36,1.36,0,0,1,1.25-.76,1.4,1.4,0,0,1,.73.2,1.45,1.45,0,0,1,.52.55,1.57,1.57,0,0,1,.19.79Zm-1.44-1.45a1.35,1.35,0,0,0-.66.17,1.44,1.44,0,0,0-.47.48,1.53,1.53,0,0,0-.19.68h2.64a1.41,1.41,0,0,0-.19-.68,1.38,1.38,0,0,0-.48-.48,1.29,1.29,0,0,0-.65-.17Zm2.61.7a1.13,1.13,0,0,1,.44-.6,1.31,1.31,0,0,1,.78-.22v.12h0a1.1,1.1,0,0,0-.87.36,1.41,1.41,0,0,0-.31,1v1.67h-.12v-3.1h.12v.8Zm3.14-.82a1.17,1.17,0,0,1,.83.28,1.09,1.09,0,0,1,.28.81v2h-.12v-.66a1.09,1.09,0,0,1-.45.5,1.41,1.41,0,0,1-.73.18,1.24,1.24,0,0,1-.81-.24.77.77,0,0,1-.29-.63.76.76,0,0,1,.26-.6,1.24,1.24,0,0,1,.84-.23h1.18v-.35a1,1,0,0,0-.25-.73,1,1,0,0,0-.73-.24,1.81,1.81,0,0,0-.63.11,1.71,1.71,0,0,0-.5.32l-.09-.09a1.63,1.63,0,0,1,.54-.33,1.74,1.74,0,0,1,.67-.13Zm-.19,3a1.18,1.18,0,0,0,1.18-.8v-.68h-1.18a1.22,1.22,0,0,0-.74.19.64.64,0,0,0-.24.52.67.67,0,0,0,.26.56,1.1,1.1,0,0,0,.72.21Zm2.68-4.36h.12v4.45h-.12Zm5.17,2.74a.58.58,0,0,1-.33-.09,1.68,1.68,0,0,1-.33-.26,2.24,2.24,0,0,0-.29-.24.56.56,0,0,0-.67.1.82.82,0,0,0-.15.47h-.11a.85.85,0,0,1,.2-.55.58.58,0,0,1,.45-.2.64.64,0,0,1,.34.09,1.58,1.58,0,0,1,.32.26,3.06,3.06,0,0,0,.3.23.46.46,0,0,0,.27.08.48.48,0,0,0,.39-.18.72.72,0,0,0,.15-.46h.11a.87.87,0,0,1-.19.55.6.6,0,0,1-.46.2Z"/><text class="cls-36" transform="translate(85.33 175.6)"><tspan class="cls-58">-</tspan><tspan x="7.51" y="0"> </tspan></text><text class="cls-37" transform="translate(170.32 175.42)"> </text><text class="cls-37" transform="translate(170.32 175.42)"> </text><text class="cls-37" transform="translate(167.54 175.42)">s</text><text class="cls-37" transform="translate(161.69 175.42)">k</text><text class="cls-37" transform="translate(155.52 175.42)">o</text><text class="cls-37" transform="translate(149.34 175.42)">o</text><text class="cls-37" transform="translate(142.8 175.42)">b</text><text class="cls-37" transform="translate(138.3 175.42)"> </text><text class="cls-37" transform="translate(131.72 175.42)">g</text><text class="cls-37" transform="translate(125.2 175.42)">n</text><text class="cls-37" transform="translate(121.18 175.42)">i</text><text class="cls-37" transform="translate(114.64 175.42)">d</text><text class="cls-37" transform="translate(108.68 175.42)">a</text><text class="cls-37" transform="translate(102.74 175.42)">e</text><text class="cls-37" transform="translate(98.01 175.42)">r</text><text class="cls-37" transform="translate(85.33 182.62)"><tspan class="cls-59">i</tspan><tspan class="cls-60" x="3.88" y="0">n</tspan><tspan class="cls-59" x="10.27" y="0">s</tspan><tspan class="cls-60" x="15.42" y="0">tag</tspan><tspan class="cls-61" x="32.4" y="0">r</tspan><tspan class="cls-60" x="37.01" y="0">am</tspan><tspan class="cls-62" x="51.63" y="0"> </tspan><tspan class="cls-60" x="56" y="0">eu</tspan><tspan class="cls-59" x="68.27" y="0">rfin</tspan><tspan x="85.55" y="0">g </tspan></text><text class="cls-36" transform="translate(85.33 190)"><tspan class="cls-63">-</tspan><tspan x="13.4" y="0"> </tspan></text><text class="cls-37" transform="translate(109.79 189.82)"><tspan class="cls-64">w</tspan><tspan class="cls-63" x="13.34" y="0">o</tspan><tspan class="cls-65" x="25.4" y="0">r</tspan><tspan class="cls-66" x="36.04" y="0">k</tspan><tspan class="cls-67" x="47.74" y="0">ou</tspan><tspan x="72.2" y="0">t</tspan></text><text class="cls-36" transform="translate(85.33 197.2)"><tspan class="cls-68">-</tspan><tspan x="18.99" y="0"> </tspan></text><text class="cls-37" transform="translate(120.98 197.02)"><tspan class="cls-69">s</tspan><tspan class="cls-70" x="16.77" y="0">lee</tspan><tspan x="67.31" y="0">p</tspan></text><text class="cls-37" transform="translate(85.33 204.22)"><tspan class="cls-71">ALL</tspan><tspan class="cls-72" x="11.14" y="0" xml:space="preserve">  </tspan><tspan class="cls-71" x="15.16" y="0">THINGS</tspan><tspan class="cls-72" x="38.31" y="0"> </tspan><tspan class="cls-7" x="40.32" y="0">AB</tspan><tspan class="cls-73" x="48.97" y="0">O</tspan><tspan class="cls-74" x="53.89" y="0">V</tspan><tspan class="cls-7" x="57.83" y="0">E</tspan><tspan class="cls-72" x="61.86" y="0"> </tspan><tspan class="cls-75" x="63.87" y="0">HA</tspan><tspan class="cls-76" x="72.92" y="0">PP</tspan><tspan class="cls-71" x="81.36" y="0">ENS</tspan><tspan class="cls-72" x="93.92" y="0"> </tspan><tspan class="cls-75" x="95.93" y="0">I</tspan><tspan class="cls-7" x="97.66" y="0">N</tspan><tspan class="cls-77" x="102.58" y="0"> </tspan><tspan class="cls-71" x="104.58" y="0">M</tspan><tspan x="110.33" y="0">Y </tspan></text><text class="cls-78" transform="translate(85.33 211.42)"><tspan class="cls-79">DO</tspan><tspan class="cls-80" x="48.94" y="0">RM</tspan><tspan class="cls-81" x="97.95" y="0"> </tspan><tspan x="119.48" y="0">!</tspan></text><text class="cls-78" transform="translate(85.33 218.62)"><tspan class="cls-82">H</tspan><tspan class="cls-83" x="17.78" y="0">O</tspan><tspan class="cls-84" x="35.69" y="0">MEB</tspan><tspan class="cls-83" x="88.64" y="0">O</tspan><tspan class="cls-85" x="106.55" y="0">D</tspan><tspan x="124.22" y="0">Y</tspan></text></svg>